<svg width="155" height="45" viewBox="0 0 155 45" fill="none" xmlns="http://www.w3.org/2000/svg">
<path d="M151.808 0H2.80745C1.25694 0 0 1.26156 0 2.81778V42.1822C0 43.7384 1.25694 45 2.80745 45H151.808C153.358 45 154.615 43.7384 154.615 42.1822V2.81778C154.615 1.26156 153.358 0 151.808 0Z" fill="white"/>
<path d="M27.7476 29V15H33.2476C34.9142 15 36.1876 15.4133 37.0676 16.24C37.9609 17.0533 38.4076 18.1467 38.4076 19.52C38.4076 20.5333 38.1342 21.4133 37.5876 22.16C37.0409 22.8933 36.2742 23.4133 35.2876 23.72L38.5676 29H35.5876L32.5476 24.04H30.5676V29H27.7476ZM30.5676 21.5H33.4276C34.0942 21.5 34.6076 21.32 34.9676 20.96C35.3409 20.5867 35.5276 20.1067 35.5276 19.52C35.5276 18.9333 35.3409 18.46 34.9676 18.1C34.6076 17.7267 34.0942 17.54 33.4276 17.54H30.5676V21.5ZM44.8238 29.2C43.3438 29.2 42.1172 28.7333 41.1438 27.8C40.1705 26.8533 39.6838 25.62 39.6838 24.1C39.6838 22.5933 40.1638 21.3667 41.1238 20.42C42.0972 19.4733 43.3105 19 44.7638 19C46.1772 19 47.3438 19.4467 48.2638 20.34C49.1838 21.2333 49.6438 22.4067 49.6438 23.86C49.6438 24.0467 49.6238 24.34 49.5838 24.74H42.4438C42.5372 25.4733 42.7972 26.04 43.2238 26.44C43.6638 26.84 44.1972 27.04 44.8238 27.04C45.3305 27.04 45.7705 26.9133 46.1438 26.66C46.5172 26.4067 46.7505 26.0467 46.8438 25.58L49.2438 26.24C48.9905 27.2133 48.4572 27.9533 47.6438 28.46C46.8438 28.9533 45.9038 29.2 44.8238 29.2ZM42.5438 22.9H47.0038C46.9238 22.42 46.6838 22.02 46.2838 21.7C45.8838 21.3667 45.3838 21.2 44.7838 21.2C43.6372 21.2 42.8905 21.7667 42.5438 22.9ZM60.2571 26.84C60.3104 26.84 60.4571 26.8133 60.6971 26.76V29.06C60.3904 29.1533 60.0438 29.2 59.6571 29.2C58.4571 29.2 57.6571 28.82 57.2571 28.06C56.5638 28.82 55.5571 29.2 54.2371 29.2C53.2238 29.2 52.3971 28.94 51.7571 28.42C51.1171 27.9 50.7971 27.1733 50.7971 26.24C50.7971 25.3733 51.0904 24.6867 51.6771 24.18C52.2638 23.66 53.0371 23.3533 53.9971 23.26L56.9971 22.96V22.76C56.9971 22.2667 56.8371 21.88 56.5171 21.6C56.1971 21.32 55.7904 21.18 55.2971 21.18C54.4171 21.18 53.8704 21.5933 53.6571 22.42L51.2371 22.04C51.4104 20.9867 51.8838 20.22 52.6571 19.74C53.4438 19.2467 54.3838 19 55.4771 19C56.7971 19 57.8371 19.32 58.5971 19.96C59.3571 20.6 59.7371 21.5133 59.7371 22.7V26.3C59.7371 26.66 59.9104 26.84 60.2571 26.84ZM56.9971 25.1V24.78L54.7371 25.06C54.3371 25.1 54.0238 25.22 53.7971 25.42C53.5838 25.6067 53.4771 25.8467 53.4771 26.14C53.4771 26.4867 53.6238 26.7467 53.9171 26.92C54.2104 27.0933 54.5904 27.1733 55.0571 27.16C55.6304 27.1333 56.0971 26.94 56.4571 26.58C56.8171 26.22 56.9971 25.7267 56.9971 25.1ZM69.5755 15H72.3155V29H69.5755V27.94C68.8422 28.78 67.8155 29.2 66.4955 29.2C65.1355 29.2 63.9955 28.72 63.0755 27.76C62.1555 26.8 61.6955 25.58 61.6955 24.1C61.6955 22.6067 62.1555 21.3867 63.0755 20.44C64.0089 19.48 65.1622 19 66.5355 19C67.8155 19 68.8289 19.4133 69.5755 20.24V15ZM65.2555 26.08C65.7489 26.5733 66.3555 26.82 67.0755 26.82C67.7955 26.82 68.3889 26.5733 68.8555 26.08C69.3355 25.5733 69.5755 24.9133 69.5755 24.1C69.5755 23.2867 69.3355 22.6333 68.8555 22.14C68.3889 21.6333 67.7955 21.38 67.0755 21.38C66.3555 21.38 65.7489 21.6333 65.2555 22.14C64.7755 22.6333 64.5355 23.2867 64.5355 24.1C64.5355 24.9133 64.7755 25.5733 65.2555 26.08ZM91.304 15H94.784V29H91.964V20.34L88.404 29H85.964L82.384 20.3V29H79.564V15H83.044L87.184 24.86L91.304 15ZM105.716 27.8C104.716 28.7333 103.463 29.2 101.956 29.2C100.449 29.2 99.1893 28.7333 98.176 27.8C97.176 26.8533 96.676 25.6333 96.676 24.14C96.676 22.6067 97.176 21.3667 98.176 20.42C99.176 19.4733 100.436 19 101.956 19C103.463 19 104.716 19.48 105.716 20.44C106.716 21.3867 107.216 22.62 107.216 24.14C107.216 25.6333 106.716 26.8533 105.716 27.8ZM100.196 26.04C100.663 26.5067 101.249 26.74 101.956 26.74C102.663 26.74 103.249 26.5067 103.716 26.04C104.183 25.56 104.416 24.92 104.416 24.12C104.416 23.2933 104.183 22.64 103.716 22.16C103.249 21.68 102.663 21.44 101.956 21.44C101.249 21.44 100.663 21.68 100.196 22.16C99.7293 22.64 99.496 23.2933 99.496 24.12C99.496 24.92 99.7293 25.56 100.196 26.04ZM114.355 19C114.915 19 115.395 19.0667 115.795 19.2L115.395 21.8C114.915 21.6267 114.402 21.54 113.855 21.54C113.229 21.54 112.709 21.7467 112.295 22.16C111.882 22.56 111.675 23.1467 111.675 23.92V29H108.935V19.2H111.675V20.12C112.342 19.3733 113.235 19 114.355 19ZM121.621 29.2C120.141 29.2 118.914 28.7333 117.941 27.8C116.967 26.8533 116.481 25.62 116.481 24.1C116.481 22.5933 116.961 21.3667 117.921 20.42C118.894 19.4733 120.107 19 121.561 19C122.974 19 124.141 19.4467 125.061 20.34C125.981 21.2333 126.441 22.4067 126.441 23.86C126.441 24.0467 126.421 24.34 126.381 24.74H119.241C119.334 25.4733 119.594 26.04 120.021 26.44C120.461 26.84 120.994 27.04 121.621 27.04C122.127 27.04 122.567 26.9133 122.941 26.66C123.314 26.4067 123.547 26.0467 123.641 25.58L126.041 26.24C125.787 27.2133 125.254 27.9533 124.441 28.46C123.641 28.9533 122.701 29.2 121.621 29.2ZM119.341 22.9H123.801C123.721 22.42 123.481 22.02 123.081 21.7C122.681 21.3667 122.181 21.2 121.581 21.2C120.434 21.2 119.687 21.7667 119.341 22.9Z" fill="#3754ED"/>
</svg>
