<svg width="62" height="62" viewBox="0 0 62 62" fill="none" xmlns="http://www.w3.org/2000/svg">
<g clip-path="url(#clip0_294_2054)">
<path d="M44.3504 49.5401C41.4804 49.5401 39.1504 47.2101 39.1504 44.3401C39.1504 41.4701 41.4804 39.1401 44.3504 39.1401C47.2204 39.1401 49.5604 41.4701 49.5604 44.3401C49.5604 47.2101 47.2304 49.5401 44.3504 49.5401ZM44.3504 41.1301C42.5804 41.1301 41.1504 42.5701 41.1504 44.3301C41.1504 46.0901 42.5904 47.5301 44.3504 47.5301C46.1104 47.5301 47.5604 46.0901 47.5604 44.3301C47.5604 42.5701 46.1204 41.1301 44.3504 41.1301Z" fill="#141414"/>
<path d="M48.2404 61.0601H40.4504C39.9104 61.0601 39.4704 60.6301 39.4504 60.0901L39.3304 56.3401C38.2604 55.8901 37.2604 55.3101 36.3504 54.6001L32.9204 56.4001C32.4404 56.6501 31.8504 56.4801 31.5904 56.0001L27.7604 49.2101C27.4904 48.7401 27.6504 48.1401 28.1104 47.8601L31.4204 45.8501C31.3604 45.3501 31.3304 44.8401 31.3304 44.3301C31.3304 43.8201 31.3604 43.3101 31.4204 42.8101L28.1104 40.8101C27.6504 40.5301 27.4904 39.9301 27.7604 39.4601L31.5904 32.6701C31.8604 32.2001 32.4504 32.0301 32.9204 32.2701L36.3504 34.0701C37.2604 33.3601 38.2604 32.7801 39.3204 32.3301L39.4404 28.3401C39.4604 27.8001 39.9004 27.3701 40.4404 27.3701H48.2304C48.7704 27.3701 49.2104 27.8001 49.2304 28.3401L49.3504 32.3301C50.4204 32.7801 51.4104 33.3601 52.3204 34.0701L55.7504 32.2701C56.2304 32.0201 56.8204 32.1901 57.0804 32.6701L60.9104 39.4601C61.1804 39.9301 61.0204 40.5301 60.5604 40.8101L57.2504 42.8101C57.3104 43.3201 57.3404 43.8301 57.3404 44.3301C57.3404 44.8301 57.3104 45.3501 57.2504 45.8501L60.5604 47.8501C61.0204 48.1301 61.1804 48.7301 60.9104 49.2001L57.0804 55.9901C56.8204 56.4601 56.2304 56.6401 55.7504 56.3901L52.3204 54.5901C51.4104 55.3001 50.4104 55.8901 49.3404 56.3301L49.2204 60.0801C49.2004 60.6201 48.7604 61.0501 48.2204 61.0501L48.2404 61.0601ZM41.4204 59.0601H47.2704L47.3804 55.6201C47.3904 55.2101 47.6604 54.8501 48.0404 54.7101C49.3304 54.2501 50.5204 53.5601 51.5604 52.6501C51.8704 52.3801 52.3104 52.3301 52.6804 52.5201L55.8404 54.1701L58.7204 49.0701L55.6704 47.2201C55.3204 47.0101 55.1304 46.6001 55.2004 46.2001C55.3104 45.5801 55.3604 44.9601 55.3604 44.3301C55.3604 43.7001 55.3104 43.0801 55.2004 42.4601C55.1304 42.0601 55.3204 41.6501 55.6704 41.4401L58.7204 39.5901L55.8404 34.4901L52.6804 36.1401C52.3104 36.3301 51.8704 36.2801 51.5604 36.0101C50.5204 35.1101 49.3404 34.4201 48.0504 33.9601C47.6604 33.8201 47.4004 33.4601 47.3904 33.0501L47.2804 29.3701H41.4304L41.3204 33.0501C41.3104 33.4601 41.0404 33.8201 40.6604 33.9601C39.3704 34.4201 38.1904 35.1101 37.1504 36.0101C36.8404 36.2801 36.4004 36.3301 36.0304 36.1401L32.8704 34.4901L30.0004 39.5901L33.0504 41.4401C33.4004 41.6501 33.5904 42.0601 33.5204 42.4601C33.4204 43.0701 33.3604 43.7001 33.3604 44.3301C33.3604 44.9601 33.4104 45.5801 33.5204 46.2001C33.5904 46.6101 33.4004 47.0101 33.0504 47.2201L30.0004 49.0701L32.8804 54.1701L36.0404 52.5201C36.4104 52.3301 36.8504 52.3801 37.1604 52.6501C38.2004 53.5501 39.3804 54.2501 40.6804 54.7101C41.0704 54.8501 41.3304 55.2101 41.3404 55.6201L41.4504 59.0601H41.4204Z" fill="#141414"/>
<path d="M7.23 43.93C7.07 43.93 6.92 43.89 6.77 43.82C6.44 43.65 6.23 43.31 6.23 42.93V36.8H1C0.45 36.8 0 36.35 0 35.8V1C0 0.45 0.45 0 1 0H53.45C54 0 54.45 0.45 54.45 1V34.62C54.45 35.17 54 35.62 53.45 35.62C52.9 35.62 52.45 35.17 52.45 34.62V2H2V34.8H7.23C7.78 34.8 8.23 35.25 8.23 35.8V40.98L16.6 34.94C16.77 34.82 16.98 34.75 17.18 34.75H30.98C31.53 34.75 31.98 35.2 31.98 35.75C31.98 36.3 31.53 36.75 30.98 36.75H17.5L7.8 43.74C7.63 43.87 7.42 43.93 7.22 43.93H7.23Z" fill="#141414"/>
<path d="M13.1904 22.8601C12.6404 22.8601 12.1904 22.4101 12.1904 21.8601V14.5701C12.1904 14.0201 12.6404 13.5701 13.1904 13.5701C13.7404 13.5701 14.1904 14.0201 14.1904 14.5701V21.8601C14.1904 22.4101 13.7404 22.8601 13.1904 22.8601Z" fill="#141414"/>
<path d="M20.21 26.72C19.66 26.72 19.21 26.27 19.21 25.72V10.71C19.21 10.16 19.66 9.70996 20.21 9.70996C20.76 9.70996 21.21 10.16 21.21 10.71V25.72C21.21 26.27 20.76 26.72 20.21 26.72Z" fill="#141414"/>
<path d="M27.2305 22.8601C26.6805 22.8601 26.2305 22.4101 26.2305 21.8601V14.5701C26.2305 14.0201 26.6805 13.5701 27.2305 13.5701C27.7805 13.5701 28.2305 14.0201 28.2305 14.5701V21.8601C28.2305 22.4101 27.7805 22.8601 27.2305 22.8601Z" fill="#141414"/>
<path d="M34.25 24.9C33.7 24.9 33.25 24.45 33.25 23.9V12.54C33.25 11.99 33.7 11.54 34.25 11.54C34.8 11.54 35.25 11.99 35.25 12.54V23.9C35.25 24.45 34.8 24.9 34.25 24.9Z" fill="#141414"/>
<path d="M41.2705 21.4C40.7205 21.4 40.2705 20.95 40.2705 20.4V16.04C40.2705 15.49 40.7205 15.04 41.2705 15.04C41.8205 15.04 42.2705 15.49 42.2705 16.04V20.4C42.2705 20.95 41.8205 21.4 41.2705 21.4Z" fill="#141414"/>
</g>
<defs>
<clipPath id="clip0_294_2054">
<rect width="61.06" height="61.06" fill="white"/>
</clipPath>
</defs>
</svg>
