<svg width="60" height="60" viewBox="0 0 60 60" fill="none" xmlns="http://www.w3.org/2000/svg">
<g clip-path="url(#clip0_294_1856)">
<path d="M58.14 49.8299H0.92C0.41 49.8299 0 49.4199 0 48.9099V8.30988C0 7.79988 0.41 7.38988 0.92 7.38988H23.99V9.23988H1.85V47.9999H57.22V9.22988H54.45V7.37988H58.14C58.65 7.37988 59.06 7.78988 59.06 8.29988V48.8999C59.06 49.4099 58.65 49.8199 58.14 49.8199V49.8299Z" fill="#141414"/>
<path d="M41.5301 55.37H17.5401C17.0301 55.37 16.6201 54.96 16.6201 54.45C16.6201 54.35 16.6401 54.25 16.6701 54.16L18.5201 48.62C18.6501 48.24 19.0001 47.99 19.4001 47.99H39.7001C40.1001 47.99 40.4501 48.24 40.5801 48.62L42.4301 54.16C42.5901 54.64 42.3301 55.17 41.8501 55.33C41.7601 55.36 41.6601 55.38 41.5601 55.38L41.5301 55.37ZM18.8101 53.52H40.2401L39.0101 49.83H20.0401L18.8101 53.52Z" fill="#141414"/>
<path d="M45.2199 59.06H13.8399C13.3299 59.06 12.9199 58.65 12.9199 58.14C12.9199 55.59 14.9899 53.53 17.5299 53.53H41.5199C44.0699 53.53 46.1299 55.6 46.1299 58.14C46.1299 58.65 45.7199 59.06 45.2099 59.06H45.2199ZM14.9199 57.21H44.1299C43.7399 56.1 42.6899 55.37 41.5199 55.36H17.5299C16.3599 55.36 15.3099 56.1 14.9199 57.21Z" fill="#141414"/>
<path d="M0.919922 40.6001H58.1299V42.4501H0.919922V40.6001Z" fill="#141414"/>
<path d="M53.5195 36.9099H55.3695V38.7599H53.5195V36.9099Z" fill="#141414"/>
<path d="M53.5195 22.1499H55.3695V35.0699H53.5195V22.1499Z" fill="#141414"/>
<path d="M35.5299 46.14H23.5299C21.0699 46.23 19.0099 44.32 18.9199 41.86C18.9199 41.75 18.9199 41.64 18.9199 41.52H20.7699C20.6899 42.97 21.8099 44.21 23.2599 44.29C23.3499 44.29 23.4499 44.29 23.5399 44.29H35.5399C36.9899 44.37 38.2299 43.25 38.3099 41.8C38.3099 41.71 38.3099 41.61 38.3099 41.52H40.1599C40.2499 43.98 38.3299 46.04 35.8799 46.13C35.7699 46.13 35.6599 46.13 35.5499 46.13L35.5299 46.14Z" fill="#141414"/>
<path d="M50.7497 35.0699H33.2197V33.2199H49.8297V22.1499H51.6797V34.1499C51.6797 34.6599 51.2697 35.0699 50.7597 35.0699H50.7497Z" fill="#141414"/>
<path d="M47.0602 35.0701H43.3702C42.8602 35.0701 42.4502 34.6601 42.4502 34.1501V24.0001C42.4502 23.4901 42.8602 23.0801 43.3702 23.0801H47.0602C47.5702 23.0801 47.9802 23.4901 47.9802 24.0001V34.1501C47.9802 34.6601 47.5702 35.0701 47.0602 35.0701ZM44.2902 33.2201H46.1402V24.9101H44.2902V33.2201Z" fill="#141414"/>
<path d="M39.6803 35.0701H35.9903C35.4803 35.0701 35.0703 34.6601 35.0703 34.1501V26.7701C35.0703 26.2601 35.4803 25.8501 35.9903 25.8501H39.6803C40.1903 25.8501 40.6003 26.2601 40.6003 26.7701V34.1501C40.6003 34.6601 40.1903 35.0701 39.6803 35.0701ZM36.9103 33.2201H38.7603V27.6801H36.9103V33.2201Z" fill="#141414"/>
<path d="M49.8301 36.9099H51.6801V38.7599H49.8301V36.9099Z" fill="#141414"/>
<path d="M26.7598 36.9099H47.9798V38.7599H26.7598V36.9099Z" fill="#141414"/>
<path d="M25.4001 31.6199C24.2801 31.6199 23.2801 30.9299 22.8601 29.8899L17.3301 16.3099C17.0501 15.6399 17.0501 14.8899 17.3301 14.2199C17.6001 13.5499 18.1301 13.0099 18.8001 12.7399L20.4401 12.0699C20.9101 11.8799 21.4501 12.1099 21.6401 12.5799L28.5501 29.5599C28.7401 30.0299 28.5101 30.5699 28.0401 30.7599L26.4001 31.4299C26.0801 31.5599 25.7501 31.6199 25.4001 31.6199ZM20.2601 14.1199L19.4701 14.4399C19.2601 14.5299 19.1001 14.6899 19.0201 14.8999C18.9301 15.1299 18.9301 15.3799 19.0201 15.6099L24.5501 29.1899C24.7201 29.6499 25.2201 29.8799 25.6801 29.7099L26.4701 29.3899L20.2501 14.1199H20.2601Z" fill="#141414"/>
<path d="M13.2903 30.74C12.9103 30.74 12.5803 30.51 12.4303 30.17L9.66034 23.38C9.51034 23.02 9.61034 22.61 9.89034 22.35L17.5403 15.28L18.7903 16.64L11.6203 23.28L13.9003 28.89L23.6803 28.63L23.7303 30.48L13.3203 30.76H13.2903V30.74Z" fill="#141414"/>
<path d="M6.89959 33.1999C6.52959 33.1999 6.15959 33.1199 5.81959 32.9699C5.15959 32.6799 4.63959 32.1399 4.36959 31.4699L2.98959 28.0699C2.70959 27.3999 2.70959 26.6499 2.97959 25.9799C3.24959 25.3099 3.77959 24.7699 4.44959 24.4999L10.1996 22.1599L10.8996 23.8699L5.14959 26.2099C4.93959 26.2999 4.77959 26.4599 4.69959 26.6699C4.60959 26.8999 4.60959 27.1499 4.69959 27.3699L6.07959 30.7699C6.16959 30.9999 6.33959 31.1799 6.56959 31.2799C6.76959 31.3699 7.00959 31.3799 7.21959 31.2899L12.9696 28.9499L13.6696 30.6599L7.91959 32.9899C7.59959 33.1199 7.25959 33.1899 6.91959 33.1899L6.89959 33.1999Z" fill="#141414"/>
<path d="M10.4398 37.8399C10.0598 37.8399 9.72977 37.6099 9.57977 37.2699L7.50977 32.1799L9.21977 31.4799L10.9498 35.7199L12.5198 35.0699L10.7898 30.8299L12.4998 30.1299L14.5698 35.2199C14.7598 35.6899 14.5298 36.2299 14.0598 36.4199L10.7798 37.7599C10.6698 37.8099 10.5498 37.8299 10.4298 37.8299L10.4398 37.8399Z" fill="#141414"/>
<path d="M14.3799 18.48L16.0899 17.78L20.9299 29.66L19.2199 30.36L14.3799 18.48Z" fill="#141414"/>
<path d="M32.2998 24.92C31.7898 24.92 31.3798 24.51 31.3798 24V20.31H28.6098C27.0798 20.31 25.8398 19.07 25.8398 17.54V2.77C25.8398 1.24 27.0798 0 28.6098 0H52.5998C54.1298 0 55.3698 1.24 55.3698 2.77V17.53C55.3698 19.06 54.1298 20.3 52.5998 20.3H37.2898L32.9498 24.64C32.7798 24.81 32.5398 24.91 32.2998 24.91V24.92ZM28.6098 1.85C28.0998 1.85 27.6898 2.26 27.6898 2.77V17.53C27.6898 18.04 28.0998 18.45 28.6098 18.45H32.2998C32.8098 18.45 33.2198 18.86 33.2198 19.37V21.76L36.2598 18.72C36.4298 18.55 36.6698 18.45 36.9098 18.45H52.5998C53.1098 18.45 53.5198 18.04 53.5198 17.53V2.77C53.5198 2.26 53.1098 1.85 52.5998 1.85H28.6098Z" fill="#141414"/>
<path d="M33.2202 12.9199C31.6902 12.9199 30.4502 11.6799 30.4502 10.1499C30.4502 8.61988 31.6902 7.37988 33.2202 7.37988C34.7502 7.37988 35.9902 8.61988 35.9902 10.1499C35.9902 11.6799 34.7502 12.9199 33.2202 12.9199ZM33.2202 9.22988C32.7102 9.22988 32.3002 9.63988 32.3002 10.1499C32.3002 10.6599 32.7102 11.0699 33.2202 11.0699C33.7302 11.0699 34.1402 10.6599 34.1402 10.1499C34.1402 9.63988 33.7302 9.22988 33.2202 9.22988Z" fill="#141414"/>
<path d="M40.6001 12.9199C39.0701 12.9199 37.8301 11.6799 37.8301 10.1499C37.8301 8.61988 39.0701 7.37988 40.6001 7.37988C42.1301 7.37988 43.3701 8.61988 43.3701 10.1499C43.3701 11.6799 42.1301 12.9199 40.6001 12.9199ZM40.6001 9.22988C40.0901 9.22988 39.6801 9.63988 39.6801 10.1499C39.6801 10.6599 40.0901 11.0699 40.6001 11.0699C41.1101 11.0699 41.5201 10.6599 41.5201 10.1499C41.5201 9.63988 41.1101 9.22988 40.6001 9.22988Z" fill="#141414"/>
<path d="M47.9897 12.9199C46.4597 12.9199 45.2197 11.6799 45.2197 10.1499C45.2197 8.61988 46.4597 7.37988 47.9897 7.37988C49.5197 7.37988 50.7597 8.61988 50.7597 10.1499C50.7597 11.6799 49.5197 12.9199 47.9897 12.9199ZM47.9897 9.22988C47.4797 9.22988 47.0697 9.63988 47.0697 10.1499C47.0697 10.6599 47.4797 11.0699 47.9897 11.0699C48.4997 11.0699 48.9097 10.6599 48.9097 10.1499C48.9097 9.63988 48.4997 9.22988 47.9897 9.22988Z" fill="#141414"/>
<path d="M5.54043 15.6901H3.69043V12.0001C3.69043 11.4901 4.10043 11.0801 4.61043 11.0801H8.30043V12.9301H5.53043V15.7001L5.54043 15.6901Z" fill="#141414"/>
<path d="M3.69043 17.53H5.54043V19.38H3.69043V17.53Z" fill="#141414"/>
</g>
<defs>
<clipPath id="clip0_294_1856">
<rect width="59.06" height="59.06" fill="white"/>
</clipPath>
</defs>
</svg>
