<svg width="64" height="59" viewBox="0 0 64 59" fill="none" xmlns="http://www.w3.org/2000/svg">
<g clip-path="url(#clip0_294_2100)">
<path d="M61.1504 41.84H59.9704C59.8204 41.37 59.6204 40.91 59.4004 40.47L60.2304 39.64C61.0504 38.82 61.0404 37.49 60.2304 36.67L58.6104 35.05C57.7904 34.23 56.4604 34.23 55.6404 35.05L54.8104 35.88C54.3604 35.66 53.9004 35.46 53.4404 35.31V34.13C53.4404 32.97 52.5004 32.03 51.3404 32.03H50.9604V28.17H59.2804C60.4804 28.17 61.4604 27.19 61.4604 25.99V7.31997C61.4604 7.31997 61.4604 7.29997 61.4604 7.27997C61.4604 7.12997 61.4004 6.97997 61.3204 6.86997C61.3204 6.86997 61.3204 6.86997 61.3204 6.85997C61.3004 6.82997 61.2804 6.80997 61.2504 6.77997C61.1304 6.65997 57.1404 2.53997 55.0604 0.389971C54.8904 0.209971 54.6504 0.129971 54.4104 0.159971C54.3804 0.159971 54.3404 0.159971 54.3004 0.159971H41.1104C39.9104 0.159971 38.9304 1.13997 38.9304 2.33997V7.31997H17.2004C14.9804 7.31997 13.1804 9.11997 13.1804 11.34V14.32C9.90039 14.39 6.83039 14.91 4.47039 15.81C1.68039 16.84 0.150391 18.34 0.150391 20V40.76C0.150391 42.42 1.68039 43.92 4.46039 44.97C6.82039 45.87 9.89039 46.39 13.1704 46.46V49.44C13.1704 51.66 14.9704 53.46 17.1904 53.46H40.0904C40.0904 53.46 40.1304 53.5 40.1504 53.52L41.7704 55.14C42.1704 55.54 42.6904 55.76 43.2604 55.76C43.8304 55.76 44.3504 55.54 44.7404 55.14L45.5704 54.31C46.0204 54.53 46.4804 54.73 46.9504 54.88V56.06C46.9504 57.22 47.8904 58.16 49.0504 58.16H51.3404C52.5004 58.16 53.4404 57.22 53.4404 56.06V54.88C53.9104 54.72 54.3704 54.53 54.8204 54.31L55.6504 55.14C56.4704 55.96 57.8004 55.96 58.6204 55.14L60.2404 53.52C61.0604 52.7 61.0604 51.37 60.2404 50.55L59.4104 49.71C59.6404 49.26 59.8304 48.8 59.9804 48.33H61.1604C62.3204 48.33 63.2604 47.39 63.2604 46.23V43.94C63.2604 42.78 62.3204 41.84 61.1604 41.84H61.1504ZM55.2504 2.81997C56.3304 3.92997 57.8204 5.46997 58.8704 6.55997H55.2704C55.2704 6.55997 55.2604 6.55997 55.2504 6.55997V2.82997V2.81997ZM40.4604 2.32997C40.4604 1.97997 40.7504 1.68997 41.1004 1.68997H53.7204V6.51997C53.7204 6.93997 53.8704 7.32997 54.1704 7.61997C54.4704 7.91997 54.8604 8.07997 55.2804 8.07997H59.9204V25.98C59.9204 26.33 59.6304 26.62 59.2804 26.62H41.0904C40.7404 26.62 40.4504 26.33 40.4504 25.98V2.32997H40.4604ZM5.00039 17.22C7.37039 16.32 10.5504 15.82 13.9304 15.82C17.3104 15.82 20.4904 16.32 22.8604 17.22C24.9404 18.01 26.1804 19.05 26.1804 20C26.1804 20.95 24.9404 21.98 22.8604 22.77C20.4904 23.67 17.3104 24.17 13.9304 24.17C10.5504 24.17 7.37039 23.67 5.00039 22.77C2.92039 21.98 1.68039 20.95 1.68039 20C1.68039 19.05 2.92039 18.01 5.00039 17.22ZM26.1904 27.7C26.1904 28.65 24.9504 29.68 22.8704 30.47C20.5004 31.37 17.3204 31.87 13.9404 31.87C10.5604 31.87 7.38039 31.37 5.01039 30.47C2.93039 29.68 1.69039 28.65 1.69039 27.7V22.71C2.39039 23.27 3.32039 23.78 4.46039 24.21C7.00039 25.17 10.3704 25.71 13.9404 25.71C17.5104 25.71 20.8804 25.18 23.4204 24.21C24.5604 23.78 25.4904 23.27 26.1904 22.71V27.7ZM1.69039 30.41C2.39039 30.97 3.32039 31.48 4.46039 31.91C7.00039 32.87 10.3704 33.41 13.9404 33.41C17.5104 33.41 20.8804 32.88 23.4204 31.91C24.5604 31.48 25.4904 30.97 26.1904 30.41V34.23C26.1904 35.18 24.9504 36.21 22.8704 37C20.5004 37.9 17.3204 38.4 13.9404 38.4C10.5604 38.4 7.38039 37.9 5.01039 37C2.93039 36.21 1.69039 35.18 1.69039 34.23V30.41ZM1.69039 40.76V36.94C2.39039 37.5 3.32039 38.01 4.46039 38.44C7.00039 39.4 10.3704 39.94 13.9404 39.94C17.5104 39.94 20.8804 39.41 23.4204 38.44C24.5604 38.01 25.4904 37.5 26.1904 36.94V40.76C26.1904 41.71 24.9504 42.75 22.8704 43.54C20.5004 44.44 17.3204 44.94 13.9404 44.94C10.5604 44.94 7.38039 44.44 5.01039 43.54C2.93039 42.75 1.69039 41.71 1.69039 40.76ZM40.1504 50.55C39.7804 50.92 39.5704 51.4 39.5404 51.92H17.1904C15.8204 51.92 14.7104 50.81 14.7104 49.44V46.46C17.9904 46.39 21.0604 45.87 23.4204 44.97C26.2004 43.92 27.7304 42.42 27.7304 40.76V20C27.7304 18.34 26.2004 16.84 23.4204 15.79C21.0604 14.89 17.9904 14.37 14.7104 14.3V11.32C14.7104 9.94997 15.8204 8.83997 17.1904 8.83997H38.9204V25.99C38.9204 27.19 39.9004 28.17 41.1004 28.17H49.4204V32.03H49.0404C47.8804 32.03 46.9404 32.97 46.9404 34.13V35.31C46.4704 35.46 46.0104 35.66 45.5604 35.88L44.7304 35.05C44.3404 34.66 43.8104 34.44 43.2504 34.44C42.6904 34.44 42.1604 34.66 41.7704 35.05L40.1504 36.67C39.7504 37.06 39.5304 37.59 39.5304 38.15C39.5304 38.71 39.7504 39.24 40.1504 39.64L40.9804 40.47C40.7604 40.91 40.5704 41.37 40.4104 41.85H39.2304C38.0704 41.85 37.1304 42.79 37.1304 43.95V46.24C37.1304 47.4 38.0704 48.34 39.2304 48.34H40.4104C40.5704 48.81 40.7604 49.27 40.9804 49.72L40.1504 50.55ZM61.7104 46.24C61.7104 46.54 61.4504 46.8 61.1504 46.8H59.4004C59.0504 46.8 58.7504 47.03 58.6604 47.37C58.4704 48.09 58.1804 48.79 57.7904 49.47C57.6204 49.77 57.6704 50.15 57.9104 50.4L59.1504 51.64C59.2504 51.74 59.3104 51.89 59.3104 52.04C59.3104 52.19 59.2504 52.33 59.1504 52.44L57.5304 54.06C57.3104 54.28 56.9504 54.28 56.7304 54.06L55.4904 52.82C55.2404 52.57 54.8604 52.52 54.5604 52.7C53.9104 53.08 53.2004 53.37 52.4604 53.57C52.1204 53.66 51.8904 53.96 51.8904 54.31V56.06C51.8904 56.37 51.6404 56.62 51.3304 56.62H49.0404C48.7304 56.62 48.4804 56.37 48.4804 56.06V54.31C48.4804 53.96 48.2504 53.66 47.9104 53.57C47.1804 53.37 46.4704 53.08 45.8104 52.7C45.6904 52.63 45.5604 52.6 45.4304 52.6C45.2304 52.6 45.0304 52.68 44.8904 52.83L43.6504 54.07C43.5504 54.17 43.4104 54.23 43.2604 54.23C43.1104 54.23 42.9704 54.17 42.8604 54.07L41.2404 52.45C41.1304 52.35 41.0804 52.21 41.0804 52.06C41.0804 51.91 41.1404 51.77 41.2404 51.66L42.4804 50.42C42.7304 50.17 42.7804 49.79 42.6004 49.49C42.2204 48.83 41.9204 48.12 41.7304 47.39C41.6404 47.05 41.3404 46.82 40.9904 46.82H39.2404C38.9404 46.82 38.6804 46.56 38.6804 46.26V43.97C38.6804 43.67 38.9404 43.41 39.2404 43.41H40.9904C41.3404 43.41 41.6404 43.18 41.7304 42.84C41.9304 42.1 42.2204 41.4 42.6004 40.74C42.7704 40.44 42.7204 40.06 42.4804 39.81L41.2404 38.57C41.1304 38.46 41.0804 38.32 41.0804 38.17C41.0804 38.02 41.1404 37.88 41.2404 37.77L42.8604 36.15C42.9604 36.05 43.1104 35.99 43.2604 35.99C43.4104 35.99 43.5504 36.05 43.6604 36.15L44.9004 37.39C45.1504 37.64 45.5304 37.69 45.8304 37.51C46.5004 37.12 47.2104 36.83 47.9304 36.64C48.2704 36.55 48.5004 36.25 48.5004 35.9V34.15C48.5004 33.84 48.7504 33.59 49.0604 33.59H51.3504C51.6604 33.59 51.9104 33.84 51.9104 34.15V35.9C51.9104 36.25 52.1404 36.55 52.4804 36.64C53.2004 36.83 53.9104 37.12 54.5804 37.51C54.8804 37.68 55.2604 37.63 55.5104 37.39L56.7404 36.16C56.9604 35.94 57.3204 35.94 57.5404 36.16L59.1604 37.78C59.3704 37.99 59.3704 38.36 59.1604 38.58L57.9204 39.82C57.6704 40.07 57.6204 40.45 57.8004 40.75C58.1804 41.42 58.4804 42.13 58.6704 42.85C58.7604 43.19 59.0604 43.42 59.4104 43.42H61.1604C61.4604 43.42 61.7204 43.68 61.7204 43.98V46.27L61.7104 46.24ZM50.1904 39.15C46.9204 39.15 44.2504 41.82 44.2504 45.09C44.2504 48.36 46.9104 51.03 50.1904 51.03C53.4704 51.03 56.1304 48.37 56.1304 45.09C56.1304 41.81 53.4604 39.15 50.1904 39.15ZM50.1904 49.49C47.7604 49.49 45.7904 47.52 45.7904 45.09C45.7904 42.66 47.7604 40.69 50.1904 40.69C52.6204 40.69 54.5904 42.67 54.5904 45.09C54.5904 47.51 52.6104 49.49 50.1904 49.49ZM43.4604 10.32C43.4604 9.89997 43.8004 9.54997 44.2304 9.54997H50.3704C50.7904 9.54997 51.1404 9.88997 51.1404 10.32C51.1404 10.75 50.8004 11.09 50.3704 11.09H44.2304C43.8104 11.09 43.4604 10.75 43.4604 10.32ZM52.5304 10.32C52.5304 9.89997 52.8704 9.54997 53.3004 9.54997H56.1604C56.5804 9.54997 56.9304 9.88997 56.9304 10.32C56.9304 10.75 56.5904 11.09 56.1604 11.09H53.3004C52.8804 11.09 52.5304 10.75 52.5304 10.32ZM56.9204 14.43C56.9204 14.85 56.5804 15.2 56.1504 15.2H50.0104C49.5904 15.2 49.2404 14.86 49.2404 14.43C49.2404 14 49.5804 13.66 50.0104 13.66H56.1504C56.5704 13.66 56.9204 14 56.9204 14.43ZM43.4604 14.43C43.4604 14.01 43.8004 13.66 44.2304 13.66H47.0904C47.5104 13.66 47.8604 14 47.8604 14.43C47.8604 14.86 47.5204 15.2 47.0904 15.2H44.2304C43.8104 15.2 43.4604 14.86 43.4604 14.43ZM43.4604 18.54C43.4604 18.12 43.8004 17.77 44.2304 17.77H50.3704C50.7904 17.77 51.1404 18.11 51.1404 18.54C51.1404 18.97 50.8004 19.31 50.3704 19.31H44.2304C43.8104 19.31 43.4604 18.97 43.4604 18.54ZM56.9204 18.54C56.9204 18.96 56.5804 19.31 56.1504 19.31H53.2904C52.8704 19.31 52.5204 18.97 52.5204 18.54C52.5204 18.11 52.8604 17.77 53.2904 17.77H56.1504C56.5704 17.77 56.9204 18.11 56.9204 18.54ZM56.9204 22.65C56.9204 23.07 56.5804 23.42 56.1504 23.42H50.0104C49.5904 23.42 49.2404 23.08 49.2404 22.65C49.2404 22.22 49.5804 21.88 50.0104 21.88H56.1504C56.5704 21.88 56.9204 22.22 56.9204 22.65ZM43.4604 22.65C43.4604 22.23 43.8004 21.88 44.2304 21.88H47.0904C47.5104 21.88 47.8604 22.22 47.8604 22.65C47.8604 23.08 47.5204 23.42 47.0904 23.42H44.2304C43.8104 23.42 43.4604 23.08 43.4604 22.65ZM43.4604 5.16997C43.4604 4.74997 43.8004 4.39997 44.2304 4.39997H50.3704C50.7904 4.39997 51.1404 4.73997 51.1404 5.16997C51.1404 5.59997 50.8004 5.93997 50.3704 5.93997H44.2304C43.8104 5.93997 43.4604 5.59997 43.4604 5.16997ZM20.7004 35.11C20.5904 34.7 20.8304 34.28 21.2404 34.17C22.1304 33.93 22.9204 33.65 23.5904 33.35C23.9804 33.17 24.4304 33.35 24.6104 33.73C24.7904 34.12 24.6104 34.57 24.2304 34.75C23.4904 35.09 22.6204 35.39 21.6504 35.65C21.5804 35.67 21.5204 35.68 21.4504 35.68C21.1104 35.68 20.8004 35.45 20.7104 35.11H20.7004ZM8.21039 35.32C8.28039 34.9 8.67039 34.61 9.09039 34.68C11.8004 35.1 14.8304 35.16 17.6404 34.84C18.0604 34.79 18.4404 35.09 18.4904 35.52C18.5404 35.94 18.2404 36.32 17.8104 36.37C16.5504 36.52 15.2404 36.59 13.9404 36.59C12.2004 36.59 10.4704 36.46 8.85039 36.21C8.43039 36.14 8.14039 35.75 8.21039 35.33V35.32ZM18.4904 28.81C18.5404 29.23 18.2404 29.61 17.8104 29.66C16.5504 29.81 15.2404 29.88 13.9404 29.88C12.2004 29.88 10.4704 29.75 8.85039 29.5C8.43039 29.43 8.14039 29.04 8.21039 28.62C8.28039 28.2 8.67039 27.91 9.09039 27.98C11.8004 28.4 14.8304 28.46 17.6404 28.14C18.0604 28.09 18.4404 28.39 18.4904 28.82V28.81ZM21.2504 27.47C22.1404 27.23 22.9304 26.95 23.6004 26.65C23.9904 26.47 24.4404 26.65 24.6204 27.03C24.8004 27.42 24.6204 27.87 24.2404 28.05C23.5004 28.39 22.6304 28.69 21.6604 28.95C21.5904 28.97 21.5304 28.98 21.4604 28.98C21.1204 28.98 20.8104 28.75 20.7204 28.41C20.6104 28 20.8504 27.58 21.2604 27.47H21.2504ZM20.7004 41.82C20.5904 41.41 20.8304 40.99 21.2404 40.88C22.1304 40.64 22.9204 40.36 23.5904 40.06C23.9804 39.88 24.4304 40.06 24.6104 40.44C24.7904 40.82 24.6104 41.28 24.2304 41.46C23.4904 41.8 22.6204 42.1 21.6504 42.36C21.5804 42.38 21.5204 42.39 21.4504 42.39C21.1104 42.39 20.8004 42.16 20.7104 41.82H20.7004ZM13.9404 43.29C12.2004 43.29 10.4704 43.16 8.85039 42.91C8.43039 42.84 8.14039 42.45 8.21039 42.03C8.28039 41.61 8.67039 41.32 9.09039 41.39C11.8004 41.81 14.8304 41.87 17.6404 41.55C18.0604 41.5 18.4404 41.8 18.4904 42.23C18.5404 42.65 18.2404 43.03 17.8104 43.08C16.5504 43.23 15.2404 43.3 13.9404 43.3V43.29Z" fill="#141414" stroke="#141414" stroke-width="0.3" stroke-miterlimit="10"/>
</g>
<defs>
<clipPath id="clip0_294_2100">
<rect width="63.4" height="58.3" fill="white"/>
</clipPath>
</defs>
</svg>
