<svg width="70" height="70" viewBox="0 0 70 70" fill="none" xmlns="http://www.w3.org/2000/svg">
<g clip-path="url(#clip0_529_2052)">
<path fill-rule="evenodd" clip-rule="evenodd" d="M35 70C15.7 70 0 54.3 0 35C0 15.7 15.7 0 35 0C54.3 0 70 15.7 70 35C70 54.3 54.3 70 35 70ZM53.15 47.3C53.58 47.3 53.93 46.95 53.93 46.52V24.55L36.12 38.69C35.79 38.95 35.39 39.08 34.99 39.08C34.59 39.08 34.19 38.95 33.86 38.69L16.05 24.55V46.52C16.05 46.95 16.4 47.3 16.83 47.3H53.13H53.15ZM50.42 22.7L35 34.95L19.58 22.7H50.42ZM57.55 23.49V46.52C57.55 48.95 55.57 50.92 53.15 50.92H16.85C14.42 50.92 12.45 48.94 12.45 46.52V23.49C12.45 21.06 14.43 19.09 16.85 19.09H53.15C55.58 19.09 57.55 21.07 57.55 23.49Z" fill="black"/>
</g>
<defs>
<clipPath id="clip0_529_2052">
<rect width="70" height="70" fill="white"/>
</clipPath>
</defs>
</svg>
