<svg width="66" height="60" viewBox="0 0 66 60" fill="none" xmlns="http://www.w3.org/2000/svg">
<g clip-path="url(#clip0_294_1883)">
<path d="M60.35 58.86H5.81004C3.37004 58.86 1.20004 56.69 0.790039 53.57C0.790039 53.43 0.790039 53.16 0.930039 53.03C1.07004 52.9 1.20004 52.76 1.47004 52.76H64.55C64.69 52.76 64.96 52.9 65.09 53.03C65.22 53.16 65.23 53.44 65.23 53.57C64.96 56.69 62.79 58.86 60.35 58.86ZM2.29004 54.24C2.83004 56.14 4.19004 57.5 5.82004 57.5H60.22C61.85 57.5 63.2 56.14 63.75 54.24H2.29004Z" fill="#141414"/>
<path d="M60.35 59.11H5.81004C3.17004 59.11 0.960039 56.79 0.540039 53.6C0.540039 53.4 0.540039 53.06 0.750039 52.85C0.900039 52.7 1.09004 52.51 1.47004 52.51H64.55C64.77 52.51 65.1 52.69 65.27 52.85C65.48 53.06 65.48 53.4 65.48 53.57C65.21 56.74 63 59.11 60.35 59.11ZM64.55 53H1.47004C1.31004 53 1.24004 53.06 1.10004 53.2C1.06004 53.24 1.04004 53.36 1.04004 53.57C1.42004 56.48 3.43004 58.61 5.81004 58.61H60.35C62.74 58.61 64.73 56.43 64.98 53.55C64.98 53.37 64.96 53.25 64.92 53.21C64.82 53.11 64.61 53.02 64.55 53.01V53ZM60.21 57.75H5.81004C4.12004 57.75 2.64004 56.4 2.04004 54.31L1.95004 53.99H64.07L63.98 54.31C63.38 56.4 61.91 57.75 60.21 57.75ZM2.63004 54.49C3.21004 56.18 4.44004 57.25 5.82004 57.25H60.22C61.6 57.25 62.82 56.18 63.41 54.49H2.63004Z" fill="#141414"/>
<path d="M15.3104 54.24H7.58039C7.17039 54.24 6.90039 53.97 6.90039 53.56V21.68C6.90039 19.78 8.39039 18.29 10.2904 18.29H15.1704C15.5804 18.29 15.8504 18.56 15.8504 18.97V53.43C15.9904 53.97 15.5804 54.24 15.3104 54.24ZM8.25039 52.89H14.4904V19.79H10.2804C9.19039 19.79 8.25039 20.74 8.25039 21.82V52.89Z" fill="#141414"/>
<path d="M15.3104 54.49H7.58039C7.03039 54.49 6.65039 54.11 6.65039 53.56V21.68C6.65039 19.64 8.25039 18.04 10.2904 18.04H15.1704C15.7204 18.04 16.1004 18.42 16.1004 18.97V53.43C16.1704 53.67 16.1204 53.95 15.9504 54.17C15.7904 54.37 15.5504 54.5 15.3104 54.5V54.49ZM10.2904 18.54C8.53039 18.54 7.15039 19.92 7.15039 21.68V53.56C7.15039 53.83 7.31039 53.99 7.58039 53.99H15.3104C15.3804 53.99 15.4904 53.94 15.5604 53.86C15.6304 53.77 15.6504 53.64 15.6104 53.49V18.97C15.6104 18.7 15.4404 18.54 15.1704 18.54H10.2904ZM14.7504 53.14H8.01039V21.82C8.01039 20.6 9.08039 19.54 10.2904 19.54H14.7504V53.14ZM8.50039 52.64H14.2404V20.04H10.2804C9.33039 20.04 8.50039 20.87 8.50039 21.82V52.64Z" fill="#141414"/>
<path d="M58.4495 54.24C58.0395 54.24 57.7695 53.97 57.7695 53.56V27.3799C57.7695 26.9699 58.0395 26.7 58.4495 26.7C58.8595 26.7 59.1295 26.9699 59.1295 27.3799V53.56C59.1295 53.97 58.8595 54.24 58.4495 54.24Z" fill="#141414"/>
<path d="M58.4495 54.49C57.8995 54.49 57.5195 54.11 57.5195 53.56V27.3799C57.5195 26.8299 57.8995 26.45 58.4495 26.45C58.9995 26.45 59.3795 26.8299 59.3795 27.3799V53.56C59.3795 54.11 58.9995 54.49 58.4495 54.49ZM58.4495 26.95C58.1795 26.95 58.0195 27.1099 58.0195 27.3799V53.56C58.0195 53.83 58.1795 53.99 58.4495 53.99C58.7195 53.99 58.8795 53.83 58.8795 53.56V27.3799C58.8795 27.1099 58.7195 26.95 58.4495 26.95Z" fill="#141414"/>
<path d="M57.2299 20.06C57.0899 20.06 56.9599 20.06 56.8199 19.92C56.5499 19.78 56.1399 19.65 55.7299 19.65H50.8499C50.4399 19.65 50.1699 19.38 50.1699 18.97C50.1699 18.56 50.4399 18.29 50.8499 18.29H55.8699C56.4099 18.29 57.0899 18.43 57.6299 18.83C57.8999 18.97 58.0399 19.37 57.8999 19.78C57.6299 20.05 57.4899 20.05 57.2199 20.05L57.2299 20.06Z" fill="#141414"/>
<path d="M57.2297 20.31C57.0897 20.31 56.8797 20.31 56.6797 20.13C56.3797 19.99 56.0297 19.9 55.7397 19.9H50.8597C50.3097 19.9 49.9297 19.52 49.9297 18.97C49.9297 18.42 50.3097 18.04 50.8597 18.04H55.8797C56.2997 18.04 57.1097 18.12 57.7897 18.63C58.1497 18.81 58.3197 19.34 58.1497 19.86L58.0897 19.96C57.7597 20.29 57.5597 20.3 57.2297 20.3V20.31ZM50.8497 18.54C50.5797 18.54 50.4197 18.7 50.4197 18.97C50.4197 19.24 50.5797 19.4 50.8497 19.4H55.7297C56.2697 19.4 56.7497 19.61 56.9297 19.7L56.9997 19.75C57.0597 19.81 57.0997 19.81 57.2297 19.81C57.4597 19.81 57.5197 19.81 57.6897 19.66C57.7597 19.39 57.6697 19.14 57.5297 19.07C57.0697 18.73 56.4897 18.55 55.8797 18.55H50.8597L50.8497 18.54Z" fill="#141414"/>
<path d="M48.9505 56.5499H48.4105C48.0005 56.5499 47.7305 56.2799 47.7305 55.8699C47.7305 55.4599 48.0005 55.1899 48.4105 55.1899H48.9505C49.3605 55.1899 49.6305 55.4599 49.6305 55.8699C49.6305 56.2799 49.3605 56.5499 48.9505 56.5499Z" fill="#141414"/>
<path d="M48.9505 56.7999H48.4105C47.8605 56.7999 47.4805 56.4199 47.4805 55.8699C47.4805 55.3199 47.8605 54.9399 48.4105 54.9399H48.9505C49.5005 54.9399 49.8805 55.3199 49.8805 55.8699C49.8805 56.4199 49.5005 56.7999 48.9505 56.7999ZM48.4105 55.4399C48.1405 55.4399 47.9805 55.5999 47.9805 55.8699C47.9805 56.1399 48.1405 56.2999 48.4105 56.2999H48.9505C49.2205 56.2999 49.3805 56.1399 49.3805 55.8699C49.3805 55.5999 49.2205 55.4399 48.9505 55.4399H48.4105Z" fill="#141414"/>
<path d="M55.1897 56.5499H54.6497C54.2397 56.5499 53.9697 56.2799 53.9697 55.8699C53.9697 55.4599 54.2397 55.1899 54.6497 55.1899H55.1897C55.5997 55.1899 55.8697 55.4599 55.8697 55.8699C55.8697 56.2799 55.5997 56.5499 55.1897 56.5499Z" fill="#141414"/>
<path d="M55.1897 56.7999H54.6497C54.0997 56.7999 53.7197 56.4199 53.7197 55.8699C53.7197 55.3199 54.0997 54.9399 54.6497 54.9399H55.1897C55.7397 54.9399 56.1197 55.3199 56.1197 55.8699C56.1197 56.4199 55.7397 56.7999 55.1897 56.7999ZM54.6497 55.4399C54.3797 55.4399 54.2197 55.5999 54.2197 55.8699C54.2197 56.1399 54.3797 56.2999 54.6497 56.2999H55.1897C55.4597 56.2999 55.6197 56.1399 55.6197 55.8699C55.6197 55.5999 55.4597 55.4399 55.1897 55.4399H54.6497Z" fill="#141414"/>
<path d="M52.2102 56.5499H51.6702C51.2602 56.5499 50.9902 56.2799 50.9902 55.8699C50.9902 55.4599 51.2602 55.1899 51.6702 55.1899H52.2102C52.6202 55.1899 52.8902 55.4599 52.8902 55.8699C52.8902 56.2799 52.4802 56.5499 52.2102 56.5499Z" fill="#141414"/>
<path d="M52.2102 56.7999H51.6702C51.1202 56.7999 50.7402 56.4199 50.7402 55.8699C50.7402 55.3199 51.1202 54.9399 51.6702 54.9399H52.2102C52.7602 54.9399 53.1402 55.3199 53.1402 55.8699C53.1402 56.4199 52.5902 56.7999 52.2102 56.7999ZM51.6702 55.4399C51.4002 55.4399 51.2402 55.5999 51.2402 55.8699C51.2402 56.1399 51.4002 56.2999 51.6702 56.2999H52.2102C52.3602 56.2999 52.6402 56.1199 52.6402 55.8699C52.6402 55.5999 52.4802 55.4399 52.2102 55.4399H51.6702Z" fill="#141414"/>
<path d="M50.8496 54.24H15.3096C14.8996 54.24 14.6296 53.97 14.6296 53.56V4.46C14.6296 2.83 13.2696 1.61 11.7796 1.61C11.3696 1.61 11.0996 1.34 11.0996 0.93C11.0996 0.52 11.3696 0.25 11.7796 0.25H47.4596C49.7696 0.25 51.6696 2.15 51.6696 4.59V34.3C51.6696 34.71 51.3996 34.98 50.9896 34.98C50.5796 34.98 50.3096 34.71 50.3096 34.3V4.46C50.3096 2.83 48.9496 1.48 47.4596 1.48H14.7696C15.4496 2.29 15.8596 3.24 15.8596 4.33V52.76H50.1796V45.16C50.1796 44.75 50.4496 44.48 50.8596 44.48C51.2696 44.48 51.5396 44.75 51.5396 45.16V53.44C51.5396 53.98 51.2696 54.25 50.8596 54.25L50.8496 54.24Z" fill="#141414"/>
<path d="M50.8496 54.49H15.3096C14.7596 54.49 14.3796 54.11 14.3796 53.56V4.46C14.3796 3.03 13.2096 1.86 11.7796 1.86C11.2296 1.86 10.8496 1.48 10.8496 0.93C10.8496 0.38 11.2296 0 11.7796 0H47.4596C49.9196 0 51.9196 2.06 51.9196 4.59V34.3C51.9196 34.85 51.5396 35.23 50.9896 35.23C50.4396 35.23 50.0596 34.85 50.0596 34.3V4.46C50.0596 3 48.8496 1.73 47.4596 1.73H15.2696C15.8196 2.53 16.0996 3.4 16.0996 4.33V52.51H49.9196V45.16C49.9196 44.61 50.2996 44.23 50.8496 44.23C51.3996 44.23 51.7796 44.61 51.7796 45.16V53.44C51.7796 54.1 51.4196 54.5 50.8496 54.5V54.49ZM11.7796 0.5C11.5096 0.5 11.3496 0.66 11.3496 0.93C11.3496 1.2 11.5096 1.36 11.7796 1.36C13.4896 1.36 14.8796 2.75 14.8796 4.46V53.57C14.8796 53.84 15.0396 54 15.3096 54H50.8496C50.9596 54 51.2796 54 51.2796 53.44V45.16C51.2796 44.89 51.1196 44.73 50.8496 44.73C50.5796 44.73 50.4196 44.89 50.4196 45.16V53.01H15.5996V4.32C15.5996 3.35 15.2496 2.45 14.5696 1.63L14.2296 1.22H47.4596C49.1096 1.22 50.5596 2.73 50.5596 4.45V34.3C50.5596 34.57 50.7196 34.73 50.9896 34.73C51.2596 34.73 51.4196 34.57 51.4196 34.3V4.59C51.4196 2.33 49.6496 0.5 47.4596 0.5H11.7796Z" fill="#141414"/>
<path d="M15.3103 15.31H4.46027C4.05027 15.31 3.78027 15.04 3.78027 14.63C3.78027 14.22 4.05027 13.95 4.46027 13.95C6.09027 13.95 7.31027 12.59 7.31027 11.1V4.45C7.30027 2.15 9.20027 0.25 11.5103 0.25C13.8203 0.25 15.7203 2.15 15.7203 4.46V14.63C15.9903 15.04 15.5803 15.31 15.3103 15.31ZM7.58027 13.95H14.5003V4.46C14.5003 2.83 13.1403 1.61 11.6503 1.61C10.0203 1.61 8.80027 2.97 8.80027 4.46V11.11C8.80027 12.2 8.39027 13.14 7.58027 13.96V13.95Z" fill="#141414"/>
<path d="M15.3103 15.56H4.46027C3.91027 15.56 3.53027 15.18 3.53027 14.63C3.53027 14.08 3.91027 13.7 4.46027 13.7C5.89027 13.7 7.06027 12.53 7.06027 11.1V4.44999C7.06027 1.98999 9.06027 -0.0100098 11.5203 -0.0100098C13.9803 -0.0100098 15.9803 1.98999 15.9803 4.44999V14.56C16.1303 14.83 16.0603 15.06 16.0003 15.17C15.8603 15.44 15.5503 15.56 15.3203 15.56H15.3103ZM11.5103 0.49999C9.33027 0.49999 7.55027 2.26999 7.55027 4.45999V11.11C7.55027 12.82 6.16027 14.21 4.45027 14.21C4.18027 14.21 4.02027 14.37 4.02027 14.64C4.02027 14.91 4.18027 15.07 4.45027 15.07H15.3003C15.3803 15.07 15.5003 15.02 15.5403 14.95C15.5403 14.93 15.5703 14.89 15.5003 14.79L15.4603 14.73V4.45999C15.4603 2.27999 13.6903 0.49999 11.5003 0.49999H11.5103ZM14.7503 14.2H6.98027L7.41027 13.77C8.18027 13 8.56027 12.12 8.56027 11.1V4.44999C8.56027 2.73999 9.95027 1.34999 11.6603 1.34999C13.3703 1.34999 14.7603 2.73999 14.7603 4.44999V14.2H14.7503ZM8.13027 13.7H14.2403V4.45999C14.2403 3.02999 13.0703 1.85999 11.6403 1.85999C10.2103 1.85999 9.04027 3.02999 9.04027 4.45999V11.11C9.04027 12.07 8.73027 12.95 8.13027 13.71V13.7Z" fill="#141414"/>
<path d="M4.46 15.3099C2.15 15.3099 0.25 13.4099 0.25 11.0999V6.61994C0.25 6.20994 0.52 5.93994 0.93 5.93994H8.12C8.53 5.93994 8.8 6.20994 8.8 6.61994V10.9599C8.8 13.3999 6.9 15.2999 4.46 15.2999V15.3099ZM1.61 7.29994V10.9599C1.61 12.5899 2.97 13.8099 4.46 13.8099C5.95 13.8099 7.31 12.4499 7.31 10.9599V7.29994H1.61Z" fill="#141414"/>
<path d="M4.46 15.5599C2 15.5599 0 13.5599 0 11.0999V6.61994C0 6.06994 0.38 5.68994 0.93 5.68994H8.12C8.67 5.68994 9.05 6.06994 9.05 6.61994V10.9599C9.05 13.5299 7.03 15.5499 4.46 15.5499V15.5599ZM0.93 6.19994C0.66 6.19994 0.5 6.35994 0.5 6.62994V11.1099C0.5 13.2899 2.27 15.0699 4.46 15.0699C6.75 15.0699 8.55 13.2699 8.55 10.9799V6.63994C8.55 6.36994 8.39 6.20994 8.12 6.20994H0.93V6.19994ZM4.46 14.0699C2.75 14.0699 1.36 12.6799 1.36 10.9699V7.05994H7.56V10.9699C7.56 12.5899 6.08 14.0699 4.46 14.0699ZM1.86 7.54994V10.9599C1.86 12.3899 3.03 13.5599 4.46 13.5599C5.89 13.5599 7.06 12.3199 7.06 10.9599V7.54994H1.86Z" fill="#141414"/>
<path d="M30.6398 17.7501H19.5198C19.1098 17.7501 18.8398 17.4801 18.8398 17.0701V5.54011C18.8398 5.13011 19.1098 4.86011 19.5198 4.86011H30.6398C31.0498 4.86011 31.3198 5.13011 31.3198 5.54011V17.2101C31.3198 17.4801 30.9098 17.7501 30.6398 17.7501ZM20.1898 16.3901H29.9598V6.22011H20.1898V16.3901Z" fill="#141414"/>
<path d="M30.6398 18.0001H19.5198C18.9698 18.0001 18.5898 17.6201 18.5898 17.0701V5.54011C18.5898 4.99011 18.9698 4.61011 19.5198 4.61011H30.6398C31.1898 4.61011 31.5698 4.99011 31.5698 5.54011V17.2101C31.5698 17.6601 31.0098 18.0001 30.6398 18.0001ZM19.5098 5.11011C19.2398 5.11011 19.0798 5.27011 19.0798 5.54011V17.0701C19.0798 17.3401 19.2398 17.5001 19.5098 17.5001H30.6298C30.8098 17.5001 31.0598 17.3001 31.0598 17.2101V5.54011C31.0598 5.27011 30.8998 5.11011 30.6298 5.11011H19.5098ZM30.2098 16.6401H19.9398V5.97011H30.2098V16.6401ZM20.4398 16.1401H29.7098V6.47011H20.4398V16.1401Z" fill="#141414"/>
<path d="M46.6504 6.34999H34.5804C34.1704 6.34999 33.9004 6.07999 33.9004 5.66999C33.9004 5.25999 34.1704 4.98999 34.5804 4.98999H46.6504C47.0604 4.98999 47.3304 5.25999 47.3304 5.66999C47.3304 6.07999 47.0604 6.34999 46.6504 6.34999Z" fill="#141414"/>
<path d="M46.6504 6.59999H34.5804C34.0304 6.59999 33.6504 6.21999 33.6504 5.66999C33.6504 5.11999 34.0304 4.73999 34.5804 4.73999H46.6504C47.2004 4.73999 47.5804 5.11999 47.5804 5.66999C47.5804 6.21999 47.2004 6.59999 46.6504 6.59999ZM34.5704 5.24999C34.3004 5.24999 34.1404 5.40999 34.1404 5.67999C34.1404 5.94999 34.3004 6.10999 34.5704 6.10999H46.6404C46.9104 6.10999 47.0704 5.94999 47.0704 5.67999C47.0704 5.40999 46.9104 5.24999 46.6404 5.24999H34.5704Z" fill="#141414"/>
<path d="M46.6504 10.15H34.5804C34.1704 10.15 33.9004 9.88004 33.9004 9.47004C33.9004 9.06004 34.1704 8.79004 34.5804 8.79004H46.6504C47.0604 8.79004 47.3304 9.06004 47.3304 9.47004C47.3304 9.88004 47.0604 10.15 46.6504 10.15Z" fill="#141414"/>
<path d="M46.6504 10.4H34.5804C34.0304 10.4 33.6504 10.02 33.6504 9.47004C33.6504 8.92004 34.0304 8.54004 34.5804 8.54004H46.6504C47.2004 8.54004 47.5804 8.92004 47.5804 9.47004C47.5804 10.02 47.2004 10.4 46.6504 10.4ZM34.5704 9.05004C34.3004 9.05004 34.1404 9.21004 34.1404 9.48004C34.1404 9.75004 34.3004 9.91004 34.5704 9.91004H46.6404C46.9104 9.91004 47.0704 9.75004 47.0704 9.48004C47.0704 9.21004 46.9104 9.05004 46.6404 9.05004H34.5704Z" fill="#141414"/>
<path d="M46.6504 13.9501H34.5804C34.1704 13.9501 33.9004 13.6801 33.9004 13.2701C33.9004 12.8601 34.1704 12.5901 34.5804 12.5901H46.6504C47.0604 12.5901 47.3304 12.8601 47.3304 13.2701C47.3304 13.6801 47.0604 13.9501 46.6504 13.9501Z" fill="#141414"/>
<path d="M46.6504 14.2001H34.5804C34.0304 14.2001 33.6504 13.8201 33.6504 13.2701C33.6504 12.7201 34.0304 12.3401 34.5804 12.3401H46.6504C47.2004 12.3401 47.5804 12.7201 47.5804 13.2701C47.5804 13.8201 47.2004 14.2001 46.6504 14.2001ZM34.5704 12.8501C34.3004 12.8501 34.1404 13.0101 34.1404 13.2801C34.1404 13.5501 34.3004 13.7101 34.5704 13.7101H46.6404C46.9104 13.7101 47.0704 13.5501 47.0704 13.2801C47.0704 13.0101 46.9104 12.8501 46.6404 12.8501H34.5704Z" fill="#141414"/>
<path d="M46.6504 17.7499H34.5804C34.1704 17.7499 33.9004 17.4799 33.9004 17.0699C33.9004 16.6599 34.1704 16.3899 34.5804 16.3899H46.6504C47.0604 16.3899 47.3304 16.6599 47.3304 17.0699C47.3304 17.4799 47.0604 17.7499 46.6504 17.7499Z" fill="#141414"/>
<path d="M46.6504 17.9999H34.5804C34.0304 17.9999 33.6504 17.6199 33.6504 17.0699C33.6504 16.5199 34.0304 16.1399 34.5804 16.1399H46.6504C47.2004 16.1399 47.5804 16.5199 47.5804 17.0699C47.5804 17.6199 47.2004 17.9999 46.6504 17.9999ZM34.5704 16.6399C34.3004 16.6399 34.1404 16.7999 34.1404 17.0699C34.1404 17.3399 34.3004 17.4999 34.5704 17.4999H46.6404C46.9104 17.4999 47.0704 17.3399 47.0704 17.0699C47.0704 16.7999 46.9104 16.6399 46.6404 16.6399H34.5704Z" fill="#141414"/>
<path d="M46.6499 21.6801H32.8099C32.3999 21.6801 32.1299 21.4101 32.1299 21.0001C32.1299 20.5901 32.3999 20.3201 32.8099 20.3201H46.6499C47.0599 20.3201 47.3299 20.5901 47.3299 21.0001C47.3299 21.4101 47.0599 21.6801 46.6499 21.6801Z" fill="#141414"/>
<path d="M46.6499 21.9401H32.8099C32.2599 21.9401 31.8799 21.5601 31.8799 21.0101C31.8799 20.4601 32.2599 20.0801 32.8099 20.0801H46.6499C47.1999 20.0801 47.5799 20.4601 47.5799 21.0101C47.5799 21.5601 47.1999 21.9401 46.6499 21.9401ZM32.8099 20.5801C32.5399 20.5801 32.3799 20.7401 32.3799 21.0101C32.3799 21.2801 32.5399 21.4401 32.8099 21.4401H46.6499C46.9199 21.4401 47.0799 21.2801 47.0799 21.0101C47.0799 20.7401 46.9199 20.5801 46.6499 20.5801H32.8099Z" fill="#141414"/>
<path d="M46.6499 25.4801H32.8099C32.3999 25.4801 32.1299 25.2101 32.1299 24.8001C32.1299 24.3901 32.5399 24.1201 32.8099 24.1201H46.6499C47.0599 24.1201 47.3299 24.3901 47.3299 24.8001C47.3299 25.2101 47.0599 25.4801 46.6499 25.4801Z" fill="#141414"/>
<path d="M46.6499 25.7301H32.8099C32.2599 25.7301 31.8799 25.3501 31.8799 24.8001C31.8799 24.2501 32.4299 23.8701 32.8099 23.8701H46.6499C47.1999 23.8701 47.5799 24.2501 47.5799 24.8001C47.5799 25.3501 47.1999 25.7301 46.6499 25.7301ZM32.8099 24.3801C32.6599 24.3801 32.3799 24.5601 32.3799 24.8101C32.3799 25.0801 32.5399 25.2401 32.8099 25.2401H46.6499C46.9199 25.2401 47.0799 25.0801 47.0799 24.8101C47.0799 24.5401 46.9199 24.3801 46.6499 24.3801H32.8099Z" fill="#141414"/>
<path d="M32.8102 21.6801H19.3802C18.9702 21.6801 18.7002 21.4101 18.7002 21.0001C18.7002 20.5901 18.9702 20.3201 19.3802 20.3201H32.8102C33.2202 20.3201 33.4902 20.5901 33.4902 21.0001C33.4902 21.4101 33.2202 21.6801 32.8102 21.6801Z" fill="#141414"/>
<path d="M32.8102 21.9401H19.3802C18.8302 21.9401 18.4502 21.5601 18.4502 21.0101C18.4502 20.4601 18.8302 20.0801 19.3802 20.0801H32.8102C33.3602 20.0801 33.7402 20.4601 33.7402 21.0101C33.7402 21.5601 33.3602 21.9401 32.8102 21.9401ZM19.3802 20.5801C19.1102 20.5801 18.9502 20.7401 18.9502 21.0101C18.9502 21.2801 19.1102 21.4401 19.3802 21.4401H32.8102C33.0802 21.4401 33.2402 21.2801 33.2402 21.0101C33.2402 20.7401 33.0802 20.5801 32.8102 20.5801H19.3802Z" fill="#141414"/>
<path d="M32.8102 25.4801H19.3802C18.9702 25.4801 18.7002 25.2101 18.7002 24.8001C18.7002 24.3901 18.9702 24.1201 19.3802 24.1201H32.8102C33.2202 24.1201 33.4902 24.3901 33.4902 24.8001C33.4902 25.2101 33.2202 25.4801 32.8102 25.4801Z" fill="#141414"/>
<path d="M32.8102 25.7301H19.3802C18.8302 25.7301 18.4502 25.3501 18.4502 24.8001C18.4502 24.2501 18.8302 23.8701 19.3802 23.8701H32.8102C33.3602 23.8701 33.7402 24.2501 33.7402 24.8001C33.7402 25.3501 33.3602 25.7301 32.8102 25.7301ZM19.3802 24.3801C19.1102 24.3801 18.9502 24.5401 18.9502 24.8101C18.9502 25.0801 19.1102 25.2401 19.3802 25.2401H32.8102C33.0802 25.2401 33.2402 25.0801 33.2402 24.8101C33.2402 24.5401 33.0802 24.3801 32.8102 24.3801H19.3802Z" fill="#141414"/>
<path d="M47.6001 48.1399C47.3301 48.1399 47.0601 47.9999 46.9201 47.7299L45.8301 44.8799V44.3399L59.1201 13.4099C59.6601 12.0499 61.4301 11.3799 62.7801 11.9199C63.4601 12.1899 64.0001 12.7299 64.2701 13.4099C64.5401 14.0899 64.5401 14.8999 64.2701 15.5799L50.9801 46.5099L50.5701 46.9199L47.7201 48.1399H47.5801H47.6001ZM47.1901 44.7499L48.0001 46.6499L49.9001 45.8399L63.0601 15.1799C63.2001 14.7699 63.2001 14.3699 63.0601 14.0899C62.9201 13.6799 62.6501 13.4099 62.2501 13.2799C61.5701 13.0099 60.6201 13.2799 60.3501 14.0899L47.1901 44.7499Z" fill="#141414"/>
<path d="M47.7801 48.39H47.5901C47.2001 48.39 46.8601 48.18 46.6901 47.84L45.5801 44.88L45.6001 44.24L58.8901 13.31C59.4701 11.86 61.3701 11.08 62.8801 11.68C63.6201 11.98 64.2101 12.57 64.5101 13.31C64.8001 14.05 64.8001 14.93 64.5101 15.67L51.1601 46.69L50.6701 47.15L47.7701 48.39H47.7801ZM46.0801 44.84L47.1501 47.65C47.2201 47.8 47.3901 47.9 47.5901 47.9H47.6701L50.4301 46.72L50.7701 46.38L64.0501 15.49C64.3001 14.87 64.3001 14.13 64.0501 13.51C63.8001 12.9 63.3101 12.4 62.7001 12.16C61.4401 11.66 59.8501 12.3 59.3601 13.51L46.0801 44.4V44.85V44.84ZM47.8701 46.98L46.9101 44.75L46.9501 44.65L60.1101 13.99C60.2401 13.6 60.5301 13.27 60.9301 13.09C61.3701 12.89 61.8901 12.87 62.3301 13.04C62.8001 13.2 63.1301 13.52 63.2901 14.01C63.4401 14.31 63.4501 14.78 63.2901 15.25L50.0801 46.02L47.8601 46.97L47.8701 46.98ZM47.4601 44.75L48.1301 46.32L49.7101 45.64L62.8301 15.07C62.9401 14.75 62.9401 14.41 62.8301 14.2C62.7101 13.84 62.4901 13.62 62.1601 13.51C61.8401 13.38 61.4601 13.4 61.1501 13.54C60.9601 13.63 60.7001 13.81 60.5801 14.17L47.4601 44.75Z" fill="#141414"/>
<path d="M46.6503 50.3101H46.3803C45.9703 50.1701 45.8403 49.7701 45.9703 49.3601L46.9203 47.1901C47.0603 46.7801 47.4603 46.6501 47.8703 46.7801C48.2803 46.9101 48.4103 47.3201 48.2803 47.7301L47.1903 49.9001C47.1903 50.1701 46.9203 50.3101 46.6503 50.3101Z" fill="#141414"/>
<path d="M46.6504 50.5601H46.3003C46.0403 50.4601 45.8404 50.2801 45.7404 50.0301C45.6504 49.8101 45.6504 49.5401 45.7404 49.2801L46.7004 47.0901C46.7704 46.8701 46.9303 46.6901 47.1403 46.5801C47.3803 46.4601 47.6703 46.4501 47.9603 46.5401C48.2203 46.6301 48.4204 46.8101 48.5204 47.0601C48.6104 47.2801 48.6104 47.5501 48.5204 47.8101L47.4403 49.9701C47.4003 50.3201 47.0804 50.5601 46.6504 50.5601ZM46.4203 50.0601H46.6504C46.7604 50.0601 46.9403 50.0201 46.9403 49.9001L46.9704 49.7901L48.0604 47.6201C48.1004 47.5101 48.1004 47.3601 48.0604 47.2501C48.0204 47.1401 47.9304 47.0601 47.8104 47.0201C47.6504 46.9701 47.4903 46.9701 47.3703 47.0201C47.2803 47.0701 47.2103 47.1501 47.1703 47.2601L46.2103 49.4501C46.1703 49.5801 46.1703 49.7201 46.2103 49.8301C46.2503 49.9301 46.3204 50.0001 46.4304 50.0501L46.4203 50.0601Z" fill="#141414"/>
<path d="M61.5695 33.6201H61.2995C60.7595 33.3501 60.2095 32.9401 59.9395 32.2601C59.6695 31.5801 59.6695 31.0401 59.9395 30.3601L63.7395 21.4101C63.8795 21.0001 63.8795 20.6001 63.7395 20.0501C63.5995 19.6401 63.1995 19.3701 62.7895 19.1001L58.0395 17.0701C57.6295 16.9301 57.4995 16.5301 57.6295 16.1201C57.7595 15.7101 58.1695 15.5801 58.5795 15.7101L63.3295 17.7401C64.1395 18.0101 64.6895 18.6901 64.9595 19.3701C65.2295 20.1801 65.2295 21.0001 64.9595 21.6801L61.2995 30.9101C61.1595 31.1801 61.1595 31.4501 61.2995 31.7201C61.4395 31.9901 61.5695 32.2601 61.8395 32.2601C62.2495 32.4001 62.3795 32.8001 62.2495 33.2101C62.1095 33.4801 61.8395 33.6201 61.5695 33.6201Z" fill="#141414"/>
<path d="M61.5695 33.8701L61.1895 33.8401C60.4495 33.4701 59.9695 32.9801 59.7095 32.3501C59.4095 31.6101 59.4095 31.0101 59.7095 30.2701L63.5095 21.3101C63.6195 20.9701 63.6195 20.6101 63.4995 20.1101C63.3995 19.8001 63.0395 19.5601 62.6495 19.3101L57.9395 17.3001C57.6995 17.2201 57.4995 17.0401 57.3995 16.7901C57.3095 16.5701 57.3095 16.3001 57.3995 16.0401C57.5695 15.5301 58.1095 15.2901 58.6695 15.4801L63.4395 17.5201C64.2095 17.7801 64.8595 18.4201 65.1995 19.2901C65.4895 20.1701 65.4895 21.0501 65.1995 21.7801L61.5395 31.0001C61.4295 31.2201 61.4295 31.4101 61.5395 31.6101C61.6595 31.8501 61.7495 32.0101 61.8595 32.0101H61.9395C62.4495 32.1901 62.6895 32.7301 62.4995 33.2901C62.3195 33.6601 61.9695 33.8701 61.5795 33.8701H61.5695ZM61.3595 33.3701H61.5695C61.7695 33.3701 61.9395 33.2701 62.0195 33.1001C62.0795 32.9101 62.0595 32.6201 61.7895 32.5101C61.3995 32.4801 61.2195 32.1201 61.0695 31.8301C60.8995 31.4901 60.8995 31.1301 61.0695 30.7901L64.7195 21.5801C64.9695 20.9601 64.9695 20.2001 64.7195 19.4401C64.5895 19.1101 64.1695 18.2801 63.2495 17.9701L58.4795 15.9301C58.2695 15.8601 57.9695 15.8801 57.8695 16.1901C57.7895 16.4201 57.8095 16.7201 58.1195 16.8201L62.8895 18.8601C63.3695 19.1701 63.8195 19.4701 63.9795 19.9601C64.1295 20.5701 64.1295 21.0201 63.9795 21.4701L60.1795 30.4401C59.9295 31.0501 59.9295 31.5301 60.1795 32.1501C60.3795 32.6501 60.7695 33.0401 61.3595 33.3501V33.3701Z" fill="#141414"/>
<path d="M52.0696 43.12H51.7996L47.8696 41.49C47.4596 41.35 47.3296 40.95 47.4596 40.54C47.5896 40.13 47.9996 40 48.4096 40.13L52.3396 41.76C52.7496 41.9 52.8796 42.3 52.7496 42.71C52.6096 42.98 52.3396 43.12 52.0696 43.12Z" fill="#141414"/>
<path d="M52.0696 43.37L51.6996 43.35L47.7696 41.72C47.5196 41.64 47.3196 41.45 47.2296 41.21C47.1396 40.99 47.1396 40.72 47.2296 40.46C47.3996 39.95 47.9396 39.71 48.4996 39.9L52.4496 41.53C52.6996 41.61 52.8996 41.8 52.9896 42.04C53.0796 42.26 53.0796 42.53 52.9896 42.79C52.8096 43.16 52.4596 43.37 52.0696 43.37ZM51.8496 42.87H52.0696C52.2696 42.87 52.4396 42.77 52.5296 42.6C52.5896 42.4 52.5696 42.1 52.2696 42L48.3196 40.37C48.1096 40.3 47.7996 40.32 47.6996 40.62C47.6196 40.85 47.6396 41.15 47.9496 41.25L51.8596 42.87H51.8496Z" fill="#141414"/>
<path d="M34.8394 49.5001C34.5694 49.5001 34.2994 49.3601 34.1594 49.0901C33.7494 48.2801 33.2094 47.7301 32.5294 47.7301C31.8494 47.7301 31.3094 48.2701 30.8994 49.0901C30.7594 49.3601 30.4894 49.5001 30.0894 49.5001C28.9994 49.2301 27.9194 48.8201 26.9694 48.1401C26.6994 48.0001 26.5594 47.6001 26.6994 47.3301C26.9694 46.5201 26.9694 45.7001 26.5594 45.3001C26.1494 45.0301 25.7494 44.8901 25.4694 44.8901C25.1894 44.8901 24.7894 44.8901 24.5194 45.0301C24.2494 45.1701 23.8394 45.0301 23.7094 44.7601C23.1694 43.8101 22.7594 42.7301 22.4894 41.6401C22.3494 41.3701 22.6294 40.9601 22.8994 40.8301C23.7094 40.4201 24.1194 39.8801 24.1194 39.3401C24.1194 38.8001 23.7094 38.1201 22.8994 37.8501C22.6294 37.7101 22.4894 37.4401 22.4894 37.0401C22.7594 35.9501 23.1694 34.8701 23.7094 33.9201C23.8494 33.6501 24.2494 33.5101 24.5194 33.6501C24.7894 33.7901 25.1994 33.7901 25.4694 33.7901C25.7394 33.7901 26.2794 33.7901 26.5594 33.3801C26.9694 32.9701 27.0994 32.1601 26.6994 31.3501C26.5594 31.0801 26.6994 30.6701 26.9694 30.5401C27.9194 29.8601 28.9994 29.4501 30.0894 29.1801C30.3594 29.0401 30.7694 29.3201 30.8994 29.5901C31.3094 30.4001 31.8494 30.9501 32.5294 30.9501C33.2094 30.9501 33.8894 30.4101 34.1594 29.5901C34.2994 29.3201 34.5695 29.1801 34.9694 29.1801C36.0595 29.4501 37.1394 29.8601 38.0894 30.5401C38.3594 30.6801 38.4994 31.0801 38.3594 31.3501C38.0894 32.1601 38.0894 32.9801 38.4994 33.3801C38.7694 33.6501 39.3094 33.7901 39.5894 33.7901C39.8694 33.7901 40.2694 33.7901 40.5394 33.6501C40.8095 33.5101 41.2194 33.6501 41.3494 33.9201C41.8894 34.8701 42.4394 35.9501 42.5694 37.0401C42.7094 37.3101 42.4294 37.7201 42.1594 37.8501C41.3494 38.2601 40.9394 38.8001 40.9394 39.3401C40.9394 39.8801 41.3494 40.5601 42.1594 40.8301C42.4294 40.9701 42.5694 41.2401 42.5694 41.6401C42.2994 42.7301 41.8894 43.8101 41.3494 44.7601C41.2094 45.0301 40.8095 45.1701 40.5394 45.0301C40.2694 44.8901 39.8594 44.8901 39.5894 44.8901C39.3194 44.8901 38.7794 45.0301 38.4994 45.3001C38.0894 45.7101 37.9594 46.5201 38.3594 47.3301C38.4994 47.6001 38.3594 48.0101 38.0894 48.1401C37.1394 48.8201 36.0595 49.2301 34.9694 49.5001H34.8295H34.8394ZM28.1994 47.3301C28.7394 47.6001 29.4194 47.8701 29.9594 48.0101C30.6394 46.9201 31.5894 46.3801 32.5394 46.3801C33.6294 46.3801 34.5694 47.0601 35.1194 48.0101C35.7994 47.8701 36.3394 47.6001 36.8794 47.3301C36.6094 46.2401 36.8794 45.1601 37.5595 44.3501C38.2395 43.6701 39.3194 43.4001 40.4094 43.6701C40.6794 43.1301 40.9494 42.5801 41.0894 41.9101C40.1394 41.2301 39.5994 40.4201 39.5994 39.3301C39.5994 38.3801 40.1394 37.4301 41.0894 36.8901C40.9494 36.3501 40.6794 35.6701 40.4094 35.1301C39.3194 35.4001 38.2395 35.1301 37.5595 34.4501C36.8794 33.6401 36.6094 32.5501 36.8794 31.4701C36.3394 31.2001 35.7894 30.9301 35.1194 30.7901C34.4394 31.8801 33.4894 32.4201 32.5394 32.4201C31.4494 32.4201 30.5094 31.7401 29.9594 30.7901C29.2794 30.9301 28.7394 31.2001 28.1994 31.4701C28.4694 32.6901 28.1994 33.6401 27.5194 34.4501C26.8394 35.1301 25.7594 35.4001 24.5394 35.1301C24.2694 35.6701 23.9994 36.2201 23.8594 36.8901C24.8094 37.4301 25.3494 38.3801 25.3494 39.4701C25.3494 40.4201 24.8094 41.3701 23.8594 42.0501C23.9994 42.5901 24.2694 43.2701 24.5394 43.8101C25.6294 43.5401 26.7094 43.8101 27.5194 44.4901C28.1994 45.0301 28.4694 46.1201 28.1994 47.3401V47.3301Z" fill="#141414"/>
<path d="M34.8395 49.7501C34.4495 49.7501 34.1095 49.5401 33.9395 49.2101C33.6595 48.6501 33.1895 47.9901 32.5395 47.9901C31.8895 47.9901 31.4095 48.6501 31.1395 49.2101C31.0195 49.4601 30.7295 49.7501 30.0995 49.7501C28.7495 49.4201 27.6995 48.9601 26.8295 48.3501C26.4695 48.1701 26.2895 47.6101 26.4795 47.2201C26.7195 46.4801 26.6895 45.7801 26.3895 45.4701C26.0195 45.2301 25.6695 45.1401 25.4795 45.1401C25.2295 45.1401 24.8595 45.1401 24.6395 45.2501C24.2495 45.4501 23.6895 45.2601 23.4895 44.8701C22.9695 43.9601 22.5395 42.8601 22.2495 41.7001C22.1695 41.5501 22.1895 41.3101 22.3195 41.0601C22.4295 40.8601 22.5995 40.6901 22.7795 40.6001C23.4695 40.2601 23.8595 39.7901 23.8595 39.3301C23.8595 38.8701 23.4995 38.3001 22.8095 38.0701C22.5295 37.9301 22.2295 37.6501 22.2295 37.0201C22.5295 35.7901 22.9595 34.6901 23.4795 33.7801C23.6695 33.4001 24.2295 33.2101 24.6195 33.4101C24.8395 33.5201 25.2095 33.5201 25.4595 33.5201C25.7095 33.5201 26.1395 33.5201 26.3395 33.2201C26.6895 32.8601 26.8195 32.1601 26.4595 31.4401C26.2595 31.0501 26.4495 30.4901 26.8395 30.2901C27.6695 29.6901 28.7195 29.2401 30.0095 28.9101C30.1595 28.8301 30.3995 28.8501 30.6495 28.9901C30.8495 29.1001 31.0195 29.2701 31.1095 29.4501C31.3895 30.0101 31.8595 30.6701 32.5095 30.6701C33.0995 30.6701 33.6695 30.1801 33.8995 29.4801C34.0395 29.2001 34.3195 28.9001 34.9495 28.9001C36.2995 29.2301 37.3495 29.6901 38.2195 30.3001C38.5795 30.4801 38.7695 31.0401 38.5695 31.4301C38.3195 32.1701 38.3495 32.8701 38.6595 33.1801C38.8695 33.3901 39.3295 33.5101 39.5695 33.5101C39.8095 33.5101 40.1895 33.5101 40.4095 33.4001C40.7995 33.2101 41.3595 33.3901 41.5595 33.7801C42.0895 34.7001 42.6495 35.8101 42.7995 36.9401C42.8595 37.0801 42.8595 37.2501 42.7995 37.4201C42.7095 37.6801 42.4995 37.9301 42.2595 38.0501C41.5695 38.3901 41.1795 38.8601 41.1795 39.3201C41.1795 39.7801 41.5395 40.3401 42.2295 40.5701C42.5095 40.7101 42.8095 40.9901 42.8095 41.6201C42.5095 42.8501 42.0795 43.9501 41.5595 44.8601C41.3695 45.2401 40.8095 45.4301 40.4195 45.2301C40.1995 45.1201 39.8295 45.1201 39.5795 45.1201C39.3295 45.1201 38.8795 45.2501 38.6695 45.4501C38.3495 45.7701 38.2195 46.4701 38.5795 47.2001C38.7795 47.5901 38.5895 48.1501 38.1995 48.3501C37.3695 48.9501 36.3195 49.4001 35.0295 49.7301H34.8295L34.8395 49.7501ZM25.4795 44.6301C25.8195 44.6301 26.2795 44.8001 26.6995 45.0801C27.1895 45.5601 27.2595 46.4201 26.9295 47.4001C26.8395 47.5801 26.9295 47.8401 27.0795 47.9101C27.9195 48.5101 28.9195 48.9401 30.1495 49.2501C30.4995 49.2501 30.6195 49.0901 30.6795 48.9701C31.2995 47.7301 32.0295 47.4801 32.5295 47.4801C33.0295 47.4801 33.7595 47.7401 34.3795 48.9701C34.4595 49.1401 34.6295 49.2401 34.8395 49.2401H34.9795C36.1495 48.9401 37.1395 48.5101 37.9495 47.9301C38.1295 47.8401 38.2195 47.5801 38.1395 47.4301C37.7195 46.5901 37.7895 45.6301 38.3195 45.1101C38.6495 44.7801 39.2595 44.6301 39.5795 44.6301C39.8695 44.6301 40.3195 44.6301 40.6395 44.7901C40.7895 44.8701 41.0495 44.7801 41.1195 44.6301C41.6295 43.7401 42.0395 42.6801 42.3195 41.5601C42.3195 41.2101 42.1595 41.0901 42.0395 41.0301C41.1195 40.7201 40.6795 39.9201 40.6795 39.3101C40.6795 38.6401 41.1595 38.0301 42.0395 37.5901C42.1595 37.5301 42.2795 37.3801 42.3295 37.2501C42.3495 37.1901 42.3495 37.1401 42.3295 37.1101L42.3095 37.0301C42.1795 35.9701 41.6295 34.9001 41.1195 34.0001C41.0395 33.8401 40.7795 33.7501 40.6295 33.8301C40.3095 33.9901 39.8595 33.9901 39.5695 33.9901C39.2395 33.9901 38.6395 33.8401 38.3095 33.5101C37.8595 33.0601 37.7895 32.2001 38.1095 31.2201C38.1995 31.0401 38.1095 30.7801 37.9595 30.7101C37.1195 30.1101 36.1195 29.6801 34.8895 29.3701C34.5395 29.3701 34.4195 29.5301 34.3595 29.6501C34.0695 30.5201 33.3095 31.1501 32.5095 31.1501C32.0095 31.1501 31.2795 30.8901 30.6595 29.6501C30.6095 29.5601 30.5095 29.4601 30.4095 29.4001C30.3195 29.3501 30.2295 29.3301 30.1895 29.3501C28.9095 29.6801 27.9095 30.1101 27.0995 30.6901C26.9195 30.7801 26.8295 31.0401 26.9095 31.1901C27.3295 32.0301 27.2495 32.9901 26.7295 33.5101C26.4195 33.9901 25.7495 33.9901 25.4695 33.9901C25.1895 33.9901 24.7295 33.9901 24.4095 33.8301C24.2595 33.7601 23.9995 33.8401 23.9295 33.9901C23.4195 34.8801 23.0095 35.9401 22.7295 37.0601C22.7295 37.4101 22.8895 37.5301 23.0095 37.5901C23.9295 37.9001 24.3695 38.7001 24.3695 39.3101C24.3695 39.9801 23.8895 40.5901 23.0095 41.0301C22.8195 41.1301 22.6595 41.4101 22.7095 41.5101C23.0095 42.6801 23.4195 43.7401 23.9195 44.6201C23.9995 44.7801 24.2495 44.8701 24.4095 44.7901C24.7295 44.6301 25.1795 44.6301 25.4695 44.6301H25.4795ZM30.0795 48.2901L29.8995 48.2501C29.3795 48.1201 28.6795 47.8501 28.0795 47.5501L27.9095 47.4601L27.9495 47.2701C28.1995 46.1601 27.9695 45.1601 27.3595 44.6701C26.5795 44.0201 25.5695 43.7901 24.5895 44.0401L24.3995 44.0901L24.3095 43.9101C24.0095 43.3001 23.7395 42.6201 23.6095 42.1001L23.5695 41.9301L23.7095 41.8301C24.5895 41.2001 25.0995 40.3401 25.0995 39.4601C25.0995 38.4601 24.5995 37.6001 23.7295 37.1001L23.5695 37.0101L23.6095 36.8301C23.7495 36.1201 24.0395 35.5501 24.3095 35.0001L24.3995 34.8301L24.5895 34.8701C25.6995 35.1201 26.7095 34.8901 27.3395 34.2601C27.9895 33.4701 28.1895 32.5901 27.9495 31.5101L27.9095 31.3201L28.0795 31.2301C28.6295 30.9601 29.1895 30.6701 29.9095 30.5301L30.0895 30.4901L30.1795 30.6501C30.7095 31.5801 31.6095 32.1501 32.5395 32.1501C33.4695 32.1501 34.3095 31.6001 34.9095 30.6401L34.9995 30.4901L35.1695 30.5201C35.8795 30.6601 36.4495 30.9501 36.9995 31.2201L37.1795 31.3101L37.1295 31.5001C36.8795 32.4801 37.1095 33.4901 37.7595 34.2601C38.3695 34.8701 39.3695 35.1001 40.3595 34.8601L40.5495 34.8101L40.6395 34.9901C40.9395 35.6001 41.2095 36.2801 41.3395 36.8001L41.3895 36.9801L41.2295 37.0701C40.3895 37.5501 39.8595 38.4001 39.8595 39.2901C39.8595 40.2301 40.2995 40.9901 41.2495 41.6601L41.3795 41.7501L41.3495 41.9101C41.2095 42.6201 40.9195 43.1901 40.6495 43.7401L40.5595 43.9201L40.3695 43.8701C39.3795 43.6201 38.3795 43.8601 37.7595 44.4801C37.1295 45.2401 36.8995 46.2401 37.1495 47.2301L37.1995 47.4201L37.0195 47.5101C36.4695 47.7801 35.9095 48.0701 35.1895 48.2101L35.0095 48.2501L34.9195 48.0901C34.3795 47.1501 33.4995 46.5901 32.5595 46.5901C31.6195 46.5901 30.7895 47.1401 30.1895 48.1001L30.0895 48.2501L30.0795 48.2901ZM32.5395 46.1301C33.6095 46.1301 34.5995 46.7201 35.2395 47.7201C35.7395 47.6001 36.1795 47.4001 36.5995 47.1901C36.3895 46.1101 36.6695 45.0301 37.3695 44.1801C38.0895 43.4601 39.1895 43.1601 40.2695 43.3801C40.4895 42.9401 40.6895 42.5201 40.8095 42.0101C39.8295 41.2601 39.3495 40.3801 39.3495 39.3301C39.3495 38.2801 39.8995 37.3601 40.7995 36.7701C40.6795 36.3601 40.4895 35.8701 40.2695 35.4101C39.1895 35.6201 38.0895 35.3301 37.3795 34.6201C36.6595 33.7601 36.3795 32.6701 36.5895 31.6001C36.1695 31.3901 35.7295 31.1901 35.2295 31.0701C34.5395 32.0901 33.5695 32.6701 32.5395 32.6701C31.5095 32.6701 30.4695 32.0601 29.8395 31.0701C29.3395 31.1901 28.8995 31.4001 28.4795 31.6001C28.6895 32.7501 28.4395 33.7401 27.7095 34.6101C26.9695 35.3501 25.8795 35.6301 24.6695 35.4101C24.4495 35.8401 24.2595 36.2701 24.1295 36.7701C25.0595 37.3701 25.5895 38.3401 25.5895 39.4701C25.5895 40.4601 25.0595 41.4301 24.1295 42.1501C24.2495 42.5601 24.4395 43.0601 24.6595 43.5301C25.7295 43.3201 26.8195 43.6001 27.6695 44.3001C28.3895 44.8801 28.6895 45.9801 28.4695 47.2001C28.9295 47.4201 29.4295 47.6101 29.8395 47.7301C30.5295 46.7201 31.4995 46.1401 32.5295 46.1401L32.5395 46.1301Z" fill="#141414"/>
<path d="M32.5395 44.34C29.8295 44.34 27.5195 42.17 27.5195 39.32C27.5195 36.47 29.6895 34.3 32.5395 34.3C35.3895 34.3 37.5595 36.47 37.5595 39.32C37.5595 42.17 35.2495 44.34 32.5395 44.34ZM32.5395 35.7901C30.5095 35.7901 28.8795 37.4201 28.8795 39.4501C28.8795 41.4801 30.5095 43.1101 32.5395 43.1101C34.5695 43.1101 36.1995 41.4801 36.1995 39.4501C36.1995 37.4201 34.5695 35.7901 32.5395 35.7901Z" fill="#141414"/>
<path d="M32.5395 44.59C29.6295 44.59 27.2695 42.23 27.2695 39.32C27.2695 36.41 29.6295 34.05 32.5395 34.05C35.4495 34.05 37.8095 36.32 37.8095 39.32C37.8095 42.32 35.3995 44.59 32.5395 44.59ZM32.5395 34.55C29.9095 34.55 27.7695 36.69 27.7695 39.32C27.7695 41.95 29.9095 44.09 32.5395 44.09C35.1695 44.09 37.3095 41.91 37.3095 39.32C37.3095 36.6 35.2595 34.55 32.5395 34.55ZM32.5395 43.37C30.3795 43.37 28.6295 41.61 28.6295 39.46C28.6295 37.31 30.3895 35.55 32.5395 35.55C34.6895 35.55 36.4495 37.31 36.4495 39.46C36.4495 41.61 34.6895 43.37 32.5395 43.37ZM32.5395 36.0401C30.6595 36.0401 29.1295 37.5701 29.1295 39.4501C29.1295 41.3301 30.6595 42.8601 32.5395 42.8601C34.4195 42.8601 35.9495 41.3301 35.9495 39.4501C35.9495 37.5701 34.4195 36.0401 32.5395 36.0401Z" fill="#141414"/>
</g>
<defs>
<clipPath id="clip0_294_1883">
<rect width="65.48" height="59.11" fill="white"/>
</clipPath>
</defs>
</svg>
