<svg width="60" height="60" viewBox="0 0 60 60" fill="none" xmlns="http://www.w3.org/2000/svg">
<g clip-path="url(#clip0_294_2037)">
<path d="M51.21 8.79C45.55 3.12 38.01 0 30 0C21.99 0 14.45 3.12 8.79 8.79C3.12 14.45 0 21.99 0 30C0 34.72 1.07 39.25 3.17 43.44C5.18 47.44 8.11 51 11.66 53.75C11.84 53.89 12.04 53.95 12.25 53.95C12.54 53.95 12.83 53.82 13.02 53.57C13.35 53.15 13.27 52.54 12.85 52.21C6.17 47.05 2.24 39.34 1.96 30.96H26.5C26.92 32.5 28.33 33.63 30 33.63C31.67 33.63 33.08 32.5 33.5 30.96H58.04C57.76 39.1 54.01 46.65 47.65 51.81C47.23 52.15 47.17 52.76 47.51 53.17C47.85 53.59 48.46 53.65 48.87 53.31C55.94 47.58 59.99 39.08 59.99 29.99C59.99 21.98 56.87 14.44 51.2 8.78L51.21 8.79ZM58.05 29.03H47.82C47.68 26.49 47.01 24.08 45.91 21.93L54.76 16.82C56.72 20.49 57.89 24.63 58.04 29.04L58.05 29.03ZM53.8 15.14L44.95 20.25C43.6 18.18 41.82 16.41 39.75 15.05L44.86 6.2C48.47 8.46 51.54 11.53 53.8 15.14ZM21.93 14.09L16.82 5.24C20.49 3.28 24.63 2.11 29.04 1.96V12.19C26.5 12.33 24.09 13 21.94 14.1L21.93 14.09ZM30.97 1.95C35.37 2.1 39.52 3.27 43.19 5.23L38.08 14.08C35.93 12.98 33.52 12.31 30.98 12.17V1.95H30.97ZM15.14 6.2L20.25 15.05C18.18 16.4 16.41 18.18 15.05 20.25L6.2 15.14C8.46 11.53 11.53 8.46 15.14 6.2ZM14.09 21.93C12.99 24.08 12.32 26.49 12.18 29.03H1.95C2.1 24.63 3.27 20.48 5.23 16.81L14.08 21.92L14.09 21.93ZM26.5 29.03H14.12C14.62 20.71 21.55 14.09 30 14.09C38.45 14.09 45.38 20.71 45.88 29.03H33.5C33.42 28.74 33.3 28.46 33.16 28.21L37.13 24.24C37.51 23.86 37.51 23.25 37.13 22.87C36.75 22.49 36.14 22.49 35.76 22.87L31.79 26.84C31.26 26.54 30.65 26.37 30 26.37C28.33 26.37 26.92 27.5 26.5 29.04V29.03ZM30 31.7C29.06 31.7 28.3 30.94 28.3 30C28.3 29.06 29.06 28.3 30 28.3C30.94 28.3 31.7 29.06 31.7 30C31.7 30.94 30.94 31.7 30 31.7ZM28.15 44.29H23.83C23.3 44.29 22.86 44.72 22.86 45.26V59.04C22.86 59.57 23.29 60.01 23.83 60.01H28.15C28.68 60.01 29.12 59.58 29.12 59.04V45.26C29.12 44.73 28.69 44.29 28.15 44.29ZM27.18 58.06H24.8V46.22H27.18V58.06ZM36.17 46.08H31.85C31.32 46.08 30.88 46.51 30.88 47.05V59.03C30.88 59.56 31.31 60 31.85 60H36.17C36.7 60 37.14 59.57 37.14 59.03V47.05C37.14 46.52 36.71 46.08 36.17 46.08ZM35.2 58.06H32.82V48.02H35.2V58.06ZM44.18 38.62H39.86C39.33 38.62 38.89 39.05 38.89 39.59V59.03C38.89 59.56 39.32 60 39.86 60H44.18C44.71 60 45.15 59.57 45.15 59.03V39.59C45.15 39.06 44.72 38.62 44.18 38.62ZM43.21 58.06H40.83V40.55H43.21V58.06ZM20.13 49.63H15.81C15.28 49.63 14.84 50.06 14.84 50.6V59.03C14.84 59.56 15.27 60 15.81 60H20.13C20.66 60 21.1 59.57 21.1 59.03V50.6C21.1 50.07 20.67 49.63 20.13 49.63ZM19.17 58.06H16.79V51.56H19.17V58.06ZM33.72 39.89L39.45 34.11C38.94 34.13 38.5 33.74 38.45 33.23C38.4 32.7 38.8 32.23 39.33 32.18L41.94 31.95C42.23 31.92 42.51 32.03 42.72 32.24C42.92 32.45 43.02 32.74 42.99 33.02L42.7 35.62C42.64 36.11 42.23 36.48 41.74 36.48C41.7 36.48 41.67 36.48 41.63 36.48C41.14 36.43 40.78 36.01 40.77 35.53L34.68 41.68C34.42 41.94 34.04 42.03 33.69 41.92L26.19 39.49L18.58 45.42C18.4 45.56 18.19 45.62 17.99 45.62C17.7 45.62 17.42 45.49 17.23 45.25C16.9 44.83 16.98 44.22 17.4 43.89L25.42 37.65C25.67 37.45 26.01 37.39 26.31 37.49L33.74 39.9L33.72 39.89Z" fill="white"/>
</g>
<defs>
<clipPath id="clip0_294_2037">
<rect width="60" height="60" fill="white"/>
</clipPath>
</defs>
</svg>
