<svg width="61" height="65" viewBox="0 0 61 65" fill="none" xmlns="http://www.w3.org/2000/svg">
<g clip-path="url(#clip0_294_1980)">
<path d="M45.0801 1H31.7601C28.3501 1 25.5801 3.76 25.5801 7.16V18.56" stroke="#141414" stroke-width="2" stroke-linecap="round" stroke-linejoin="round"/>
<path d="M28.1299 34.15C29.1499 34.89 30.3999 35.32 31.7499 35.32H43.3199V40.93L50.6499 35.32H53.8099C57.2199 35.32 59.9899 32.56 59.9899 29.16V7.16C59.9899 3.76 57.2199 1 53.8099 1H51.0199" stroke="#141414" stroke-width="2" stroke-linecap="round" stroke-linejoin="round"/>
<path d="M38.0303 26.29L38.6703 26.81C39.6803 27.63 40.9403 28.07 42.2403 28.07H51.2803C52.1403 28.07 52.8303 27.36 52.7903 26.49C52.7503 25.68 52.7903 18.3 52.7903 17.46C52.7903 16.62 52.1203 15.95 51.2803 15.95L45.1503 15.93L45.9003 14.15C46.6803 12.3 46.5503 10.2 45.5603 8.46003C45.2803 7.97003 44.6503 7.81003 44.1603 8.10003C43.8603 8.28003 43.6803 8.61003 43.6803 8.95003C43.6803 10.54 43.1003 12.08 42.0403 13.28L38.1303 17.7" stroke="#141414" stroke-width="2" stroke-linecap="round" stroke-linejoin="round"/>
<path d="M37.9098 27.6499H32.7998V16.1499H37.9098V27.6499Z" stroke="#141414" stroke-width="2" stroke-linecap="round" stroke-linejoin="round"/>
<path d="M1 30.7202V40.3102C1 42.9902 3.18 45.1702 5.87 45.1702H15.43V49.6402L21.21 45.1702" stroke="#141414" stroke-width="2" stroke-linecap="round" stroke-linejoin="round"/>
<path d="M28 41.4999C28.09 41.1199 28.15 40.7299 28.15 40.3199V22.9699C28.15 20.2899 25.97 18.1099 23.28 18.1099H5.87C3.18 18.1099 1 20.2799 1 22.9699V25.0199" stroke="#141414" stroke-width="2" stroke-linecap="round" stroke-linejoin="round"/>
<path d="M8.19043 29.7998H20.9504" stroke="#141414" stroke-width="2" stroke-linecap="round" stroke-linejoin="round"/>
<path d="M8.19043 34.02H20.9504" stroke="#141414" stroke-width="2" stroke-linecap="round" stroke-linejoin="round"/>
<path d="M17.7399 25.5298L15.6299 38.2898" stroke="#141414" stroke-width="2" stroke-linecap="round" stroke-linejoin="round"/>
<path d="M13.5202 25.5298L11.4102 38.2898" stroke="#141414" stroke-width="2" stroke-linecap="round" stroke-linejoin="round"/>
<path d="M41.02 49.7401V45.0701C41.02 43.1701 39.47 41.6201 37.56 41.6201H25.21C23.3 41.6201 21.75 43.1601 21.75 45.0701V57.3801C21.75 59.2801 23.3 60.8301 25.21 60.8301H31.99V64.0001L36.09 60.8301H37.55C39.46 60.8301 41.01 59.2901 41.01 57.3801V55.6901" stroke="#141414" stroke-width="2" stroke-linecap="round" stroke-linejoin="round"/>
<path d="M31.3899 55.4102C34.3599 53.8302 35.8999 52.4902 35.8999 50.4202C35.8999 47.5602 32.3899 46.8402 31.3899 48.9902C30.2399 46.7702 26.8799 47.5602 26.8799 50.4202C26.8799 52.5002 28.4199 53.8402 31.3899 55.4102Z" stroke="#141414" stroke-width="2" stroke-linecap="round" stroke-linejoin="round"/>
</g>
<defs>
<clipPath id="clip0_294_1980">
<rect width="61" height="65" fill="white"/>
</clipPath>
</defs>
</svg>
