<svg width="64" height="58" viewBox="0 0 64 58" fill="none" xmlns="http://www.w3.org/2000/svg">
<g clip-path="url(#clip0_294_2009)">
<path d="M54.2002 9.31006H58.2502C59.2802 9.31006 60.1102 10.1501 60.1102 11.1701L60.0902 45.1201" stroke="#141414" stroke-width="2" stroke-linecap="round" stroke-linejoin="round"/>
<path d="M49.87 9.31006H45.75" stroke="#141414" stroke-width="2" stroke-linecap="round" stroke-linejoin="round"/>
<path d="M3.46973 45.0999V36.6499" stroke="#141414" stroke-width="2" stroke-linecap="round" stroke-linejoin="round"/>
<path d="M8.1 50.19H4.72C2.67 50.19 1 48.52 1 46.47C1 46.13 1.14 45.82 1.36 45.59C1.58 45.37 1.89 45.23 2.24 45.23H35.08" stroke="#141414" stroke-width="2" stroke-linecap="round" stroke-linejoin="round"/>
<path d="M35.0804 50.1899H12.4404" stroke="#141414" stroke-width="2" stroke-linecap="round" stroke-linejoin="round"/>
<path d="M56.0801 45.2402H61.3401C62.0201 45.2402 62.5801 45.7902 62.5801 46.4802C62.5801 48.5302 60.9201 50.2002 58.8601 50.2002H56.1101" stroke="#141414" stroke-width="2" stroke-linecap="round" stroke-linejoin="round"/>
<path d="M35.08 36.43H2.87C1.84 36.43 1 35.59 1 34.56V2.87C1 1.84 1.84 1 2.87 1H43.69C44.72 1 45.56 1.84 45.56 2.87V22.97" stroke="#141414" stroke-width="2" stroke-linecap="round" stroke-linejoin="round"/>
<path d="M13.9297 4.58984H41.9697V22.9698" stroke="#141414" stroke-width="2" stroke-linecap="round" stroke-linejoin="round"/>
<path d="M9.59984 4.58984H4.58984V32.8298H35.0798" stroke="#141414" stroke-width="2" stroke-linecap="round" stroke-linejoin="round"/>
<path d="M23.2797 26.7699C27.8692 26.7699 31.5897 23.0494 31.5897 18.4599C31.5897 13.8704 27.8692 10.1499 23.2797 10.1499C18.6902 10.1499 14.9697 13.8704 14.9697 18.4599C14.9697 23.0494 18.6902 26.7699 23.2797 26.7699Z" stroke="#141414" stroke-width="2" stroke-linecap="round" stroke-linejoin="round"/>
<path d="M20.0898 18.4499L22.6998 21.3899L26.9698 15.9199" stroke="#141414" stroke-width="2" stroke-linecap="round" stroke-linejoin="round"/>
<path d="M35.3096 43.4602V53.7602C35.3096 55.1402 36.4296 56.2602 37.8096 56.2602H53.3096C54.6896 56.2602 55.7996 55.1402 55.7996 53.7602V25.6802C55.7996 24.3002 54.6796 23.1802 53.3096 23.1802H37.8096C36.4296 23.1802 35.3096 24.3002 35.3096 25.6802V39.1202" stroke="#141414" stroke-width="2" stroke-linecap="round" stroke-linejoin="round"/>
<path d="M43.9004 26.4199H47.2204" stroke="#141414" stroke-width="2" stroke-linecap="round" stroke-linejoin="round"/>
<path d="M45.5598 46.19C49.1331 46.19 52.0298 43.2933 52.0298 39.72C52.0298 36.1467 49.1331 33.25 45.5598 33.25C41.9866 33.25 39.0898 36.1467 39.0898 39.72C39.0898 43.2933 41.9866 46.19 45.5598 46.19Z" stroke="#141414" stroke-width="2" stroke-linecap="round" stroke-linejoin="round"/>
<path d="M43.2695 39.7201L45.1595 41.8401L48.2395 37.8901" stroke="#141414" stroke-width="2" stroke-linecap="round" stroke-linejoin="round"/>
</g>
<defs>
<clipPath id="clip0_294_2009">
<rect width="63.58" height="57.25" fill="white"/>
</clipPath>
</defs>
</svg>
