<svg width="56" height="60" viewBox="0 0 56 60" fill="none" xmlns="http://www.w3.org/2000/svg">
<g clip-path="url(#clip0_294_2086)">
<path d="M47.67 39.67L52.16 40.7C52.58 40.8 53.02 40.59 53.21 40.2C54.13 38.29 54.84 36.28 55.3 34.24C55.77 32.2 56 30.09 56 27.96C56 27.52 55.7 27.15 55.27 27.05L50.78 26.02C50.6 23.92 50.13 21.87 49.39 19.9L52.99 17.03C53.33 16.76 53.44 16.29 53.25 15.9C52.33 13.99 51.2 12.19 49.9 10.55C48.59 8.91 47.09 7.41 45.43 6.09C45.09 5.82 44.61 5.82 44.27 6.09L40.66 8.96C38.91 7.79 37.01 6.88 35.01 6.23V1.62C35.01 1.18 34.71 0.81 34.29 0.71C32.22 0.24 30.11 0 28.01 0C25.91 0 23.8 0.24 21.73 0.71C21.31 0.81 21 1.18 21 1.62V6.23C19 6.87 17.1 7.79 15.35 8.96L11.74 6.09C11.4 5.82 10.92 5.82 10.58 6.09C8.92 7.41 7.41 8.91 6.11 10.55C4.8 12.19 3.68 13.99 2.76 15.9C2.57 16.29 2.68 16.76 3.02 17.03L6.62 19.9C5.87 21.87 5.41 23.92 5.23 26.02L0.74 27.05C0.3 27.14 0 27.52 0 27.96C0 30.08 0.23 32.2 0.7 34.24C1.17 36.28 1.87 38.29 2.79 40.2C2.98 40.59 3.41 40.8 3.84 40.7L8.33 39.67C9.4 41.48 10.72 43.12 12.25 44.57L10.25 48.72C10.06 49.11 10.17 49.58 10.51 49.85C11.68 50.79 12.93 51.63 14.23 52.36C14.68 52.61 15.25 52.46 15.5 52.01C15.75 51.56 15.6 50.99 15.15 50.74C14.16 50.18 13.19 49.54 12.27 48.85L14.24 44.75C14.42 44.38 14.33 43.93 14.02 43.65C12.25 42.07 10.77 40.21 9.62 38.14C9.42 37.78 9 37.59 8.6 37.68L4.17 38.69C3.46 37.11 2.91 35.47 2.53 33.8C2.15 32.13 1.93 30.41 1.89 28.68L6.32 27.67C6.73 27.58 7.02 27.23 7.04 26.81C7.17 24.44 7.7 22.13 8.6 19.94C8.76 19.56 8.65 19.11 8.32 18.85L4.77 16.02C5.56 14.48 6.5 13.02 7.57 11.69C8.64 10.35 9.85 9.11 11.17 8L14.73 10.84C15.06 11.1 15.51 11.11 15.85 10.87C17.79 9.49 19.92 8.47 22.19 7.81C22.59 7.7 22.87 7.33 22.87 6.91V2.38C24.57 2.04 26.29 1.87 28 1.87C29.71 1.87 31.43 2.04 33.13 2.38V6.92C33.13 7.34 33.41 7.7 33.81 7.82C36.08 8.47 38.22 9.5 40.15 10.88C40.49 11.12 40.95 11.11 41.27 10.85L44.83 8.01C46.16 9.13 47.36 10.37 48.43 11.7C49.5 13.04 50.44 14.49 51.23 16.03L47.68 18.86C47.35 19.12 47.24 19.56 47.4 19.95C48.31 22.14 48.83 24.45 48.96 26.82C48.98 27.24 49.28 27.59 49.68 27.68L54.11 28.69C54.06 30.42 53.85 32.14 53.47 33.81C53.09 35.48 52.54 37.12 51.83 38.7L47.4 37.69C46.99 37.6 46.58 37.78 46.38 38.15C45.23 40.22 43.75 42.07 41.98 43.66C41.67 43.94 41.58 44.39 41.76 44.76L43.73 48.86C42.81 49.56 41.84 50.19 40.85 50.75C40.4 51 40.24 51.57 40.5 52.02C40.67 52.32 40.99 52.49 41.31 52.49C41.47 52.49 41.62 52.45 41.77 52.37C43.06 51.64 44.31 50.79 45.49 49.86C45.83 49.59 45.94 49.12 45.75 48.73L43.75 44.58C45.28 43.13 46.59 41.48 47.67 39.68V39.67Z" fill="#141414"/>
<path d="M36.1502 42.6899C41.6902 39.6099 45.0002 33.75 44.7902 27.41C44.4802 18.43 36.9702 11.2 27.9902 11.2C27.9302 11.2 27.8702 11.2 27.8102 11.2C23.3602 11.25 19.1902 13.02 16.0602 16.18C12.9302 19.35 11.2002 23.54 11.2002 28C11.2002 34.1 14.5102 39.7299 19.8502 42.6899C19.9802 42.7599 20.0702 42.92 20.0702 43.08V44.91C18.4602 45.3299 17.2702 46.7899 17.2702 48.5299V52.2599C17.2702 54.32 18.9402 55.99 21.0002 55.99H22.0302C22.4602 58.12 24.3502 59.72 26.6002 59.72H29.4002C31.6502 59.72 33.5402 58.11 33.9702 55.99H35.0002C37.0602 55.99 38.7302 54.32 38.7302 52.2599V48.5299C38.7302 46.7899 37.5402 45.3299 35.9302 44.91V43.08C35.9302 42.91 36.0102 42.76 36.1502 42.68V42.6899ZM13.0602 28C13.0602 19.86 19.6802 13.16 27.8302 13.07C27.8802 13.07 27.9402 13.07 27.9902 13.07C35.9702 13.07 42.6502 19.5 42.9202 27.4799C43.1102 33.1199 40.1702 38.32 35.2402 41.06C34.5102 41.47 34.0602 42.24 34.0602 43.09V44.81H21.9302V43.09C21.9302 42.24 21.4802 41.47 20.7502 41.06C16.0102 38.42 13.0602 33.42 13.0602 28ZM36.8702 48.54V52.27C36.8702 53.2999 36.0302 54.1399 35.0002 54.1399H33.1302C32.6102 54.1399 32.2002 54.56 32.2002 55.07C32.2002 56.61 30.9402 57.8699 29.4002 57.8699H26.6002C25.3802 57.8699 24.3402 57.09 23.9602 56H27.5302C28.0502 56 28.4602 55.5799 28.4602 55.07C28.4602 54.56 28.0402 54.1399 27.5302 54.1399H21.0002C19.9702 54.1399 19.1302 53.2999 19.1302 52.27V48.54C19.1302 47.51 19.9702 46.6699 21.0002 46.6699H35.0002C36.0302 46.6699 36.8702 47.51 36.8702 48.54Z" fill="#141414"/>
<path d="M21.3805 36.9C22.0805 37.41 22.9905 37.48 23.7605 37.07L27.7605 34.97L31.7605 37.07C32.0905 37.25 32.4505 37.33 32.8105 37.33C33.2805 37.33 33.7405 37.18 34.1405 36.9C34.8405 36.39 35.1905 35.54 35.0405 34.69L34.2805 30.24L37.5205 27.09C38.1405 26.49 38.3605 25.6 38.0905 24.77C37.8205 23.95 37.1205 23.36 36.2705 23.23L31.8005 22.58L29.8005 18.53C29.4205 17.75 28.6405 17.27 27.7705 17.27C26.9005 17.27 26.1305 17.75 25.7405 18.53L23.7405 22.58L19.2705 23.23C18.4105 23.35 17.7105 23.94 17.4505 24.77C17.1805 25.59 17.4005 26.48 18.0205 27.09L21.2605 30.24L20.5005 34.69C20.3505 35.54 20.7005 36.39 21.4005 36.9H21.3805ZM19.3105 25.75C19.1605 25.6 19.1805 25.43 19.2105 25.35C19.2405 25.27 19.3205 25.11 19.5305 25.08L24.4905 24.36C24.7905 24.32 25.0605 24.12 25.1905 23.85L27.4105 19.36C27.5005 19.17 27.6705 19.14 27.7605 19.14C27.8505 19.14 28.0205 19.17 28.1105 19.36L30.3305 23.85C30.4705 24.13 30.7305 24.32 31.0305 24.36L35.9905 25.08C36.2005 25.11 36.2805 25.26 36.3105 25.35C36.3405 25.44 36.3605 25.6 36.2105 25.75L32.6205 29.25C32.4005 29.46 32.3005 29.77 32.3505 30.08L33.2005 35.02C33.2405 35.23 33.1205 35.35 33.0405 35.4C32.9705 35.45 32.8105 35.53 32.6305 35.43L28.2005 33.1C28.0605 33.03 27.9105 32.99 27.7705 32.99C27.6305 32.99 27.4705 33.03 27.3405 33.1L22.9105 35.43C22.7205 35.53 22.5705 35.45 22.5005 35.4C22.4305 35.35 22.3105 35.23 22.3405 35.02L23.1905 30.08C23.2405 29.78 23.1405 29.47 22.9205 29.25L19.3305 25.75H19.3105Z" fill="#141414"/>
</g>
<defs>
<clipPath id="clip0_294_2086">
<rect width="56" height="59.74" fill="white"/>
</clipPath>
</defs>
</svg>
