<svg width="60" height="60" viewBox="0 0 60 60" fill="none" xmlns="http://www.w3.org/2000/svg">
<g clip-path="url(#clip0_294_2043)">
<path d="M56.91 17.07H55.97C55.87 16.71 55.7 16.36 55.47 16.06L44.97 2.94C43.96 1.68 42.12 1.47 40.86 2.48C40.48 2.78 40.19 3.17 40 3.61L34.95 15.42L32.7 17.22V17.06H3.09C1.38 17.06 0 18.44 0 20.15V48.14C0 49.85 1.38 51.23 3.09 51.23H25.95V53.97H24.81C23.15 53.97 21.8 55.32 21.8 56.99C21.8 58.65 23.15 60 24.81 60H35.19C36.85 60 38.2 58.65 38.2 56.98C38.2 55.32 36.85 53.97 35.19 53.97H34.05V51.23H56.91C58.62 51.23 60 49.85 60 48.14V20.15C60 18.44 58.62 17.06 56.91 17.06V17.07ZM42.54 3.73C42.91 3.68 43.27 3.82 43.5 4.11L54 17.23C54.36 17.68 54.29 18.34 53.84 18.7C53.7 18.81 53.54 18.88 53.37 18.91L52.75 19.02L41.46 4.92L41.71 4.34C41.85 4 42.17 3.76 42.53 3.71L42.54 3.73ZM39.37 22.07L36.18 24.62L32.39 19.88L35.58 17.33L39.37 22.07ZM30.61 21.31L30.92 21.06L34.71 25.8L34.4 26.05C33.95 26.41 33.29 26.34 32.93 25.89L30.45 22.79C30.09 22.34 30.16 21.68 30.61 21.32V21.31ZM40.54 23.54L45.54 29.79C45.9 30.24 45.83 30.9 45.38 31.26L43.83 32.5C43.38 32.86 42.72 32.79 42.36 32.34L37.36 26.09L40.55 23.54H40.54ZM41.07 21.2L36.81 15.87L40.64 6.89L50.67 19.42L41.07 21.19V21.2ZM35.19 55.85C35.82 55.85 36.33 56.36 36.33 56.99C36.33 57.62 35.82 58.13 35.19 58.13H24.81C24.18 58.13 23.67 57.62 23.67 56.99C23.67 56.36 24.18 55.85 24.81 55.85H35.19ZM32.18 53.97H27.83V51.23H32.18V53.97ZM58.12 48.15C58.12 48.82 57.58 49.36 56.9 49.36H3.09C2.42 49.36 1.88 48.82 1.88 48.15V20.16C1.88 19.49 2.42 18.95 3.09 18.94H30.56L29.92 19.46L29.44 19.84C28.18 20.85 27.97 22.69 28.98 23.95L31.46 27.05C32.47 28.31 34.31 28.51 35.57 27.5L35.88 27.25L40.88 33.5C41.36 34.11 42.07 34.5 42.84 34.58C42.95 34.59 43.06 34.6 43.17 34.6C43.83 34.6 44.48 34.37 44.99 33.96L46.54 32.72C47.8 31.71 48 29.87 47 28.61L42.39 22.85L53.71 20.76C54.71 20.58 55.54 19.89 55.9 18.94H56.9C57.57 18.94 58.11 19.48 58.12 20.16V48.15ZM7.17 31.23H20.66C22.32 31.23 23.67 29.88 23.67 28.22V24.81C23.67 23.15 22.32 21.8 20.66 21.8H7.17C5.51 21.8 4.16 23.15 4.16 24.81V28.22C4.16 29.88 5.51 31.23 7.17 31.23ZM6.03 24.81C6.03 24.18 6.54 23.67 7.17 23.67H20.66C21.29 23.67 21.8 24.18 21.8 24.81V28.22C21.8 28.85 21.29 29.36 20.66 29.36H7.17C6.54 29.36 6.03 28.85 6.03 28.22V24.81ZM27.73 34.25H7.35C5.58 34.25 4.15 35.6 4.15 37.26V43.49C4.15 45.15 5.59 46.5 7.35 46.5H27.73C29.5 46.5 30.93 45.15 30.93 43.49V37.26C30.93 35.6 29.49 34.25 27.73 34.25ZM29.06 43.49C29.06 44.12 28.46 44.63 27.73 44.63H7.35C6.62 44.63 6.02 44.12 6.02 43.49V37.26C6.02 36.63 6.62 36.12 7.35 36.12H27.73C28.46 36.12 29.06 36.63 29.06 37.26V43.49ZM12.36 14.33H28.97C30.63 14.33 31.98 12.98 31.98 11.32V3.01C31.97 1.35 30.63 0 28.96 0H12.36C10.7 0 9.35 1.35 9.35 3.01V11.31C9.35 12.97 10.7 14.32 12.36 14.32V14.33ZM11.22 3.01C11.22 2.38 11.73 1.87 12.36 1.87H28.97C29.6 1.87 30.11 2.38 30.11 3.01V11.31C30.11 11.94 29.6 12.45 28.97 12.45H12.36C11.73 12.45 11.22 11.94 11.22 11.31V3.01ZM18.46 10.55C18.96 10.84 19.59 10.85 20.09 10.55L23.89 8.36C24.67 7.91 24.94 6.91 24.49 6.13C24.35 5.88 24.14 5.68 23.89 5.53L20.09 3.34C19.31 2.89 18.31 3.16 17.86 3.94C17.72 4.19 17.64 4.47 17.64 4.76V9.14C17.64 9.72 17.95 10.27 18.46 10.55ZM19.52 5.17L22.59 6.94L19.52 8.71V5.16V5.17ZM55.85 45.57C55.85 46.09 55.43 46.51 54.91 46.51H34.15C33.63 46.51 33.21 46.09 33.21 45.57C33.21 45.05 33.63 44.63 34.15 44.63H54.91C55.43 44.63 55.85 45.05 55.85 45.57ZM55.85 41.42C55.85 41.94 55.43 42.36 54.91 42.36H34.15C33.63 42.36 33.21 41.94 33.21 41.42C33.21 40.9 33.63 40.48 34.15 40.48H54.91C55.43 40.48 55.85 40.9 55.85 41.42ZM55.85 37.27C55.85 37.79 55.43 38.21 54.91 38.21H34.15C33.63 38.21 33.21 37.79 33.21 37.27C33.21 36.75 33.63 36.33 34.15 36.33H54.91C55.43 36.33 55.85 36.75 55.85 37.27ZM53.09 6L56.38 3.36C56.78 3.04 57.37 3.1 57.7 3.51C58.03 3.92 57.96 4.5 57.55 4.83L54.26 7.47C53.86 7.79 53.27 7.73 52.94 7.32C52.61 6.91 52.68 6.33 53.09 6ZM49.93 4.45L51.59 0.57C51.79 0.09 52.34 -0.13 52.82 0.08C53.3 0.28 53.52 0.83 53.31 1.31L51.65 5.19C51.45 5.67 50.9 5.89 50.42 5.68C49.94 5.47 49.72 4.93 49.93 4.45ZM54.74 9.05L58.89 8.29C59.4 8.2 59.89 8.53 59.98 9.04C60.07 9.55 59.74 10.04 59.23 10.13L55.08 10.89C55.02 10.9 54.97 10.91 54.91 10.91C54.39 10.91 53.97 10.49 53.97 9.97C53.97 9.52 54.29 9.13 54.74 9.05Z" fill="white"/>
</g>
<defs>
<clipPath id="clip0_294_2043">
<rect width="60" height="60" fill="white"/>
</clipPath>
</defs>
</svg>
