<svg width="62" height="57" viewBox="0 0 62 57" fill="none" xmlns="http://www.w3.org/2000/svg">
<g clip-path="url(#clip0_294_1732)">
<path d="M22.2504 23.88C23.5004 26.13 24.9904 28.28 26.4704 30.37C23.6104 31.2 21.8304 32.84 21.8304 34.74C21.8304 37.57 25.6704 39.7 30.7604 39.7C35.8504 39.7 39.6903 37.57 39.6903 34.74C39.6903 32.82 37.8804 31.17 34.9704 30.35C36.4204 28.26 37.8804 26.11 39.1404 23.85C41.5504 19.53 42.6703 15.84 42.6703 12.24C42.6703 5.49 37.3304 0 30.7704 0C24.2104 0 18.8704 5.49 18.8604 12.24C18.8604 16.02 19.9404 19.72 22.2504 23.88ZM37.7104 34.74C37.7104 36.15 34.7404 37.72 30.7604 37.72C26.7804 37.72 23.8104 36.15 23.8104 34.74C23.8104 33.85 25.1804 32.67 27.7004 32.1C28.4704 33.17 29.2204 34.23 29.9404 35.29C30.1204 35.56 30.4304 35.73 30.7604 35.73C31.0904 35.73 31.4004 35.56 31.5804 35.28C32.2504 34.25 32.9804 33.19 33.7404 32.1C36.0204 32.61 37.6903 33.7 37.6903 34.75L37.7104 34.74ZM30.7704 1.98C36.2404 1.98 40.6903 6.58 40.6903 12.23C40.6903 15.48 39.6504 18.86 37.4104 22.87C35.9804 25.42 34.2704 27.88 32.6104 30.26C31.9604 31.19 31.3404 32.08 30.7504 32.95C30.1804 32.13 29.5904 31.31 28.9904 30.48C27.2404 28.04 25.4304 25.51 23.9704 22.9C21.8304 19.05 20.8304 15.66 20.8304 12.23C20.8304 6.58 25.2904 1.98 30.7604 1.98H30.7704Z" fill="#141414"/>
<path d="M30.7701 19.85C35.1501 19.85 38.7101 16.29 38.7101 11.91C38.7101 7.52997 35.1501 3.96997 30.7701 3.96997C26.3901 3.96997 22.8301 7.52997 22.8301 11.91C22.8301 16.29 26.3901 19.85 30.7701 19.85ZM30.7701 5.94997C34.0501 5.94997 36.7201 8.61997 36.7201 11.9C36.7201 15.18 34.0501 17.85 30.7701 17.85C27.4901 17.85 24.8201 15.18 24.8201 11.9C24.8201 8.61997 27.4901 5.94997 30.7701 5.94997Z" fill="#141414"/>
<path d="M28.2203 13.0699L27.9503 14.7299C27.8903 15.1099 28.0503 15.4799 28.3603 15.6999C28.6703 15.9199 29.0803 15.9399 29.4103 15.7599L30.7703 15.0099L32.1303 15.7599C32.2803 15.8399 32.4503 15.8799 32.6103 15.8799C32.8103 15.8799 33.0103 15.8199 33.1803 15.6999C33.4903 15.4799 33.6503 15.0999 33.5903 14.7299L33.3203 13.0699L34.4603 11.8999C34.7203 11.6299 34.8103 11.2399 34.6903 10.8899C34.5703 10.5399 34.2703 10.2799 33.9003 10.2199L32.3703 9.98994L31.6703 8.50994C31.5103 8.15994 31.1603 7.93994 30.7703 7.93994C30.3803 7.93994 30.0403 8.15994 29.8703 8.50994L29.1703 9.98994L27.6403 10.2199C27.2703 10.2799 26.9703 10.5299 26.8503 10.8899C26.7303 11.2399 26.8203 11.6299 27.0803 11.8999L28.2203 13.0699ZM30.0003 11.8699C30.3303 11.8199 30.6103 11.6099 30.7503 11.3099L30.7703 11.2599L30.7903 11.3099C30.9303 11.6099 31.2103 11.8199 31.5403 11.8699L31.6903 11.8899L31.5503 12.0299C31.3303 12.2599 31.2303 12.5699 31.2803 12.8799L31.3003 13.0199L31.2503 12.9899C31.1003 12.9099 30.9403 12.8699 30.7703 12.8699C30.6003 12.8699 30.4403 12.9099 30.2903 12.9899L30.2403 13.0199L30.2603 12.8799C30.3103 12.5699 30.2103 12.2499 29.9903 12.0299L29.8503 11.8899L30.0003 11.8699Z" fill="#141414"/>
<path d="M24.8103 42.6801C24.2603 42.6801 23.8203 43.1201 23.8203 43.6701V55.5801C23.8203 56.1301 24.2603 56.5701 24.8103 56.5701H36.7203C37.2703 56.5701 37.7103 56.1301 37.7103 55.5801V43.6701C37.7103 43.1201 37.2703 42.6801 36.7203 42.6801H24.8103ZM29.7703 44.6601H31.7503V47.6401H29.7703V44.6601ZM35.7303 54.5901H25.8103V44.6701H27.7903V48.6401C27.7903 49.1901 28.2303 49.6301 28.7803 49.6301H32.7503C33.3003 49.6301 33.7403 49.1901 33.7403 48.6401V44.6701H35.7203V54.5901H35.7303Z" fill="#141414"/>
<path d="M60.5396 29.77H48.6297C48.0797 29.77 47.6396 30.21 47.6396 30.76V42.67C47.6396 43.22 48.0797 43.66 48.6297 43.66H60.5396C61.0897 43.66 61.5296 43.22 61.5296 42.67V30.76C61.5296 30.21 61.0897 29.77 60.5396 29.77ZM53.5896 31.76H55.5696V34.74H53.5896V31.76ZM59.5496 41.68H49.6297V31.76H51.6096V35.73C51.6096 36.28 52.0496 36.72 52.5996 36.72H56.5696C57.1196 36.72 57.5597 36.28 57.5597 35.73V31.76H59.5396V41.68H59.5496Z" fill="#141414"/>
<path d="M0.99 43.67H12.9C13.45 43.67 13.89 43.23 13.89 42.68V30.77C13.89 30.22 13.45 29.78 12.9 29.78H0.99C0.44 29.78 0 30.22 0 30.77V42.68C0 43.23 0.44 43.67 0.99 43.67ZM5.95 31.76H7.93V34.74H5.95V31.76ZM1.98 31.76H3.96V35.73C3.96 36.28 4.4 36.72 4.95 36.72H8.92C9.47 36.72 9.91 36.28 9.91 35.73V31.76H11.89V41.68H1.98V31.76Z" fill="#141414"/>
<path d="M20.0499 23.2599L19.6399 21.3199C15.0799 22.2799 11.1199 23.8899 8.16992 25.9899L9.31992 27.6099C12.0499 25.6699 15.7599 24.1699 20.0499 23.2699V23.2599Z" fill="#141414"/>
<path d="M54.1703 46.46L53.0203 44.84C49.9503 47.02 45.5103 48.68 40.5303 49.52L40.8603 51.48C46.2103 50.58 50.8203 48.84 54.1703 46.46Z" fill="#141414"/>
<path d="M7.37012 46.46C10.7301 48.84 15.3301 50.58 20.6801 51.48L21.0101 49.52C16.0201 48.68 11.5901 47.02 8.52012 44.84L7.37012 46.46Z" fill="#141414"/>
<path d="M42.4697 23.3C46.6897 24.21 50.3397 25.7 53.0197 27.61L54.1697 25.99C51.2697 23.93 47.3697 22.33 42.8897 21.36L42.4697 23.3Z" fill="#141414"/>
</g>
<defs>
<clipPath id="clip0_294_1732">
<rect width="61.53" height="56.57" fill="white"/>
</clipPath>
</defs>
</svg>
