<svg width="60" height="60" viewBox="0 0 60 60" fill="none" xmlns="http://www.w3.org/2000/svg">
<g clip-path="url(#clip0_294_2105)">
<path d="M54.77 51.25C54 51.18 53.27 51.51 52.82 52.13L51.56 53.87L50.3 52.13C49.84 51.5 49.11 51.17 48.34 51.25C45.22 51.56 43.2 53.65 43.2 56.57V59.03C43.2 59.56 43.63 60 44.17 60H59.04C59.57 60 60.01 59.57 60.01 59.03V56.57C60.01 53.59 58.01 51.55 54.78 51.25H54.77ZM58.06 58.06H45.13V56.57C45.13 53.81 47.51 53.28 48.53 53.17C48.62 53.17 48.68 53.19 48.73 53.26L50.77 56.08C50.95 56.33 51.24 56.48 51.55 56.48C51.86 56.48 52.15 56.33 52.33 56.08L54.38 53.26C54.43 53.19 54.49 53.16 54.58 53.17C55.62 53.27 58.05 53.79 58.05 56.57V58.06H58.06ZM33.18 51.25C32.41 51.18 31.68 51.51 31.23 52.13L29.97 53.87L28.71 52.13C28.25 51.5 27.52 51.17 26.75 51.25C23.63 51.56 21.61 53.65 21.61 56.57V59.03C21.61 59.56 22.04 60 22.58 60H37.45C37.98 60 38.42 59.57 38.42 59.03V56.57C38.42 53.59 36.42 51.55 33.2 51.25H33.18ZM36.47 58.06H23.54V56.57C23.54 53.81 25.92 53.28 26.94 53.17C27.03 53.17 27.09 53.19 27.14 53.26L29.18 56.08C29.36 56.33 29.65 56.48 29.96 56.48C30.27 56.48 30.56 56.33 30.74 56.08L32.79 53.26C32.84 53.19 32.9 53.16 32.99 53.17C34.03 53.27 36.46 53.79 36.46 56.57V58.06H36.47ZM11.58 51.25C10.81 51.18 10.08 51.51 9.63 52.13L8.37 53.87L7.11 52.13C6.65 51.5 5.92 51.17 5.15 51.25C2.02 51.56 0 53.65 0 56.57V59.03C0 59.56 0.43 60 0.97 60H15.84C16.37 60 16.81 59.57 16.81 59.03V56.57C16.81 53.59 14.81 51.55 11.59 51.25H11.58ZM14.87 58.06H1.94V56.57C1.94 53.81 4.32 53.28 5.34 53.17C5.43 53.17 5.49 53.19 5.54 53.26L7.58 56.08C7.76 56.33 8.05 56.48 8.36 56.48C8.67 56.48 8.96 56.33 9.14 56.08L11.19 53.26C11.24 53.19 11.3 53.16 11.39 53.17C12.43 53.27 14.86 53.79 14.86 56.57V58.06H14.87ZM59.03 31.33H41.44V26.14C41.44 22.8 38.72 20.08 35.38 20.08H24.55C21.46 20.08 18.95 22.59 18.95 25.68V31.33H0.97C0.44 31.33 0 31.76 0 32.3V45.61C0 46.14 0.43 46.58 0.97 46.58H3.76C3.86 49.05 5.91 51.03 8.4 51.03C10.89 51.03 12.94 49.05 13.04 46.58H25.35C25.45 49.05 27.5 51.03 29.99 51.03C32.48 51.03 34.53 49.05 34.63 46.58H46.94C47.04 49.05 49.09 51.03 51.58 51.03C54.07 51.03 56.12 49.05 56.22 46.58H59.01C59.54 46.58 59.98 46.15 59.98 45.61V32.3C59.98 31.77 59.55 31.33 59.01 31.33H59.03ZM39.5 26.14V31.33H36.76V29.39C36.76 28.86 36.33 28.42 35.79 28.42C35.25 28.42 34.82 28.85 34.82 29.39V31.33H31.69L33.49 27.39C33.63 27.09 33.6 26.73 33.42 26.46L34.1 26.21C34.5 26.06 34.76 25.68 34.74 25.25L34.58 22.02H35.38C37.65 22.02 39.51 23.87 39.51 26.14H39.5ZM27.74 22.01H29.23V24.34C29.23 24.87 29.66 25.31 30.2 25.31C30.74 25.31 31.17 24.88 31.17 24.34V22.01H32.64L32.77 24.62L31.54 25.07C31.25 25.18 31.03 25.41 30.94 25.7C30.85 25.99 30.91 26.31 31.09 26.56L31.49 27.1L30.19 29.96L28.89 27.1L29.29 26.57C29.47 26.33 29.53 26.01 29.44 25.71C29.35 25.41 29.13 25.18 28.84 25.08L27.61 24.63L27.74 22.01ZM20.88 25.67C20.88 23.65 22.52 22.01 24.54 22.01H25.8L25.64 25.24C25.62 25.66 25.88 26.05 26.28 26.2L26.96 26.45C26.78 26.73 26.75 27.08 26.89 27.38L28.69 31.32H25.73V29.38C25.73 28.85 25.3 28.41 24.76 28.41C24.22 28.41 23.79 28.84 23.79 29.38V31.32H20.88V25.67ZM8.4 49.08C6.9 49.08 5.69 47.86 5.69 46.37C5.69 44.88 6.91 43.66 8.4 43.66C9.89 43.66 11.11 44.88 11.11 46.37C11.11 47.86 9.89 49.08 8.4 49.08ZM30 49.08C28.5 49.08 27.29 47.86 27.29 46.37C27.29 44.88 28.51 43.66 30 43.66C31.49 43.66 32.71 44.88 32.71 46.37C32.71 47.86 31.49 49.08 30 49.08ZM51.6 49.08C50.1 49.08 48.89 47.86 48.89 46.37C48.89 44.88 50.11 43.66 51.6 43.66C53.09 43.66 54.31 44.88 54.31 46.37C54.31 47.86 53.09 49.08 51.6 49.08ZM58.06 44.63H55.9C55.21 42.93 53.54 41.72 51.59 41.72C49.64 41.72 47.97 42.92 47.28 44.63H34.3C33.61 42.93 31.94 41.72 29.99 41.72C28.04 41.72 26.37 42.92 25.68 44.63H12.7C12.01 42.93 10.34 41.72 8.39 41.72C6.44 41.72 4.77 42.92 4.08 44.63H1.94V33.26H58.07V44.63H58.06ZM30.19 19.42C33.36 19.42 35.94 16.84 35.94 13.67C35.94 10.5 33.36 7.92 30.19 7.92C27.02 7.92 24.44 10.5 24.44 13.67C24.44 16.84 27.02 19.42 30.19 19.42ZM30.19 9.86C32.29 9.86 34 11.57 34 13.67C34 15.77 32.29 17.48 30.19 17.48C28.09 17.48 26.38 15.77 26.38 13.67C26.38 11.57 28.09 9.86 30.19 9.86ZM3.63 13.91H13.11L18.36 17.32C18.52 17.42 18.7 17.48 18.89 17.48C19.11 17.48 19.32 17.41 19.5 17.26C19.83 17 19.95 16.55 19.8 16.16L18.81 13.57C20.05 12.98 20.91 11.71 20.91 10.28V3.63C20.91 1.63 19.28 0 17.28 0H3.63C1.63 0 0 1.63 0 3.63V10.28C0 12.28 1.63 13.91 3.63 13.91ZM1.94 3.63C1.94 2.7 2.7 1.94 3.63 1.94H17.27C18.2 1.94 18.96 2.7 18.96 3.63V10.28C18.96 11.14 18.29 11.89 17.43 11.97C17.13 12 16.86 12.17 16.7 12.42C16.54 12.67 16.51 12.99 16.62 13.28L16.93 14.08L13.93 12.13C13.77 12.03 13.59 11.97 13.4 11.97H3.63C2.7 11.97 1.94 11.21 1.94 10.28V3.63ZM4.92 5.28C4.92 4.75 5.35 4.31 5.89 4.31H14.96C15.49 4.31 15.93 4.74 15.93 5.28C15.93 5.82 15.5 6.25 14.96 6.25H5.89C5.36 6.25 4.92 5.82 4.92 5.28ZM15.98 8.64C15.98 9.17 15.55 9.61 15.01 9.61H5.94C5.41 9.61 4.97 9.18 4.97 8.64C4.97 8.1 5.4 7.67 5.94 7.67H15.01C15.54 7.67 15.98 8.1 15.98 8.64Z" fill="black"/>
</g>
<defs>
<clipPath id="clip0_294_2105">
<rect width="60" height="60" fill="white"/>
</clipPath>
</defs>
</svg>
