<svg width="60" height="59" viewBox="0 0 60 59" fill="none" xmlns="http://www.w3.org/2000/svg">
<g clip-path="url(#clip0_294_1713)">
<path d="M30.0005 14.82C32.3505 14.82 34.2705 12.91 34.2705 10.55C34.2705 8.19003 32.3605 6.28003 30.0005 6.28003C27.6405 6.28003 25.7305 8.19003 25.7305 10.55C25.7305 12.91 27.6405 14.82 30.0005 14.82ZM30.0005 8.11003C31.3505 8.11003 32.4505 9.21003 32.4505 10.56C32.4505 11.91 31.3505 13.01 30.0005 13.01C28.6505 13.01 27.5505 11.91 27.5505 10.56C27.5505 9.21003 28.6505 8.11003 30.0005 8.11003Z" fill="#141414"/>
<path d="M59.09 53.07H56.39V49.55C56.39 49.04 55.99 48.64 55.48 48.64H51.92V46.47C51.92 45.96 51.52 45.56 51.01 45.56H49.84V24.19H51.01C51.52 24.19 51.92 23.79 51.92 23.28V21.11H57.86C58.37 21.11 58.77 20.71 58.77 20.2V17.79C58.77 17.47 58.6 17.18 58.33 17.01L30.46 0.129995C30.17 -0.0500049 29.8 -0.0500049 29.52 0.129995L1.65 17.01C1.38 17.18 1.21 17.47 1.21 17.79V20.2C1.21 20.71 1.61 21.11 2.12 21.11H8.06V23.28C8.06 23.79 8.46 24.19 8.97 24.19H10.14V45.56H8.98C8.47 45.56 8.07 45.96 8.07 46.47V48.64H4.51C4 48.64 3.6 49.04 3.6 49.55V53.07H0.91C0.4 53.07 0 53.47 0 53.98V58.08C0 58.59 0.4 58.99 0.91 58.99H59.09C59.6 58.99 60 58.59 60 58.08V53.98C60 53.47 59.6 53.07 59.09 53.07ZM50.11 48.65H42.36V47.38H50.11V48.65ZM35.69 48.65V46.48C35.69 45.97 35.29 45.57 34.78 45.57H33.61V24.2H34.78C35.29 24.2 35.69 23.8 35.69 23.29V21.12H40.54V23.29C40.54 23.8 40.94 24.2 41.45 24.2H42.62V45.57H41.45C40.94 45.57 40.54 45.97 40.54 46.48V48.65H35.69ZM26.12 48.65V47.38H33.87V48.65H26.12ZM19.46 48.65V46.48C19.46 45.97 19.06 45.57 18.55 45.57H17.38V24.2H18.55C19.06 24.2 19.46 23.8 19.46 23.29V21.12H24.31V23.29C24.31 23.8 24.71 24.2 25.22 24.2H26.39V45.57H25.22C24.71 45.57 24.31 45.97 24.31 46.48V48.65H19.46ZM33.87 21.11V22.38H26.12V21.11H33.87ZM28.21 45.56V24.19H31.8V45.56H28.21ZM48.03 45.56H44.44V24.19H48.03V45.56ZM50.11 22.38H42.36V21.11H50.11V22.38ZM3.04 18.3L30 1.97L56.96 18.3V19.28H3.04V18.3ZM9.89 21.11H17.64V22.38H9.89V21.11ZM11.97 24.2H15.56V45.57H11.97V24.2ZM9.89 47.38H17.64V48.65H9.89V47.38ZM5.42 50.47H54.57V53.08H5.42V50.47ZM58.18 57.17H1.82V54.89H58.18V57.17Z" fill="#141414"/>
</g>
<defs>
<clipPath id="clip0_294_1713">
<rect width="60" height="58.99" fill="white"/>
</clipPath>
</defs>
</svg>
