<svg width="61" height="61" viewBox="0 0 61 61" fill="none" xmlns="http://www.w3.org/2000/svg">
<g clip-path="url(#clip0_294_1832)">
<path d="M35.9908 27.5399C36.4108 27.7799 36.9508 27.3799 36.8608 26.9099L35.7508 20.4399L40.4508 15.8599C40.6108 15.6999 40.6708 15.4599 40.6008 15.2499C40.5308 15.0299 40.3408 14.8799 40.1208 14.8399L33.6308 13.8999L30.7308 8.01994C30.6308 7.81994 30.4208 7.68994 30.1908 7.68994C29.9608 7.68994 29.7508 7.81994 29.6508 8.01994L26.7508 13.8999L20.2608 14.8399C20.0308 14.8699 19.8508 15.0299 19.7808 15.2499C19.7108 15.4699 19.7708 15.6999 19.9308 15.8599L24.6308 20.4399L23.5208 26.9099C23.4808 27.1299 23.5708 27.3599 23.7608 27.4999C23.9408 27.6299 24.1908 27.6499 24.3908 27.5499L30.2008 24.4999L36.0108 27.5499L35.9908 27.5399ZM24.8908 25.9199L25.8508 20.3399C25.8808 20.1499 25.8208 19.9499 25.6808 19.8099L21.6308 15.8599L27.2308 15.0499C27.4308 15.0199 27.5908 14.8999 27.6808 14.7199L30.1908 9.63994L32.7008 14.7199C32.7908 14.8999 32.9608 15.0199 33.1508 15.0499L38.7508 15.8599L34.7008 19.8099C34.5608 19.9499 34.4908 20.1499 34.5308 20.3399L35.4908 25.9199L30.4808 23.2899C30.3908 23.2399 30.3008 23.2199 30.2008 23.2199C30.1008 23.2199 30.0108 23.2399 29.9208 23.2899L24.9108 25.9199H24.8908Z" fill="white"/>
<path d="M36.2604 27.8599C36.1304 27.8599 35.9904 27.8299 35.8704 27.7599L30.1804 24.7699L24.4904 27.7599C24.2004 27.9099 23.8604 27.8899 23.6004 27.6999C23.3404 27.5099 23.2104 27.1899 23.2604 26.8699L24.3504 20.5299L19.7504 16.0399C19.5204 15.8099 19.4404 15.4799 19.5404 15.1699C19.6404 14.8699 19.9104 14.6399 20.2304 14.5899L26.5904 13.6699L29.4304 7.90994C29.5704 7.61994 29.8704 7.43994 30.1904 7.43994C30.5104 7.43994 30.8104 7.61994 30.9504 7.90994L33.7904 13.6699L40.1504 14.5899C40.4704 14.6399 40.7404 14.8599 40.8304 15.1699C40.9304 15.4799 40.8504 15.8099 40.6204 16.0399L36.0204 20.5299L37.1104 26.8699C37.1704 27.1799 37.0404 27.4999 36.7704 27.6999C36.6204 27.8099 36.4404 27.8699 36.2704 27.8699L36.2604 27.8599ZM30.1804 24.2099L36.1104 27.3299C36.2704 27.4199 36.4304 27.3299 36.4704 27.2999C36.5104 27.2699 36.6504 27.1499 36.6104 26.9699L35.4804 20.3699L40.2704 15.6999C40.3704 15.6099 40.4004 15.4699 40.3604 15.3399C40.3204 15.2199 40.2104 15.1199 40.0804 15.0999L33.4604 14.1399L30.5004 8.13994C30.3804 7.89994 29.9904 7.89994 29.8804 8.13994L26.9204 14.1399L20.3004 15.0999C20.1704 15.1199 20.0604 15.2099 20.0204 15.3399C19.9804 15.4699 20.0204 15.5999 20.1104 15.6999L24.9004 20.3699L23.7704 26.9699C23.7504 27.0999 23.8004 27.2299 23.9104 27.3099C24.0204 27.3899 24.1604 27.3999 24.2804 27.3399L30.2004 24.2299L30.1804 24.2099ZM35.8004 26.3799L30.3404 23.5099C30.2404 23.4599 30.1104 23.4599 30.0204 23.5099L24.5604 26.3799L25.6004 20.2999C25.6204 20.1899 25.5804 20.0699 25.5004 19.9899L21.0804 15.6799L27.1804 14.7899C27.2904 14.7699 27.3904 14.6999 27.4404 14.5999L30.1704 9.06994L32.9004 14.5999C32.9504 14.6999 33.0504 14.7699 33.1604 14.7899L39.2604 15.6799L34.8404 19.9899C34.7604 20.0699 34.7204 20.1899 34.7404 20.2999L35.7804 26.3799H35.8004ZM22.1604 16.0299L25.8504 19.6299C26.0504 19.8199 26.1404 20.1099 26.0904 20.3799L25.2204 25.4599L29.7804 23.0599C30.0204 22.9299 30.3204 22.9299 30.5704 23.0599L35.1304 25.4599L34.2604 20.3799C34.2104 20.0999 34.3004 19.8199 34.5004 19.6299L38.1904 16.0299L33.0904 15.2899C32.8104 15.2499 32.5704 15.0799 32.4504 14.8299L30.1704 10.2099L27.8904 14.8299C27.7704 15.0799 27.5304 15.2499 27.2504 15.2899L22.1504 16.0299H22.1604Z" fill="white"/>
<path d="M53.8599 34.4C55.4799 34.4 56.7899 33.08 56.7899 31.47C56.6299 27.58 51.0799 27.58 50.9199 31.47C50.9199 33.09 52.2399 34.4 53.8499 34.4H53.8599ZM53.8599 29.73C54.8199 29.73 55.5999 30.51 55.5999 31.47C55.4999 33.77 52.2199 33.77 52.1299 31.47C52.1299 30.51 52.9099 29.73 53.8699 29.73H53.8599Z" fill="white"/>
<path d="M53.8597 34.6501C52.0997 34.6501 50.6797 33.22 50.6797 31.47C50.7697 29.29 52.3897 28.3 53.8597 28.3C55.3297 28.3 56.9497 29.29 57.0397 31.46C57.0397 33.23 55.6097 34.6501 53.8597 34.6501ZM53.8597 28.7901C52.6197 28.7901 51.2497 29.63 51.1797 31.47C51.1797 32.94 52.3797 34.14 53.8597 34.14C55.3397 34.14 56.5397 32.94 56.5397 31.46C56.4597 29.63 55.0897 28.7901 53.8597 28.7901ZM53.8597 33.44C52.9397 33.44 51.9297 32.82 51.8697 31.47C51.8697 30.36 52.7597 29.47 53.8597 29.47C54.9597 29.47 55.8497 30.36 55.8497 31.46C55.7897 32.82 54.7797 33.44 53.8597 33.44ZM53.8597 29.98C53.0397 29.98 52.3697 30.65 52.3697 31.47C52.4097 32.49 53.1497 32.9501 53.8597 32.9501C54.5697 32.9501 55.2997 32.49 55.3497 31.46C55.3497 30.65 54.6797 29.98 53.8597 29.98Z" fill="white"/>
<path d="M57.9895 40.9C57.9895 40.03 57.3295 39.26 56.2395 38.8C58.2495 36.59 60.3795 33.35 60.2495 31.66C60.2495 28.14 57.3895 25.28 53.8695 25.28C50.3495 25.28 47.4895 28.14 47.4895 31.66C47.4895 33.12 48.5295 35.17 50.5295 37.65C48.3895 36.58 45.8595 35.68 43.0995 35.01C42.7795 34.93 42.4495 35.13 42.3795 35.45C42.2995 35.77 42.4995 36.1 42.8195 36.17C45.8695 36.91 48.6095 37.94 50.8295 39.15C50.1395 39.61 49.7595 40.19 49.7495 40.9C49.7495 43.03 53.3995 43.94 55.6995 43.2C59.1595 48.44 54.7595 52.96 47.5695 55.8C47.4795 55.76 47.3995 55.72 47.3095 55.68C48.5295 54.28 49.7395 52.74 50.5595 51.15C50.9195 50.43 51.2295 49.67 51.3095 48.87C51.5395 45.22 48.5095 42.14 44.9395 42.17C41.2995 42.13 38.1595 45.42 38.6095 49.14C39.0995 51.58 40.9495 53.78 42.5695 55.69C41.4895 56.12 40.4495 57.2 40.9495 58.43C42.0395 61.17 48.9395 60.93 49.0695 57.79C49.0695 57.38 48.9195 57 48.6595 56.66C56.1395 53.52 60.4195 48.49 56.8195 42.71C57.5495 42.25 57.9995 41.62 57.9995 40.91L57.9895 40.9ZM42.9095 43.77C44.6995 42.98 46.9795 43.37 48.4095 44.71C49.5695 45.76 50.3395 47.49 50.0395 49.15C49.3895 51.65 46.7295 54.59 44.9295 56.48C43.1595 54.64 40.2295 51.4 39.7695 48.92C39.5495 46.69 40.9295 44.61 42.9095 43.77ZM44.9295 59.14C43.1695 59.16 41.0295 58.13 42.4995 57.07C42.7795 56.88 43.0995 56.74 43.4295 56.64C44.0495 57.3 44.4895 57.73 44.5195 57.76C44.6395 57.87 44.7895 57.93 44.9395 57.93C45.0895 57.93 45.2395 57.87 45.3595 57.76C45.3895 57.73 45.8295 57.31 46.4495 56.64C46.9895 56.78 47.8895 57.26 47.8695 57.78C47.8695 58.42 46.6195 59.13 44.9395 59.13L44.9295 59.14ZM48.6795 31.66C48.9695 24.78 58.7695 24.78 59.0495 31.66C59.0495 33.54 56.5895 36.65 54.7595 38.65C54.4095 39.02 54.0895 39.37 53.8595 39.6C53.6295 39.37 53.3095 39.02 52.9595 38.65C51.1395 36.66 48.6695 33.55 48.6695 31.66H48.6795ZM50.9395 40.9C50.9695 40.32 51.8195 39.92 52.3595 39.76C52.9795 40.43 53.4195 40.85 53.4495 40.88C53.5695 40.99 53.7195 41.05 53.8695 41.05C54.0195 41.05 54.1695 40.99 54.2895 40.88C54.3195 40.85 54.7595 40.43 55.3795 39.76C57.6195 40.49 56.9395 41.68 55.0995 42.12C53.5595 42.54 50.9995 41.96 50.9495 40.9H50.9395Z" fill="white"/>
<path d="M44.9296 60.57C43.0996 60.57 41.2396 59.9 40.6896 58.52C40.4896 58.03 40.4996 57.51 40.6996 57.03C40.9496 56.45 41.4696 55.93 42.1396 55.59C40.6196 53.8 38.8296 51.6 38.3396 49.18C38.1196 47.36 38.7196 45.53 39.9796 44.13C41.2496 42.72 43.0196 41.91 44.8496 41.91C44.8896 41.91 44.9296 41.91 44.9696 41.91C46.7396 41.91 48.4796 42.67 49.7396 43.99C51.0096 45.33 51.6496 47.07 51.5396 48.88C51.4496 49.8 51.0796 50.63 50.7696 51.26C50.1296 52.52 49.1996 53.84 47.8696 55.4C52.5496 53.48 55.5696 50.98 56.3996 48.35C56.8996 46.77 56.6196 45.14 55.5796 43.49C53.9196 43.96 51.7896 43.65 50.5396 42.75C49.8596 42.25 49.4896 41.62 49.4896 40.9C49.4896 40.24 49.7896 39.67 50.3596 39.19C48.2196 38.07 45.5996 37.11 42.7496 36.41C42.2996 36.3 42.0196 35.84 42.1296 35.38C42.1796 35.16 42.3196 34.97 42.5096 34.86C42.6996 34.74 42.9296 34.71 43.1496 34.76C45.5396 35.34 47.7296 36.08 49.6796 36.97C48.0496 34.8 47.2296 33.02 47.2296 31.66C47.2296 28 50.2096 25.03 53.8596 25.03C57.5096 25.03 60.4896 28.01 60.4896 31.66C60.6096 33.32 58.6796 36.41 56.6396 38.71C57.6396 39.23 58.2296 40.03 58.2296 40.89C58.2296 41.6 57.8396 42.26 57.1396 42.77C58.3596 44.82 58.6496 46.87 58.0296 48.84C57.0696 51.85 53.8796 54.66 49.0196 56.75C49.2096 57.07 49.2996 57.42 49.2996 57.77C49.2396 59.13 48.0596 60.13 46.1396 60.46C45.7496 60.53 45.3396 60.56 44.9296 60.56V60.57ZM44.8596 42.41C43.1696 42.41 41.5296 43.16 40.3496 44.47C39.1896 45.76 38.6396 47.45 38.8396 49.11C39.3196 51.49 41.2196 53.73 42.7396 55.52L42.9696 55.79L42.6496 55.92C41.9696 56.19 41.3996 56.69 41.1696 57.23C41.0096 57.59 41.0096 57.97 41.1696 58.34C41.7396 59.77 44.1496 60.31 46.0696 59.99C47.7396 59.71 48.7696 58.88 48.8096 57.79C48.8096 57.46 48.6896 57.13 48.4496 56.82L48.2496 56.56L48.5496 56.43C53.4296 54.38 56.6196 51.64 57.5496 48.71C58.1496 46.81 57.8296 44.84 56.5896 42.85L56.4596 42.64L56.6696 42.51C57.3596 42.08 57.7396 41.52 57.7396 40.92C57.7396 40.17 57.1396 39.48 56.1396 39.05L55.8196 38.91L56.0596 38.65C58.0596 36.46 60.1196 33.28 60.0096 31.7C60.0096 28.3 57.2596 25.55 53.8796 25.55C50.4996 25.55 47.7496 28.3 47.7496 31.68C47.7496 33.07 48.7796 35.08 50.7396 37.51L51.4596 38.4L50.4296 37.89C48.2796 36.82 45.7996 35.94 43.0496 35.27C42.8596 35.23 42.6696 35.34 42.6296 35.53C42.5796 35.72 42.6996 35.91 42.8896 35.95C45.9396 36.69 48.7296 37.73 50.9596 38.96L51.3196 39.16L50.9796 39.39C50.3496 39.82 50.0196 40.34 50.0096 40.93C50.0096 41.48 50.2996 41.97 50.8496 42.37C52.0096 43.21 54.1096 43.48 55.6296 42.99L55.8096 42.93L55.9196 43.09C57.1296 44.92 57.4596 46.76 56.8996 48.53C55.9996 51.38 52.7196 54.06 47.6696 56.06L47.5696 56.1L46.9096 55.8L47.1296 55.55C48.6396 53.83 49.6596 52.4 50.3396 51.07C50.6296 50.49 50.9796 49.71 51.0596 48.88C51.1596 47.22 50.5696 45.62 49.3996 44.38C48.2296 43.14 46.6296 42.43 44.9496 42.45C44.9296 42.45 44.9096 42.45 44.8796 42.45L44.8596 42.41ZM44.8696 59.39C43.5896 59.39 42.0596 58.86 41.7896 58.05C41.6896 57.76 41.7096 57.32 42.3396 56.86C42.6196 56.66 42.9496 56.51 43.3396 56.39L43.4896 56.34L43.5996 56.45C44.1796 57.07 44.6196 57.5 44.6796 57.56C44.8096 57.69 45.0296 57.69 45.1696 57.56C45.2096 57.52 45.6396 57.11 46.2496 56.45L46.3496 56.34L46.4896 56.38C47.0296 56.52 48.1196 57.05 48.0996 57.77C48.0996 58.63 46.6496 59.37 44.9196 59.37C44.8996 59.37 44.8796 59.37 44.8696 59.37V59.39ZM43.3496 56.93C43.0696 57.03 42.8396 57.14 42.6396 57.28C42.3396 57.5 42.2096 57.71 42.2796 57.9C42.4496 58.42 43.7396 58.88 44.9296 58.89C46.4796 58.89 47.6096 58.23 47.6096 57.79C47.6096 57.5 47.0496 57.11 46.5096 56.93C45.9396 57.53 45.5596 57.91 45.5196 57.94C45.1996 58.25 44.6496 58.25 44.3396 57.94C44.3396 57.94 43.9496 57.57 43.3496 56.93ZM44.9296 56.84L44.7496 56.65C43.5796 55.44 40.0396 51.74 39.5296 48.96C39.3096 46.67 40.6596 44.45 42.8196 43.54C44.7196 42.71 47.0896 43.11 48.5896 44.53C49.9196 45.74 50.5896 47.57 50.2896 49.2C49.6496 51.68 47.1796 54.49 45.1096 56.66L44.9296 56.85V56.84ZM44.9096 43.61C44.2596 43.61 43.6096 43.74 43.0196 44C41.0596 44.83 39.8296 46.84 40.0296 48.9C40.4896 51.38 43.6496 54.78 44.9396 56.12C46.7896 54.17 49.2096 51.4 49.8096 49.09C50.0796 47.65 49.4696 46 48.2596 44.9C47.3696 44.06 46.1396 43.61 44.9196 43.61H44.9096ZM53.9296 42.51C52.9296 42.51 51.8596 42.25 51.2396 41.8C50.8896 41.55 50.6996 41.24 50.6796 40.91V40.89C50.7196 40.05 51.9096 39.63 52.2796 39.52L52.4296 39.48L52.5396 39.59C53.1196 40.21 53.5296 40.62 53.6096 40.69C53.7596 40.83 53.9696 40.83 54.1096 40.69C54.1896 40.61 54.6096 40.2 55.1896 39.58L55.2996 39.46L55.4496 39.51C56.7896 39.95 57.0496 40.52 57.0296 40.92C56.9996 41.54 56.2996 42.08 55.1396 42.35C54.7696 42.45 54.3596 42.5 53.9296 42.5V42.51ZM51.1896 40.9C51.1996 41.07 51.3196 41.23 51.5396 41.39C52.2896 41.94 53.9496 42.17 55.0196 41.87C56.0396 41.63 56.5196 41.2 56.5296 40.9C56.5396 40.61 56.1396 40.29 55.4396 40.04C54.9096 40.6 54.5396 40.97 54.4696 41.04C54.1296 41.37 53.5996 41.36 53.2796 41.05C53.1996 40.97 52.8196 40.6 52.2896 40.04C51.7496 40.23 51.2196 40.55 51.1896 40.9ZM53.8596 39.95L53.6796 39.77C53.5196 39.61 53.2996 39.38 53.0696 39.13L52.7796 38.82C51.1496 37.04 48.4296 33.75 48.4296 31.66C48.5796 27.94 51.3596 26.25 53.8696 26.25C56.3796 26.25 59.1496 27.94 59.3096 31.65C59.3096 33.75 56.5796 37.04 54.9596 38.82L54.6596 39.14C54.4296 39.39 54.2196 39.61 54.0496 39.77L53.8696 39.95H53.8596ZM48.9296 31.67C48.9296 33.66 51.8796 37.1 53.1496 38.48L53.4396 38.79C53.5896 38.95 53.7396 39.11 53.8696 39.24C53.9896 39.11 54.1396 38.96 54.2896 38.8L54.5896 38.48C55.8596 37.1 58.8096 33.66 58.8096 31.67C58.6696 28.3 56.1496 26.76 53.8696 26.76C51.5896 26.76 49.0796 28.3 48.9296 31.67Z" fill="white"/>
<path d="M44.9302 51.2799C46.5502 51.2799 47.8602 49.9599 47.8602 48.3499C47.7002 44.4599 42.1502 44.4599 41.9902 48.3499C41.9902 49.9699 43.3102 51.2799 44.9202 51.2799H44.9302ZM44.9302 46.6099C45.8902 46.6099 46.6702 47.3899 46.6702 48.3499C46.5702 50.6499 43.2902 50.6499 43.2002 48.3499C43.2002 47.3899 43.9802 46.6099 44.9402 46.6099H44.9302Z" fill="white"/>
<path d="M44.93 51.5299C43.17 51.5299 41.75 50.0999 41.75 48.3499C41.84 46.1699 43.46 45.1799 44.93 45.1799C46.4 45.1799 48.02 46.1699 48.11 48.3399C48.11 50.1099 46.68 51.5299 44.93 51.5299ZM44.93 45.6799C43.69 45.6799 42.32 46.5199 42.25 48.3599C42.25 49.8299 43.45 51.0299 44.93 51.0299C46.41 51.0299 47.61 49.8299 47.61 48.3499C47.53 46.5199 46.17 45.6799 44.93 45.6799ZM44.93 50.3199C44.01 50.3199 43 49.6999 42.94 48.3499C42.94 47.2399 43.83 46.3499 44.93 46.3499C46.03 46.3499 46.92 47.2399 46.92 48.3399C46.86 49.6999 45.85 50.3199 44.93 50.3199ZM44.93 46.8599C44.11 46.8599 43.44 47.5299 43.44 48.3499C43.48 49.3699 44.22 49.8299 44.93 49.8299C45.64 49.8299 46.37 49.3699 46.42 48.3399C46.42 47.5299 45.75 46.8599 44.93 46.8599Z" fill="white"/>
<path d="M6.63043 34.4C8.25043 34.4 9.56043 33.08 9.56043 31.47C9.40043 27.58 3.85043 27.58 3.69043 31.47C3.69043 33.09 5.01043 34.4 6.62043 34.4H6.63043ZM6.63043 29.73C7.59043 29.73 8.37043 30.51 8.37043 31.47C8.27043 33.77 4.99043 33.77 4.90043 31.47C4.90043 30.51 5.68043 29.73 6.64043 29.73H6.63043Z" fill="white"/>
<path d="M6.6302 34.6501C4.8702 34.6501 3.4502 33.22 3.4502 31.47C3.5402 29.29 5.1602 28.3 6.6302 28.3C8.1002 28.3 9.7202 29.29 9.8102 31.46C9.8102 33.23 8.3802 34.6501 6.6302 34.6501ZM6.6302 28.7901C5.3902 28.7901 4.0202 29.63 3.9502 31.47C3.9502 32.94 5.1502 34.14 6.6302 34.14C8.1102 34.14 9.3102 32.94 9.3102 31.46C9.2302 29.63 7.8702 28.7901 6.6302 28.7901ZM6.6302 33.44C5.7102 33.44 4.7002 32.82 4.6402 31.47C4.6402 30.36 5.5302 29.47 6.6302 29.47C7.7302 29.47 8.6202 30.36 8.6202 31.46C8.5602 32.82 7.5502 33.44 6.6302 33.44ZM6.6302 29.98C5.8102 29.98 5.1402 30.65 5.1402 31.47C5.1802 32.49 5.9202 32.9501 6.6302 32.9501C7.3402 32.9501 8.0702 32.49 8.1202 31.46C8.1202 30.65 7.4502 29.98 6.6302 29.98Z" fill="white"/>
<path d="M15.5699 51.2799C17.1899 51.2799 18.4999 49.9599 18.4999 48.3499C18.3399 44.4599 12.7899 44.4599 12.6299 48.3499C12.6299 49.9699 13.9499 51.2799 15.5599 51.2799H15.5699ZM15.5699 46.6099C16.5299 46.6099 17.3099 47.3899 17.3099 48.3499C17.2099 50.6499 13.9299 50.6499 13.8399 48.3499C13.8399 47.3899 14.6199 46.6099 15.5799 46.6099H15.5699Z" fill="white"/>
<path d="M15.5696 51.5299C13.8096 51.5299 12.3896 50.0999 12.3896 48.3499C12.4796 46.1699 14.0996 45.1799 15.5696 45.1799C17.0396 45.1799 18.6596 46.1699 18.7496 48.3399C18.7496 50.1099 17.3196 51.5299 15.5696 51.5299ZM15.5696 45.6799C14.3296 45.6799 12.9596 46.5199 12.8896 48.3599C12.8896 49.8299 14.0896 51.0299 15.5696 51.0299C17.0496 51.0299 18.2496 49.8299 18.2496 48.3499C18.1696 46.5199 16.8096 45.6799 15.5696 45.6799ZM15.5696 50.3199C14.6496 50.3199 13.6396 49.6999 13.5796 48.3499C13.5796 47.2399 14.4696 46.3499 15.5696 46.3499C16.6696 46.3499 17.5596 47.2399 17.5596 48.3399C17.4996 49.6999 16.4896 50.3199 15.5696 50.3199ZM15.5696 46.8599C14.7496 46.8599 14.0796 47.5299 14.0796 48.3499C14.1196 49.3699 14.8596 49.8299 15.5696 49.8299C16.2796 49.8299 17.0096 49.3699 17.0596 48.3399C17.0596 47.5299 16.3896 46.8599 15.5696 46.8599Z" fill="white"/>
<path d="M38.37 58.13C32.38 59.01 25.54 58.88 19.69 57.71C19.65 56.73 18.79 56.03 17.94 55.67C19.56 53.77 21.41 51.56 21.9 49.12C22.34 45.4 19.21 42.11 15.57 42.15C12.01 42.12 8.97 45.21 9.2 48.85C9.28 49.65 9.59 50.41 9.95 51.13C10.76 52.72 11.98 54.27 13.2 55.66C13.11 55.7 13.03 55.74 12.94 55.78C5.76 52.94 1.34 48.43 4.81 43.18C7.11 43.93 10.75 43.01 10.76 40.88C10.76 40.18 10.37 39.6 9.68 39.13C12.61 37.52 16.36 36.29 20.63 35.53C22.76 38.22 25.17 40.89 26.87 42.7C28.44 44.37 29.46 45.37 29.83 45.73C30.03 45.92 30.34 45.95 30.57 45.8C30.65 45.75 30.71 45.68 30.79 45.6C31.12 45.28 32.07 44.34 33.35 42.98C38.29 44.86 34.94 48.15 30.25 48.1C27.24 48.1 24.7 46.81 24.7 45.29C24.7 44.73 25.06 44.28 25.37 43.99C25.61 43.76 25.62 43.39 25.4 43.14C25.17 42.9 24.8 42.89 24.55 43.11C23.87 43.75 23.5 44.5 23.5 45.28C23.71 50.59 36.78 50.58 36.99 45.28C36.99 43.97 35.95 42.77 34.23 42.03C40.19 35.84 48.91 24.38 48.51 18.47C48.51 8.39996 40.32 0.209961 30.25 0.209961C20.18 0.209961 11.98 8.43996 11.98 18.51C11.98 22.42 14.61 27.79 19.79 34.49C16.06 35.2 12.72 36.27 9.97 37.64C11.97 35.16 13.01 33.12 13.01 31.66C13.01 28.14 10.15 25.28 6.63 25.28C3.11 25.28 0.25 28.15 0.25 31.66C0.25 33.13 1.27 35.13 3.27 37.62C3.61 38.04 3.94 38.43 4.26 38.79C2.25 39.61 1.86 41.57 3.69 42.7C0.1 48.48 4.37 53.5 11.85 56.65C11.59 56.99 11.44 57.38 11.44 57.78C11.57 60.75 17.74 61.12 19.31 58.86C25.33 60.08 32.36 60.22 38.53 59.32C39.31 59.18 39.15 58.05 38.36 58.14L38.37 58.13ZM30.25 1.44996C39.66 1.44996 47.32 9.10996 47.32 18.52C47.32 27.09 32.91 41.85 30.25 44.49C27.6 41.85 13.18 27.09 13.18 18.52C13.18 9.09996 20.84 1.44996 30.25 1.44996ZM1.45 31.66C1.74 24.78 11.54 24.78 11.82 31.66C11.82 33.54 9.36 36.65 7.53 38.65C7.18 39.02 6.86 39.37 6.63 39.6C6.4 39.37 6.08 39.02 5.73 38.65C3.91 36.66 1.44 33.54 1.44 31.66H1.45ZM5.13 39.76C5.75 40.43 6.19 40.85 6.22 40.88C6.34 40.99 6.49 41.05 6.64 41.05C6.79 41.05 6.94 40.99 7.06 40.88C7.09 40.85 7.53 40.43 8.15 39.76C11.35 40.84 8.48 42.57 5.96 42.22C4.1 42.01 2.45 40.67 5.15 39.76H5.13ZM13.55 43.77C15.34 42.98 17.62 43.37 19.05 44.71C20.21 45.76 20.98 47.49 20.68 49.15C20.04 51.65 17.37 54.59 15.57 56.48C13.8 54.63 10.87 51.4 10.41 48.92C10.19 46.69 11.57 44.61 13.55 43.77ZM15.57 59.14C13.9 59.14 12.64 58.42 12.64 57.79C12.62 57.27 13.52 56.79 14.06 56.65C14.68 57.32 15.12 57.74 15.15 57.77C15.27 57.88 15.42 57.94 15.57 57.94C15.72 57.94 15.87 57.88 15.99 57.77C16.02 57.74 16.46 57.32 17.08 56.65C17.41 56.75 17.73 56.89 18.01 57.08C19.48 58.14 17.34 59.17 15.58 59.15L15.57 59.14Z" fill="white"/>
<path d="M15.56 60.57C14.9 60.57 14.24 60.48 13.66 60.31C12.15 59.87 11.25 58.95 11.2 57.79C11.2 57.43 11.3 57.08 11.48 56.76C6.62 54.66 3.43 51.86 2.47 48.85C1.84 46.87 2.14 44.83 3.35 42.78C2.6 42.24 2.21 41.52 2.27 40.75C2.34 39.92 2.92 39.18 3.85 38.71C3.6 38.42 3.34 38.11 3.08 37.78C1.04 35.24 0 33.18 0 31.66C0 28 2.98 25.03 6.63 25.03C10.28 25.03 13.26 28.01 13.26 31.66C13.26 33.01 12.44 34.79 10.82 36.96C13.3 35.84 16.16 34.95 19.34 34.32C14.29 27.72 11.72 22.41 11.72 18.51C11.73 8.31 20.04 0 30.25 0C40.46 0 48.76 8.31 48.76 18.51C49.16 24.48 40.63 35.71 34.65 41.99C36.28 42.78 37.24 44.01 37.24 45.32C37.12 48.23 33.53 49.55 30.25 49.55C26.96 49.55 23.37 48.23 23.26 45.33C23.26 44.47 23.65 43.65 24.38 42.96C24.72 42.64 25.26 42.66 25.58 43C25.73 43.17 25.82 43.38 25.81 43.61C25.81 43.84 25.71 44.05 25.54 44.2C25.27 44.45 24.95 44.85 24.95 45.31C24.95 46.67 27.43 47.87 30.25 47.87C30.29 47.87 30.33 47.87 30.37 47.87C33.19 47.87 35.3 46.65 35.53 45.5C35.68 44.69 34.94 43.91 33.43 43.3C32.15 44.65 31.23 45.55 30.98 45.8C30.87 45.9 30.81 45.97 30.73 46.02C30.4 46.23 29.96 46.19 29.68 45.92L29.63 45.87C29.25 45.49 28.23 44.49 26.71 42.88C25.68 41.79 23.04 38.93 20.55 35.81C16.55 36.53 12.97 37.69 10.16 39.17C10.73 39.65 11.02 40.22 11.03 40.88C11.03 41.6 10.66 42.24 9.98 42.73C8.73 43.63 6.6 43.94 4.94 43.47C3.9 45.12 3.62 46.75 4.12 48.33C4.95 50.96 7.97 53.46 12.65 55.38C11.32 53.82 10.39 52.49 9.75 51.24C9.44 50.62 9.07 49.78 8.98 48.87C8.87 47.06 9.5 45.32 10.78 43.98C12.04 42.65 13.77 41.89 15.55 41.89C15.59 41.89 15.63 41.89 15.67 41.89C17.5 41.89 19.27 42.7 20.54 44.11C21.8 45.51 22.39 47.34 22.18 49.14C21.69 51.58 19.89 53.77 18.37 55.57C19.26 56.03 19.83 56.72 19.95 57.49C25.69 58.61 32.39 58.75 38.36 57.87C38.9 57.81 39.25 58.18 39.31 58.59C39.37 59 39.15 59.46 38.6 59.55C32.37 60.47 25.4 60.31 19.44 59.13C18.66 60.1 17.1 60.56 15.57 60.56L15.56 60.57ZM6.63 25.53C3.25 25.53 0.5 28.28 0.5 31.66C0.5 33.07 1.5 35.02 3.47 37.47C3.8 37.88 4.14 38.28 4.45 38.63L4.68 38.89L4.35 39.02C3.42 39.4 2.82 40.06 2.76 40.78C2.71 41.43 3.08 42.03 3.81 42.48L4.02 42.61L3.89 42.82C2.65 44.81 2.33 46.79 2.93 48.68C3.86 51.61 7.06 54.35 11.93 56.4L12.23 56.53L12.03 56.79C11.79 57.1 11.67 57.43 11.67 57.77C11.72 59.04 13.01 59.6 13.77 59.82C15.56 60.34 18.18 60.01 19.09 58.71L19.18 58.58L19.34 58.61C25.28 59.81 32.26 59.98 38.48 59.06C38.73 59.02 38.79 58.82 38.77 58.66C38.75 58.51 38.63 58.34 38.38 58.37C32.29 59.27 25.45 59.11 19.62 57.95L19.43 57.91V57.71C19.37 56.63 18.19 56.05 17.83 55.89L17.52 55.76L17.74 55.5C19.26 53.71 21.16 51.47 21.65 49.07C21.84 47.43 21.29 45.74 20.13 44.45C18.94 43.12 17.26 42.35 15.56 42.39H15.51C13.86 42.39 12.26 43.09 11.1 44.32C9.92 45.56 9.33 47.16 9.44 48.83C9.52 49.65 9.87 50.43 10.16 51.01C10.84 52.34 11.86 53.77 13.37 55.49L13.59 55.74L12.93 56.04L12.83 56C7.78 54 4.5 51.33 3.6 48.47C3.04 46.69 3.37 44.86 4.58 43.03L4.69 42.87L4.87 42.93C6.39 43.42 8.49 43.15 9.65 42.31C10.21 41.91 10.49 41.42 10.49 40.87C10.49 40.28 10.16 39.76 9.52 39.33L9.18 39.1L9.54 38.9C12.48 37.28 16.3 36.03 20.57 35.28L20.72 35.25L20.81 35.37C23.31 38.52 26 41.42 27.04 42.53C28.55 44.13 29.56 45.13 29.94 45.5L29.99 45.55C30.1 45.66 30.28 45.68 30.42 45.59C30.47 45.56 30.51 45.51 30.56 45.46C30.86 45.17 31.81 44.23 33.15 42.81L33.27 42.69L33.43 42.75C35.95 43.71 36.12 44.93 36 45.57C35.71 47.12 33.18 48.35 30.35 48.35C30.31 48.35 30.27 48.35 30.23 48.35C27.04 48.35 24.44 46.98 24.44 45.29C24.44 44.64 24.85 44.13 25.19 43.81C25.26 43.75 25.3 43.66 25.3 43.57C25.3 43.48 25.27 43.39 25.21 43.32C25.08 43.18 24.86 43.17 24.72 43.3C24.09 43.89 23.75 44.58 23.75 45.29C23.85 47.85 27.19 49.02 30.24 49.02C33.3 49.02 36.63 47.85 36.73 45.28C36.73 44.1 35.75 42.97 34.12 42.27L33.79 42.13L34.04 41.87C39.74 35.95 48.64 24.36 48.25 18.5C48.25 8.55 40.17 0.47 30.23 0.47C20.29 0.47 12.23 8.58 12.23 18.51C12.23 22.36 14.84 27.68 19.99 34.34L20.24 34.66L19.84 34.74C16.11 35.45 12.83 36.5 10.09 37.87L9.06 38.38L9.78 37.48C11.74 35.06 12.77 33.04 12.76 31.66C12.76 28.28 10.01 25.53 6.63 25.53ZM15.62 59.39C15.62 59.39 15.58 59.39 15.57 59.39C13.85 59.39 12.39 58.65 12.39 57.79C12.37 57.07 13.46 56.55 14 56.4L14.14 56.36L14.24 56.47C14.85 57.13 15.28 57.54 15.32 57.58C15.45 57.71 15.67 57.71 15.8 57.58C15.86 57.52 16.3 57.1 16.88 56.47L16.99 56.36L17.14 56.41C17.53 56.53 17.86 56.68 18.14 56.87C18.77 57.33 18.79 57.77 18.69 58.06C18.42 58.87 16.9 59.39 15.61 59.39H15.62ZM13.99 56.92C13.46 57.1 12.89 57.49 12.89 57.77C12.89 58.22 14.01 58.88 15.57 58.88C16.77 58.88 18.05 58.41 18.22 57.89C18.28 57.7 18.16 57.49 17.85 57.27C17.65 57.13 17.42 57.02 17.14 56.92C16.54 57.56 16.15 57.93 16.15 57.93C15.84 58.23 15.29 58.24 14.98 57.93C14.94 57.89 14.55 57.52 13.99 56.92ZM15.57 56.84L15.39 56.65C14.22 55.44 10.68 51.74 10.17 48.96C9.95 46.67 11.3 44.45 13.46 43.54C15.36 42.71 17.73 43.11 19.23 44.53C20.56 45.74 21.23 47.57 20.93 49.2C20.29 51.68 17.83 54.49 15.75 56.66L15.57 56.85V56.84ZM15.55 43.61C14.9 43.61 14.25 43.74 13.66 44C11.7 44.83 10.47 46.84 10.67 48.89C11.13 51.38 14.29 54.77 15.58 56.11C17.43 54.16 19.86 51.39 20.45 49.08C20.72 47.64 20.11 45.98 18.9 44.89C18.01 44.05 16.78 43.6 15.56 43.6L15.55 43.61ZM30.25 44.84L30.07 44.66C27.21 41.81 12.93 27.15 12.93 18.51C12.93 8.97 20.7 1.2 30.25 1.2C39.8 1.2 47.57 8.97 47.57 18.52C47.57 27.16 33.29 41.82 30.43 44.67L30.25 44.85V44.84ZM30.25 1.7C20.98 1.7 13.43 9.24 13.43 18.52C13.43 26.79 27.05 40.93 30.25 44.14C33.45 40.93 47.07 26.8 47.07 18.52C47.07 9.25 39.53 1.7 30.25 1.7ZM6.64 42.51C6.4 42.51 6.15 42.49 5.91 42.46C4.79 42.34 3.55 41.77 3.47 40.97C3.43 40.56 3.67 39.98 5.05 39.51L5.2 39.46L5.31 39.58C5.89 40.2 6.31 40.61 6.38 40.68C6.53 40.82 6.74 40.82 6.88 40.68C6.96 40.6 7.38 40.19 7.96 39.57L8.07 39.45L8.22 39.5C9.7 40 9.89 40.62 9.78 41.06C9.59 41.87 8.14 42.49 6.63 42.49L6.64 42.51ZM5.06 40.05C4.34 40.32 3.93 40.64 3.97 40.93C4.01 41.32 4.85 41.85 5.98 41.97C7.63 42.2 9.17 41.53 9.3 40.97C9.37 40.67 8.97 40.33 8.21 40.05C7.68 40.61 7.31 40.98 7.24 41.05C6.9 41.38 6.37 41.37 6.05 41.06C5.97 40.98 5.59 40.61 5.06 40.05ZM6.63 39.95L6.45 39.77C6.28 39.6 6.07 39.37 5.83 39.12L5.55 38.82C3.92 37.04 1.2 33.75 1.2 31.66C1.35 27.94 4.13 26.25 6.64 26.25C9.15 26.25 11.92 27.94 12.08 31.65C12.08 33.75 9.35 37.04 7.73 38.81L7.41 39.15C7.18 39.39 6.98 39.61 6.82 39.77L6.64 39.95H6.63ZM1.7 31.67C1.7 33.66 4.65 37.1 5.92 38.48L6.2 38.78C6.36 38.95 6.51 39.11 6.64 39.24C6.76 39.11 6.9 38.97 7.04 38.81L7.36 38.48C8.63 37.1 11.58 33.66 11.58 31.67C11.44 28.3 8.92 26.76 6.64 26.76C4.36 26.76 1.85 28.3 1.7 31.67Z" fill="white"/>
</g>
<defs>
<clipPath id="clip0_294_1832">
<rect width="60.5" height="60.57" fill="white"/>
</clipPath>
</defs>
</svg>
