<svg width="60" height="50" viewBox="0 0 60 50" fill="none" xmlns="http://www.w3.org/2000/svg">
<g clip-path="url(#clip0_294_1720)">
<path d="M35.9902 14.01H24.0102C23.4502 14.01 22.9902 13.56 22.9902 12.99V1.02C22.9902 0.46 23.4402 0 24.0102 0H35.9902C36.5502 0 37.0102 0.45 37.0102 1.02V13C37.0102 13.56 36.5602 14.02 35.9902 14.02V14.01ZM25.0302 11.98H34.9802V2.03H25.0302V11.98Z" fill="#141414"/>
<path d="M12.99 49.64H1.02C0.46 49.64 0 49.19 0 48.62V36.64C0 36.08 0.45 35.62 1.02 35.62H13C13.56 35.62 14.02 36.07 14.02 36.64V48.62C14.02 49.18 13.57 49.64 13 49.64H12.99ZM2.03 47.61H11.98V37.66H2.03V47.61Z" fill="#141414"/>
<path d="M35.9902 49.64H24.0102C23.4502 49.64 22.9902 49.19 22.9902 48.62V36.64C22.9902 36.08 23.4402 35.62 24.0102 35.62H35.9902C36.5502 35.62 37.0102 36.07 37.0102 36.64V48.62C37.0102 49.18 36.5602 49.64 35.9902 49.64ZM25.0302 47.61H34.9802V37.66H25.0302V47.61Z" fill="#141414"/>
<path d="M58.9805 49.64H47.0005C46.4405 49.64 45.9805 49.19 45.9805 48.62V36.64C45.9805 36.08 46.4305 35.62 47.0005 35.62H58.9805C59.5405 35.62 60.0005 36.07 60.0005 36.64V48.62C60.0005 49.18 59.5505 49.64 58.9805 49.64ZM48.0205 47.61H57.9705V37.66H48.0205V47.61Z" fill="#141414"/>
<path d="M28.9902 16.83H31.0202V24.82H28.9902V16.83Z" fill="#141414"/>
<path d="M28.9805 24.8199H31.0105V32.8099H28.9805V24.8199Z" fill="#141414"/>
<path d="M54.0102 32.8101H51.9802V25.83H8.02024V32.8101H5.99023V24.82C5.99023 24.26 6.44023 23.8 7.01023 23.8H53.0002C53.5602 23.8 54.0202 24.25 54.0202 24.82V32.8101H54.0102Z" fill="#141414"/>
</g>
<defs>
<clipPath id="clip0_294_1720">
<rect width="60" height="49.64" fill="white"/>
</clipPath>
</defs>
</svg>
