<svg width="65" height="65" viewBox="0 0 65 65" fill="none" xmlns="http://www.w3.org/2000/svg">
<g clip-path="url(#clip0_294_1961)">
<path d="M35.1797 45.52H37.2497V47.59H35.1797V45.52Z" fill="black"/>
<path d="M31.04 45.52H33.11V47.59H31.04V45.52Z" fill="black"/>
<path d="M26.9004 45.52H28.9704V47.59H26.9004V45.52Z" fill="black"/>
<path d="M47.59 0C42.38 0 37.72 2.43 34.69 6.21H5.17C2.32 6.21 0 8.53 0 11.38V46.56C0 49.41 2.32 51.73 5.17 51.73H22.47L20.92 57.94H16.55C14.84 57.94 13.45 59.33 13.45 61.04V64.14H50.7V61.04C50.7 59.33 49.31 57.94 47.6 57.94H43.23L41.68 51.73H58.98C61.83 51.73 64.15 49.41 64.15 46.56V16.56C64.15 7.43 56.72 0.01 47.6 0.01L47.59 0ZM35.12 41.39C34.6 36.74 30.65 33.11 25.87 33.11C21.09 33.11 17.14 36.74 16.62 41.39H12.42V40.13L14.85 39.53L15.03 38.98C15.22 38.39 15.47 37.79 15.78 37.19L16.05 36.67L14.75 34.52L17.99 31.28L20.14 32.58L20.66 32.31C21.25 32 21.85 31.75 22.44 31.56L22.99 31.39L23.59 28.96H28.18L28.78 31.39L29.33 31.56C29.92 31.75 30.52 32 31.11 32.31L31.63 32.58L33.78 31.28L37.02 34.52L35.72 36.67L35.99 37.19C36.3 37.78 36.55 38.38 36.74 38.97L36.91 39.52L39.34 40.12V41.38H35.14L35.12 41.39ZM33.03 41.39H18.71C19.21 37.89 22.23 35.18 25.87 35.18C29.51 35.18 32.52 37.88 33.03 41.39ZM38.49 37.79C38.36 37.45 38.22 37.1 38.06 36.76L39.6 34.21L34.06 28.67L31.51 30.21C31.17 30.05 30.82 29.91 30.48 29.78L29.77 26.89H21.94L21.23 29.78C20.89 29.91 20.54 30.05 20.2 30.21L17.65 28.67L12.11 34.21L13.65 36.76C13.49 37.1 13.35 37.45 13.22 37.79L10.33 38.5V41.38H6.19V12.42H31.57C31.23 13.75 31.02 15.13 31.02 16.56V17.59H33.14C33.67 25.09 39.93 31.04 47.57 31.04C51.62 31.04 55.29 29.36 57.92 26.67V41.38H41.37V38.5L38.48 37.79H38.49ZM34.57 10.23L36.37 11.27C35.75 12.58 35.35 14.01 35.22 15.52H33.14C33.27 13.63 33.77 11.85 34.56 10.23H34.57ZM47.59 28.97C41.09 28.97 35.76 23.95 35.23 17.59H37.25V16.56C37.25 10.86 41.89 6.21 47.6 6.21C53.31 6.21 57.95 10.85 57.95 16.56V17.59H59.97C59.44 23.95 54.1 28.97 47.61 28.97H47.59ZM48.63 4.19V2.12C50.51 2.25 52.3 2.75 53.92 3.54L52.88 5.34C51.57 4.72 50.14 4.32 48.63 4.2V4.19ZM46.56 4.19C45.05 4.32 43.62 4.72 42.31 5.33L41.27 3.53C42.89 2.74 44.67 2.25 46.56 2.11V4.18V4.19ZM59.97 15.52C59.84 14.01 59.44 12.58 58.82 11.27L60.62 10.23C61.41 11.85 61.91 13.64 62.04 15.52H59.96H59.97ZM59.57 8.44L57.78 9.48C56.94 8.27 55.88 7.22 54.67 6.37L55.71 4.57C57.23 5.6 58.54 6.92 59.58 8.44H59.57ZM39.48 4.57L40.52 6.37C39.31 7.21 38.26 8.27 37.41 9.48L35.62 8.44C36.65 6.92 37.96 5.6 39.49 4.57H39.48ZM48.63 61.04V62.07H15.52V61.04C15.52 60.47 15.98 60.01 16.55 60.01H47.59C48.16 60.01 48.62 60.47 48.62 61.04H48.63ZM41.1 57.94H23.06L24.61 51.73H39.55L41.1 57.94ZM62.08 46.56C62.08 48.27 60.69 49.66 58.98 49.66H5.17C3.46 49.66 2.07 48.27 2.07 46.56V11.38C2.07 9.67 3.46 8.28 5.17 8.28H33.28C32.9 8.94 32.55 9.63 32.26 10.35H6.21C5.07 10.35 4.14 11.28 4.14 12.42V41.39C4.14 42.53 5.07 43.46 6.21 43.46H57.94C59.08 43.46 60.01 42.53 60.01 41.39V23.98C61.15 22.09 61.86 19.92 62.03 17.59H62.08V46.56Z" fill="black"/>
<path d="M48.6302 18.81V8.27002H46.5602V18.81C45.3602 19.24 44.4902 20.38 44.4902 21.72C44.4902 23.06 45.3602 24.21 46.5602 24.63V26.89H48.6302V24.63C49.8302 24.2 50.7002 23.06 50.7002 21.72C50.7002 20.38 49.8302 19.23 48.6302 18.81ZM47.5902 22.76C47.0202 22.76 46.5602 22.3 46.5602 21.73C46.5602 21.16 47.0202 20.7 47.5902 20.7C48.1602 20.7 48.6202 21.16 48.6202 21.73C48.6202 22.3 48.1602 22.76 47.5902 22.76Z" fill="black"/>
<path d="M11.3803 18.6201C9.67027 18.6201 8.28027 20.0101 8.28027 21.7201C8.28027 23.4301 9.67027 24.8201 11.3803 24.8201C13.0903 24.8201 14.4803 23.4301 14.4803 21.7201C14.4803 20.0101 13.0903 18.6201 11.3803 18.6201ZM11.3803 22.7601C10.8103 22.7601 10.3503 22.3001 10.3503 21.7301C10.3503 21.1601 10.8103 20.7001 11.3803 20.7001C11.9503 20.7001 12.4103 21.1601 12.4103 21.7301C12.4103 22.3001 11.9503 22.7601 11.3803 22.7601Z" fill="black"/>
<path d="M19.6596 18.6201C17.9496 18.6201 16.5596 20.0101 16.5596 21.7201C16.5596 23.4301 17.9496 24.8201 19.6596 24.8201C21.3696 24.8201 22.7596 23.4301 22.7596 21.7201C22.7596 20.0101 21.3696 18.6201 19.6596 18.6201ZM19.6596 22.7601C19.0896 22.7601 18.6296 22.3001 18.6296 21.7301C18.6296 21.1601 19.0896 20.7001 19.6596 20.7001C20.2296 20.7001 20.6896 21.1601 20.6896 21.7301C20.6896 22.3001 20.2296 22.7601 19.6596 22.7601Z" fill="black"/>
<path d="M27.9398 18.6201C26.2298 18.6201 24.8398 20.0101 24.8398 21.7201C24.8398 23.4301 26.2298 24.8201 27.9398 24.8201C29.6498 24.8201 31.0398 23.4301 31.0398 21.7201C31.0398 20.0101 29.6498 18.6201 27.9398 18.6201ZM27.9398 22.7601C27.3698 22.7601 26.9098 22.3001 26.9098 21.7301C26.9098 21.1601 27.3698 20.7001 27.9398 20.7001C28.5098 20.7001 28.9698 21.1601 28.9698 21.7301C28.9698 22.3001 28.5098 22.7601 27.9398 22.7601Z" fill="black"/>
<path d="M53.7998 37.25H55.8698V39.32H53.7998V37.25Z" fill="black"/>
<path d="M43.4502 37.25H51.7302V39.32H43.4502V37.25Z" fill="black"/>
<path d="M43.4502 33.1099H55.8702V35.1799H43.4502V33.1099Z" fill="black"/>
<path d="M52.8703 13.2802C53.1603 13.7502 53.3904 14.2602 53.5504 14.7802L55.5303 14.1902C55.3203 13.4902 55.0203 12.8102 54.6203 12.1802L52.8604 13.2702L52.8703 13.2802Z" fill="black"/>
<path d="M51.14 9.06982L50.25 10.9398C50.78 11.1898 51.28 11.5198 51.72 11.9198L53.1 10.3798C52.51 9.84982 51.85 9.40982 51.14 9.07982V9.06982Z" fill="black"/>
<path d="M12.4199 14.48H14.4899V16.55H12.4199V14.48Z" fill="black"/>
<path d="M8.28027 14.48H10.3503V16.55H8.28027V14.48Z" fill="black"/>
<path d="M16.5498 14.48H18.6198V16.55H16.5498V14.48Z" fill="black"/>
</g>
<defs>
<clipPath id="clip0_294_1961">
<rect width="64.15" height="64.15" fill="white"/>
</clipPath>
</defs>
</svg>
