<svg width="53" height="65" viewBox="0 0 53 65" fill="none" xmlns="http://www.w3.org/2000/svg">
<g clip-path="url(#clip0_302_840)">
<path fill-rule="evenodd" clip-rule="evenodd" d="M16.3898 46.36C15.8398 46.1 15.2898 45.81 14.7598 45.5L11.2198 47.07C10.8098 47.25 10.3298 47.16 10.0198 46.85L5.23977 42.07C4.91976 41.75 4.82977 41.27 5.01977 40.86L6.58977 37.32C5.58977 35.6 4.81977 33.75 4.30977 31.82L0.699766 30.43C0.279766 30.27 0.00976562 29.87 0.00976562 29.42V22.67C0.00976562 22.22 0.289766 21.82 0.699766 21.66L4.30977 20.27C4.82977 18.34 5.58977 16.49 6.59977 14.76L5.02977 11.22C4.84977 10.81 4.93977 10.33 5.24977 10.01L10.0298 5.22999C10.3498 4.90999 10.8298 4.81999 11.2398 5.00999L14.7798 6.57999C16.5098 5.57999 18.3498 4.80999 20.2798 4.29999L21.6798 0.67999C21.8398 0.25999 22.2398 -0.0100098 22.6898 -0.0100098H29.4398C29.8898 -0.0100098 30.2898 0.26999 30.4498 0.67999L31.8398 4.29999C33.7698 4.80999 35.6198 5.57999 37.3398 6.57999L40.8798 5.00999C41.2898 4.82999 41.7698 4.91999 42.0898 5.22999L46.8698 10.01C47.1898 10.33 47.2798 10.81 47.0898 11.21L45.5198 14.75C46.5198 16.48 47.2898 18.33 47.7998 20.26L51.4098 21.65C51.8298 21.81 52.0998 22.21 52.0998 22.66V29.41C52.0998 29.86 51.8198 30.26 51.4098 30.42L47.7998 31.81C47.2898 33.74 46.5198 35.59 45.5198 37.31L47.0898 40.85C47.2698 41.26 47.1798 41.74 46.8698 42.05L42.0898 46.83C41.7698 47.15 41.2898 47.24 40.8898 47.05L37.3498 45.48C36.8198 45.79 36.2798 46.08 35.7198 46.34L36.3198 48.21H38.9898C40.4398 48.21 41.6298 49.4 41.6298 50.85C41.6298 52.3 40.4398 53.49 38.9898 53.49H37.9998L38.9398 56.45C38.9898 56.61 38.9998 56.77 38.9798 56.94L37.7898 64.96H14.3298L13.1398 56.94C13.1198 56.78 13.1298 56.61 13.1798 56.45L14.1198 53.49H13.1298C11.6798 53.49 10.4898 52.3 10.4898 50.85C10.4898 49.4 11.6798 48.21 13.1298 48.21H15.7998L16.3998 46.33L16.3898 46.36ZM35.0398 44.28C35.5998 44 36.1498 43.7 36.6898 43.37C36.9898 43.18 37.3698 43.16 37.6998 43.3L41.0698 44.79L44.7898 41.07L43.2998 37.7C43.1598 37.37 43.1798 37 43.3698 36.7C44.4898 34.87 45.3298 32.87 45.8198 30.78C45.8998 30.43 46.1498 30.15 46.4798 30.02L49.9198 28.7V23.43L46.4798 22.11C46.1498 21.98 45.8998 21.7 45.8098 21.35C45.3098 19.25 44.4898 17.26 43.3598 15.42C43.1698 15.12 43.1498 14.74 43.2898 14.41L44.7798 11.04L41.0598 7.31999L37.6898 8.81999C37.3598 8.96999 36.9898 8.93999 36.6798 8.74999C34.8498 7.61999 32.8498 6.78999 30.7598 6.29999C30.4098 6.21999 30.1298 5.96999 29.9998 5.62999L28.6798 2.17999H23.4098L22.0798 5.62999C21.9498 5.95999 21.6698 6.20999 21.3198 6.28999C19.2298 6.78999 17.2298 7.60999 15.3998 8.73999C15.0998 8.92999 14.7198 8.94999 14.3898 8.80999L11.0198 7.30999L7.29977 11.03L8.79977 14.4C8.94977 14.73 8.91976 15.1 8.72976 15.41C7.59976 17.24 6.76977 19.24 6.26977 21.34C6.18977 21.69 5.93977 21.97 5.60977 22.1L2.16977 23.42V28.69L5.60977 30.01C5.93977 30.14 6.18977 30.42 6.26977 30.77C6.76977 32.86 7.59976 34.86 8.72976 36.69C8.91976 36.99 8.93977 37.37 8.79977 37.7L7.29977 41.07L11.0198 44.79L14.3898 43.3C14.7198 43.16 15.0898 43.18 15.3898 43.37C15.9298 43.7 16.4798 44 17.0398 44.28L18.1398 40.82C12.8698 38 9.28977 32.44 9.28977 26.05C9.28977 16.8 16.7798 9.30999 26.0298 9.30999C35.2798 9.30999 42.7798 16.8 42.7798 26.05C42.7798 32.44 39.1998 38 33.9298 40.82L35.0298 44.28H35.0398ZM34.0298 48.24L29.4898 33.94C28.9198 34.25 28.3098 34.48 27.6598 34.63L31.9898 48.24H34.0398H34.0298ZM31.3098 32.54L33.2698 38.72C37.6598 36.21 40.6198 31.48 40.6198 26.05C40.6198 18 34.0898 11.48 26.0398 11.48C17.9898 11.48 11.4698 18 11.4698 26.05C11.4698 31.47 14.4298 36.2 18.8198 38.72L20.7798 32.54C19.5598 31.25 18.8198 29.5 18.8198 27.59C18.8198 24.63 20.5998 22.09 23.1398 20.97V19.16C23.1398 17.56 24.4498 16.25 26.0498 16.25C27.6498 16.25 28.9598 17.56 28.9598 19.16V20.97C31.4998 22.09 33.2798 24.63 33.2798 27.59C33.2798 29.51 32.5298 31.25 31.3198 32.54H31.3098ZM35.7098 53.53H33.6598L36.1298 61.3L36.7798 56.91L35.7098 53.53ZM31.3798 53.53H20.7098L17.0598 65H35.0198L31.3698 53.53H31.3798ZM18.4398 53.53H16.3898L15.3198 56.91L15.9698 61.3L18.4398 53.53ZM18.0698 48.24H20.1198L24.4498 34.63C23.7998 34.48 23.1898 34.25 22.6198 33.94L18.0798 48.24H18.0698ZM22.3898 48.24H29.6998L26.0398 36.74L22.3798 48.24H22.3898ZM26.7898 21.72V19.16C26.7898 18.75 26.4598 18.42 26.0498 18.42C25.6398 18.42 25.3098 18.75 25.3098 19.16V21.72C25.3098 22.19 24.9998 22.61 24.5498 22.75C22.4898 23.39 20.9898 25.31 20.9898 27.58C20.9898 30.37 23.2498 32.64 26.0498 32.64C28.8498 32.64 31.1098 30.38 31.1098 27.58C31.1098 25.31 29.6098 23.39 27.5498 22.75C27.0998 22.61 26.7898 22.19 26.7898 21.72ZM26.0498 23.78C28.1498 23.78 29.8498 25.48 29.8498 27.58C29.8498 29.68 28.1498 31.38 26.0498 31.38C23.9498 31.38 22.2498 29.68 22.2498 27.58C22.2498 25.48 23.9498 23.78 26.0498 23.78ZM26.0498 25.95C25.1498 25.95 24.4098 26.68 24.4098 27.59C24.4098 28.5 25.1398 29.23 26.0498 29.23C26.9598 29.23 27.6898 28.5 27.6898 27.59C27.6898 26.68 26.9598 25.95 26.0498 25.95ZM13.1198 50.41C12.8598 50.41 12.6398 50.62 12.6398 50.89C12.6398 51.16 12.8498 51.37 13.1198 51.37H38.9698C39.2298 51.37 39.4498 51.16 39.4498 50.89C39.4498 50.62 39.2398 50.41 38.9698 50.41H13.1198Z" fill="#141414"/>
</g>
<defs>
<clipPath id="clip0_302_840">
<rect width="52.09" height="65" fill="white"/>
</clipPath>
</defs>
</svg>
