<svg width="64" height="51" viewBox="0 0 64 51" fill="none" xmlns="http://www.w3.org/2000/svg">
<g clip-path="url(#clip0_308_858)">
<path d="M8.39027 35.0099C10.6503 35.0099 12.5003 33.1599 12.5003 30.8999C12.5003 28.6399 10.6503 26.7899 8.39027 26.7899C6.13027 26.7899 4.28027 28.6399 4.28027 30.8999C4.28027 33.1599 6.13027 35.0099 8.39027 35.0099Z" stroke="#141414" stroke-width="1.9" stroke-linecap="round" stroke-linejoin="round"/>
<path d="M27.32 30.8999H12.5" stroke="#141414" stroke-width="1.9" stroke-linecap="round" stroke-linejoin="round"/>
<path d="M31.4303 35.0099C33.7003 35.0099 35.5403 33.1599 35.5403 30.8999C35.5403 28.6399 33.6903 26.7899 31.4303 26.7899C29.1703 26.7899 27.3203 28.6399 27.3203 30.8999C27.3203 33.1599 29.1703 35.0099 31.4303 35.0099Z" stroke="#141414" stroke-width="1.9" stroke-linecap="round" stroke-linejoin="round"/>
<path d="M50.72 30.8999H35.54" stroke="#141414" stroke-width="1.9" stroke-linecap="round" stroke-linejoin="round"/>
<path d="M54.8405 35.0099C57.1005 35.0099 58.9505 33.1599 58.9505 30.8999C58.9505 28.6399 57.1005 26.7899 54.8405 26.7899C52.5805 26.7899 50.7305 28.6399 50.7305 30.8999C50.7305 33.1599 52.5805 35.0099 54.8405 35.0099Z" stroke="#141414" stroke-width="1.9" stroke-linecap="round" stroke-linejoin="round"/>
<path d="M30.1699 19.82L28.5399 17.95C27.0699 16.01 25.4299 14.14 24.6099 11.82C22.6499 6.30996 25.5799 0.959961 31.4399 0.959961C37.2999 0.959961 40.2299 6.30996 38.2699 11.82C37.4499 14.14 35.7999 16.01 34.3399 17.95L32.7099 19.82C31.9399 20.71 30.9399 20.71 30.1699 19.82Z" stroke="#141414" stroke-width="1.9" stroke-linecap="round" stroke-linejoin="round"/>
<path d="M31.4306 11.4599C33.1106 11.4599 34.4706 10.1099 34.4706 8.43992C34.4706 6.76992 33.1106 5.41992 31.4306 5.41992C29.7506 5.41992 28.3906 6.76992 28.3906 8.43992C28.3906 10.1099 29.7506 11.4599 31.4306 11.4599Z" stroke="#141414" stroke-width="1.9" stroke-linecap="round" stroke-linejoin="round"/>
<path d="M12.0201 17C11.7801 17.31 11.5301 17.63 11.2901 17.94L9.66014 19.8099C8.89014 20.6999 7.89013 20.6999 7.12013 19.8099L5.49013 17.94C4.02013 16 2.38013 14.13 1.56013 11.81C-0.409865 6.29995 2.53014 0.949951 8.39014 0.949951C14.2501 0.949951 17.1801 6.29995 15.2201 11.81C15.0001 12.43 14.7201 13.02 14.4001 13.59" stroke="#141414" stroke-width="1.9" stroke-linecap="round" stroke-linejoin="round"/>
<path d="M8.39059 11.4599C10.0706 11.4599 11.4306 10.1099 11.4306 8.43992C11.4306 6.76992 10.0606 5.41992 8.39059 5.41992C6.72059 5.41992 5.35059 6.76992 5.35059 8.43992C5.35059 10.1099 6.71059 11.4599 8.39059 11.4599Z" stroke="#141414" stroke-width="1.9" stroke-linecap="round" stroke-linejoin="round"/>
<path d="M58.9502 30.8999H62.2802" stroke="#141414" stroke-width="1.9" stroke-linecap="round" stroke-linejoin="round"/>
<path d="M0.950195 30.8999H4.2802" stroke="#141414" stroke-width="1.9" stroke-linecap="round" stroke-linejoin="round"/>
<path d="M8.39062 20.48V26.78" stroke="#141414" stroke-width="1.9" stroke-linecap="round" stroke-linejoin="round"/>
<path d="M31.4307 20.48V26.78" stroke="#141414" stroke-width="1.9" stroke-linecap="round" stroke-linejoin="round"/>
<path d="M9.71055 40.3999H6.81055" stroke="#141414" stroke-width="1.9" stroke-linecap="round" stroke-linejoin="round"/>
<path d="M12.0098 45.0199H4.50977" stroke="#141414" stroke-width="1.9" stroke-linecap="round" stroke-linejoin="round"/>
<path d="M33.15 40.3999H30.25" stroke="#141414" stroke-width="1.9" stroke-linecap="round" stroke-linejoin="round"/>
<path d="M35.4404 45.0199H27.9404" stroke="#141414" stroke-width="1.9" stroke-linecap="round" stroke-linejoin="round"/>
<path d="M56.94 40.3999H54.04" stroke="#141414" stroke-width="1.9" stroke-linecap="round" stroke-linejoin="round"/>
<path d="M59.2402 45.0199H51.7402" stroke="#141414" stroke-width="1.9" stroke-linecap="round" stroke-linejoin="round"/>
<path d="M12.0098 49.63H4.50977" stroke="#141414" stroke-width="1.9" stroke-linecap="round" stroke-linejoin="round"/>
<path d="M35.4404 49.63H27.9404" stroke="#141414" stroke-width="1.9" stroke-linecap="round" stroke-linejoin="round"/>
<path d="M59.2402 49.63H51.7402" stroke="#141414" stroke-width="1.9" stroke-linecap="round" stroke-linejoin="round"/>
<path d="M54.8398 11.4599C56.5198 11.4599 57.8798 10.1099 57.8798 8.43992C57.8798 6.76992 56.5098 5.41992 54.8398 5.41992C53.1698 5.41992 51.7998 6.76992 51.7998 8.43992C51.7998 10.1099 53.1598 11.4599 54.8398 11.4599Z" stroke="#141414" stroke-width="1.9" stroke-linecap="round" stroke-linejoin="round"/>
<path d="M54.8398 20.48V26.78" stroke="#141414" stroke-width="1.9" stroke-linecap="round" stroke-linejoin="round"/>
<path d="M58.4605 17C58.2205 17.31 57.9705 17.63 57.7305 17.94L56.1005 19.8099C55.3305 20.6999 54.3305 20.6999 53.5605 19.8099L51.9305 17.94C50.4605 16 48.8205 14.13 48.0005 11.81C46.0405 6.29995 48.9705 0.949951 54.8305 0.949951C60.6905 0.949951 63.6205 6.29995 61.6605 11.81C61.4405 12.43 61.1605 13.02 60.8405 13.59" stroke="#141414" stroke-width="1.9" stroke-linecap="round" stroke-linejoin="round"/>
</g>
<defs>
<clipPath id="clip0_308_858">
<rect width="63.23" height="50.58" fill="white"/>
</clipPath>
</defs>
</svg>
