<svg width="62" height="62" viewBox="0 0 62 62" fill="none" xmlns="http://www.w3.org/2000/svg">
<g clip-path="url(#clip0_294_2110)">
<path d="M13.5702 14.8101C9.64016 18.9501 7.16016 24.7401 7.16016 30.9501" stroke="#141414" stroke-width="1.9" stroke-linecap="round" stroke-linejoin="round"/>
<path d="M9.2302 10.2603C4.0502 15.6403 0.950195 22.8803 0.950195 30.9503C0.950195 32.4003 0.950195 33.6403 1.1602 35.0903" stroke="#141414" stroke-width="1.9" stroke-linecap="round" stroke-linejoin="round"/>
<path d="M52.6699 51.6401C57.8399 46.2601 60.9499 39.0201 60.9499 30.9501C60.9499 29.5001 60.9499 28.2601 60.7399 26.8101" stroke="#141414" stroke-width="1.9" stroke-linecap="round" stroke-linejoin="round"/>
<path d="M48.1198 46.8802L43.9798 42.7402L40.2598 59.5002L57.0198 55.9802L52.6698 51.6402" stroke="#141414" stroke-width="1.9" stroke-linecap="round" stroke-linejoin="round"/>
<path d="M48.3301 47.0902C52.2601 42.7502 54.7401 37.1602 54.7401 30.9502" stroke="#141414" stroke-width="1.9" stroke-linecap="round" stroke-linejoin="round"/>
<path d="M13.7799 15.0204L17.9199 19.1604L21.6399 2.40039L4.87988 5.92039L9.22988 10.2604" stroke="#141414" stroke-width="1.9" stroke-linecap="round" stroke-linejoin="round"/>
<path d="M10.2607 52.6704C15.6407 57.8404 22.8807 60.9504 30.9507 60.9504C32.4007 60.9504 33.6407 60.9504 35.0907 60.7404" stroke="#141414" stroke-width="1.9" stroke-linecap="round" stroke-linejoin="round"/>
<path d="M15.0204 48.1203L19.1604 43.9803L2.40039 40.2603L5.92039 57.0203L10.2604 52.6703" stroke="#141414" stroke-width="1.9" stroke-linecap="round" stroke-linejoin="round"/>
<path d="M14.8105 48.3301C19.1505 52.2601 24.7405 54.7401 30.9505 54.7401" stroke="#141414" stroke-width="1.9" stroke-linecap="round" stroke-linejoin="round"/>
<path d="M51.6405 9.2302C46.2605 4.0502 39.0205 0.950195 30.9505 0.950195C29.5005 0.950195 28.0505 0.950195 26.8105 1.1602" stroke="#141414" stroke-width="1.9" stroke-linecap="round" stroke-linejoin="round"/>
<path d="M46.8802 13.7804L42.7402 17.9204L59.5002 21.6404L55.9802 4.88037L51.6402 9.23037" stroke="#141414" stroke-width="1.9" stroke-linecap="round" stroke-linejoin="round"/>
<path d="M47.0902 13.5702C42.9502 9.64016 37.1602 7.16016 30.9502 7.16016" stroke="#141414" stroke-width="1.9" stroke-linecap="round" stroke-linejoin="round"/>
<path d="M35.0898 54.7402H35.2898" stroke="#141414" stroke-width="1.9" stroke-linecap="round" stroke-linejoin="round"/>
<path d="M26.6104 7.16016H26.8104" stroke="#141414" stroke-width="1.9" stroke-linecap="round" stroke-linejoin="round"/>
<path d="M54.7402 26.6104V26.8104" stroke="#141414" stroke-width="1.9" stroke-linecap="round" stroke-linejoin="round"/>
<path d="M7.16016 35.0903V35.2903" stroke="#141414" stroke-width="1.9" stroke-linecap="round" stroke-linejoin="round"/>
<path d="M42.1203 28.4703C42.3303 29.3003 42.3303 30.1303 42.3303 30.9503C42.3303 37.1603 37.1603 42.3303 30.9503 42.3303C24.7403 42.3303 19.5703 37.1603 19.5703 30.9503C19.5703 24.7403 24.7403 19.5703 30.9503 19.5703C33.4303 19.5703 35.7103 20.4003 37.5703 21.6403" stroke="#141414" stroke-width="1.9" stroke-linecap="round" stroke-linejoin="round"/>
<path d="M40.8804 24.1201L30.9504 33.8501L26.4004 29.2901" stroke="#141414" stroke-width="1.9" stroke-linecap="round" stroke-linejoin="round"/>
</g>
<defs>
<clipPath id="clip0_294_2110">
<rect width="61.9" height="61.9" fill="white"/>
</clipPath>
</defs>
</svg>
