<svg width="61" height="61" viewBox="0 0 61 61" fill="none" xmlns="http://www.w3.org/2000/svg">
<g clip-path="url(#clip0_294_2092)">
<path d="M30.5001 19.98C35.1501 19.98 38.9101 16.21 38.9101 11.57V5.51C38.9101 2.47 36.4401 0 33.4001 0H27.5901C24.5501 0 22.0801 2.47 22.0801 5.51V11.57C22.0801 16.22 25.8501 19.98 30.4901 19.98H30.5001ZM27.6001 2.1H32.4201C32.1701 5.65 28.1101 7.41 24.2001 7.53V5.51C24.2001 3.63 25.7301 2.1 27.6101 2.1H27.6001ZM24.1901 9.63C27.8701 9.55 33.7901 8.12 34.5201 2.27C35.9001 2.75 36.8201 4.05 36.8101 5.51V11.57C36.8101 15.06 33.9801 17.88 30.5001 17.88C27.0201 17.88 24.1901 15.05 24.1901 11.57V9.63Z" fill="#141414"/>
<path d="M59.95 36.81H49.43V23.14C49.43 18.49 45.66 14.73 41.02 14.73C40.44 14.73 39.97 15.2 39.97 15.78C39.97 16.36 40.44 16.83 41.02 16.83C44.51 16.83 47.33 19.66 47.33 23.14V36.81H45.23V31.25C45.27 26.24 41.25 22.15 36.24 22.09H24.78C19.77 22.15 15.75 26.24 15.79 31.25V36.81H13.69V23.14C13.69 19.65 16.52 16.83 20 16.83C20.58 16.83 21.05 16.36 21.05 15.78C21.05 15.2 20.58 14.73 20 14.73C15.35 14.73 11.59 18.5 11.59 23.14V36.81H1.05C0.47 36.81 0 37.28 0 37.86V59.95C0 60.53 0.47 61 1.05 61H59.95C60.53 61 61 60.53 61 59.95V37.86C61 37.28 60.53 36.81 59.95 36.81ZM32.8 28.01L32.6 27.1C32.48 26.62 32.04 26.29 31.55 26.3H29.45C28.95 26.29 28.52 26.62 28.4 27.1L28.17 28.02L26.22 24.2H34.78L32.8 28.02V28.01ZM31.34 30.82L30.5 32.43L29.66 30.82L30.27 28.4H30.73L31.34 30.82ZM17.88 31.25C17.85 27.75 20.41 24.76 23.87 24.26L27.64 31.5L29.56 35.19C29.82 35.71 30.46 35.91 30.98 35.65C31.18 35.55 31.34 35.39 31.44 35.19L33.36 31.56L37.13 24.32C40.57 24.82 43.12 27.77 43.12 31.25V36.81H41.02V34.71C41.02 34.13 40.55 33.66 39.97 33.66C39.39 33.66 38.92 34.13 38.92 34.71V36.81H22.09V34.71C22.09 34.13 21.62 33.66 21.04 33.66C20.46 33.66 19.99 34.13 19.99 34.71V36.81H17.89V31.25H17.88ZM2.1 38.91H58.89V41.01H2.1V38.91ZM15.78 58.9V51.54H45.23V58.9H15.78ZM58.9 58.9H47.33V50.49C47.33 49.91 46.86 49.44 46.28 49.44H14.72C14.14 49.44 13.67 49.91 13.67 50.49V58.9H2.1V43.12H58.89V58.9H58.9Z" fill="#141414"/>
</g>
<defs>
<clipPath id="clip0_294_2092">
<rect width="61" height="61" fill="white"/>
</clipPath>
</defs>
</svg>
