<svg width="35" height="35" viewBox="0 0 35 35" fill="none" xmlns="http://www.w3.org/2000/svg">
<g clip-path="url(#clip0_242_915)">
<path d="M17.4001 33.7802C26.3913 33.7802 33.6801 26.4914 33.6801 17.5002C33.6801 8.50902 26.3913 1.22021 17.4001 1.22021C8.40892 1.22021 1.12012 8.50902 1.12012 17.5002C1.12012 26.4914 8.40892 33.7802 17.4001 33.7802Z" fill="white"/>
<path d="M17.5 0C7.84 0 0 7.84 0 17.5C0 27.16 7.84 35 17.5 35C27.16 35 35 27.16 35 17.5C35 7.84 27.16 0 17.5 0ZM12.41 26.46H8.15V13.64H12.41V26.46ZM10.28 11.88H10.25C8.82 11.88 7.89 10.9 7.89 9.66C7.89 8.42 8.84 7.44 10.3 7.44C11.76 7.44 12.66 8.4 12.68 9.66C12.68 10.89 11.76 11.88 10.27 11.88H10.28ZM27.78 26.46H23.52V19.6C23.52 17.88 22.9 16.7 21.36 16.7C20.18 16.7 19.48 17.49 19.17 18.26C19.06 18.53 19.03 18.92 19.03 19.3V26.46H14.77C14.77 26.46 14.83 14.84 14.77 13.64H19.03V15.46C19.6 14.59 20.61 13.34 22.87 13.34C25.67 13.34 27.78 15.17 27.78 19.11V26.46Z" fill="#141414"/>
</g>
<defs>
<clipPath id="clip0_242_915">
<rect width="35" height="35" fill="white"/>
</clipPath>
</defs>
</svg>
