<svg width="58" height="58" viewBox="0 0 58 58" fill="none" xmlns="http://www.w3.org/2000/svg">
<g clip-path="url(#clip0_294_2084)">
<path d="M42.28 57.35H0V0H42.28C45.42 0 47.97 2.55 47.97 5.69V9.38H57.35V39.52H47.97V51.65C47.97 54.79 45.42 57.34 42.28 57.34V57.35ZM11.38 55.35H42.28C44.32 55.35 45.97 53.69 45.97 51.66V5.69C45.97 3.66 44.31 2 42.28 2H11.38V55.35ZM2 55.35H9.38V2H2V55.35ZM47.97 37.52H55.35V30.14H47.97V37.52ZM47.97 28.14H55.35V20.76H47.97V28.14ZM47.97 18.76H55.35V11.38H47.97V18.76ZM39.93 44.52H17.42V42.52H39.93V44.52ZM39.93 35.14H17.42V33.14H39.93V35.14ZM27.02 25.19L19.68 17.85L21.09 16.44L27.02 22.37L36.26 13.13L37.67 14.54L27.01 25.2L27.02 25.19Z" fill="#141414"/>
</g>
<defs>
<clipPath id="clip0_294_2084">
<rect width="57.35" height="57.35" fill="white"/>
</clipPath>
</defs>
</svg>
