<svg width="56" height="57" viewBox="0 0 56 57" fill="none" xmlns="http://www.w3.org/2000/svg">
<g clip-path="url(#clip0_302_843)">
<path d="M54.37 0H24.44C24.35 0.01 24.26 0.03 24.17 0.06H24.08C23.98 0.11 23.88 0.17 23.8 0.25L11.85 12.2C11.77 12.28 11.71 12.38 11.66 12.48V12.57C11.63 12.66 11.61 12.75 11.6 12.84V38.93L1.17 49.31C-0.39 50.87 -0.39 53.39 1.17 54.95C2.73 56.51 5.25 56.51 6.81 54.95L11.56 50.2V51.78C11.56 52.33 12.01 52.78 12.56 52.78H54.38C54.93 52.78 55.38 52.33 55.38 51.78V1C55.38 0.45 54.93 0 54.38 0H54.37ZM23.5 3.4V11.95H14.95L23.5 3.4ZM5.39 53.54C4.6 54.29 3.36 54.29 2.57 53.54C1.79 52.76 1.79 51.5 2.57 50.72L13.26 40.04L17.53 35.76C18.05 36.58 18.65 37.33 19.33 38.02C19.59 38.28 19.87 38.53 20.16 38.77L11.85 47.08L5.4 53.54H5.39ZM20.73 36.62C16.45 32.34 16.45 25.41 20.73 21.13C25.01 16.85 31.94 16.85 36.22 21.13C40.5 25.41 40.5 32.34 36.22 36.62C31.95 40.9 25.01 40.91 20.73 36.63V36.62ZM53.38 50.79H13.55V48.21L21.81 39.95C27.95 43.62 35.9 41.61 39.56 35.48C43.23 29.34 41.22 21.39 35.09 17.73C28.95 14.06 21 16.07 17.34 22.2C15.22 25.75 14.92 30.11 16.55 33.92L13.56 36.91V13.94H24.51C25.06 13.94 25.51 13.49 25.51 12.94V1.99H53.39V50.78L53.38 50.79Z" fill="#141414"/>
<path d="M24.5 24.9H32.47C33.02 24.9 33.47 24.45 33.47 23.9C33.47 23.35 33.02 22.9 32.47 22.9H24.5C23.95 22.9 23.5 23.35 23.5 23.9C23.5 24.45 23.95 24.9 24.5 24.9Z" fill="#141414"/>
<path d="M33.4602 33.86C33.4602 33.31 33.0102 32.86 32.4602 32.86H24.4902C23.9402 32.86 23.4902 33.31 23.4902 33.86C23.4902 34.41 23.9402 34.86 24.4902 34.86H32.4602C33.0102 34.86 33.4602 34.41 33.4602 33.86Z" fill="#141414"/>
<path d="M36.4498 28.88C36.4498 28.33 35.9998 27.88 35.4498 27.88H21.5098C20.9598 27.88 20.5098 28.33 20.5098 28.88C20.5098 29.43 20.9598 29.88 21.5098 29.88H35.4498C35.9998 29.88 36.4498 29.43 36.4498 28.88Z" fill="#141414"/>
<path d="M50.3904 42.8199H38.4404C37.8904 42.8199 37.4404 43.2699 37.4404 43.8199C37.4404 44.3699 37.8904 44.8199 38.4404 44.8199H50.3904C50.9404 44.8199 51.3904 44.3699 51.3904 43.8199C51.3904 43.2699 50.9404 42.8199 50.3904 42.8199Z" fill="#141414"/>
<path d="M50.3899 37.84H42.4199C41.8699 37.84 41.4199 38.29 41.4199 38.84C41.4199 39.39 41.8699 39.84 42.4199 39.84H50.3899C50.9399 39.84 51.3899 39.39 51.3899 38.84C51.3899 38.29 50.9399 37.84 50.3899 37.84Z" fill="#141414"/>
<path d="M50.3902 22.9H46.4102C45.8602 22.9 45.4102 23.35 45.4102 23.9C45.4102 24.45 45.8602 24.9 46.4102 24.9H50.3902C50.9402 24.9 51.3902 24.45 51.3902 23.9C51.3902 23.35 50.9402 22.9 50.3902 22.9Z" fill="#141414"/>
<path d="M50.3902 27.88H45.4102C44.8602 27.88 44.4102 28.33 44.4102 28.88C44.4102 29.43 44.8602 29.88 45.4102 29.88H50.3902C50.9402 29.88 51.3902 29.43 51.3902 28.88C51.3902 28.33 50.9402 27.88 50.3902 27.88Z" fill="#141414"/>
<path d="M50.3899 32.86H43.4199C42.8699 32.86 42.4199 33.31 42.4199 33.86C42.4199 34.41 42.8699 34.86 43.4199 34.86H50.3899C50.9399 34.86 51.3899 34.41 51.3899 33.86C51.3899 33.31 50.9399 32.86 50.3899 32.86Z" fill="#141414"/>
<path d="M50.3904 12.95H37.4404C36.8904 12.95 36.4404 13.4 36.4404 13.95C36.4404 14.5 36.8904 14.95 37.4404 14.95H50.3904C50.9404 14.95 51.3904 14.5 51.3904 13.95C51.3904 13.4 50.9404 12.95 50.3904 12.95Z" fill="#141414"/>
<path d="M30.4697 9.95996H50.3897C50.9397 9.95996 51.3897 9.50996 51.3897 8.95996C51.3897 8.40996 50.9397 7.95996 50.3897 7.95996H30.4697C29.9197 7.95996 29.4697 8.40996 29.4697 8.95996C29.4697 9.50996 29.9197 9.95996 30.4697 9.95996Z" fill="#141414"/>
<path d="M50.3899 17.92H42.4199C41.8699 17.92 41.4199 18.37 41.4199 18.92C41.4199 19.47 41.8699 19.92 42.4199 19.92H50.3899C50.9399 19.92 51.3899 19.47 51.3899 18.92C51.3899 18.37 50.9399 17.92 50.3899 17.92Z" fill="#141414"/>
</g>
<defs>
<clipPath id="clip0_302_843">
<rect width="55.37" height="56.12" fill="white"/>
</clipPath>
</defs>
</svg>
