<svg width="57" height="57" viewBox="0 0 57 57" fill="none" xmlns="http://www.w3.org/2000/svg">
<g clip-path="url(#clip0_294_2065)">
<path d="M23.6396 50.1101C23.3796 50.1101 23.1296 50.0101 22.9296 49.8201L13.3696 40.2601C12.9796 39.8701 12.9796 39.2401 13.3696 38.8501L18.2096 34.0101C18.5896 33.6301 19.2496 33.6301 19.6196 34.0101L29.1796 43.5701C29.5696 43.9601 29.5696 44.5901 29.1796 44.9801L24.3396 49.8201C24.1396 50.0201 23.8896 50.1101 23.6296 50.1101H23.6396ZM15.4996 39.5601L23.6396 47.7001L27.0596 44.2801L18.9196 36.1401L15.4996 39.5601Z" fill="#141414"/>
<path d="M33.3093 50.11C33.0493 50.11 32.7993 50.01 32.5993 49.82L27.7593 44.98C27.3693 44.59 27.3693 43.96 27.7593 43.57L37.3193 34.01C37.7093 33.62 38.3393 33.62 38.7293 34.01L43.5693 38.85C43.9593 39.24 43.9593 39.87 43.5693 40.26L34.0093 49.82C33.8093 50.02 33.5593 50.11 33.2993 50.11H33.3093ZM29.8893 44.28L33.3093 47.7L41.4493 39.56L38.0293 36.14L29.8893 44.28Z" fill="#141414"/>
<path d="M38.0299 35.72H18.9199C18.3699 35.72 17.9199 35.27 17.9199 34.72C17.9199 34.17 18.3699 33.72 18.9199 33.72H38.0299C38.5799 33.72 39.0299 34.17 39.0299 34.72C39.0299 35.27 38.5799 35.72 38.0299 35.72Z" fill="#141414"/>
<path d="M55.95 56.95H1C0.45 56.95 0 56.5 0 55.95V47.47C0 44.38 2.09 41.67 5.08 40.88L13.83 38.58C14.37 38.44 14.91 38.76 15.05 39.29C15.19 39.82 14.87 40.37 14.34 40.51L5.59 42.81C3.48 43.37 2 45.28 2 47.46V54.94H54.95V47.46C54.95 45.28 53.48 43.36 51.36 42.81L42.61 40.51C42.08 40.37 41.76 39.82 41.9 39.29C42.04 38.76 42.59 38.44 43.12 38.58L51.87 40.88C54.86 41.67 56.95 44.37 56.95 47.47V55.95C56.95 56.5 56.5 56.95 55.95 56.95Z" fill="#141414"/>
<path d="M28.4805 56.95C27.9305 56.95 27.4805 56.5 27.4805 55.95V44.27C27.4805 43.72 27.9305 43.27 28.4805 43.27C29.0305 43.27 29.4805 43.72 29.4805 44.27V55.95C29.4805 56.5 29.0305 56.95 28.4805 56.95Z" fill="#141414"/>
<path d="M32.9701 29.02H23.9801C23.4301 29.02 22.9801 28.57 22.9801 28.02V21.82C19.2501 19.81 16.8701 15.86 16.8701 11.6C16.8701 5.2 22.0801 0 28.4701 0C34.8601 0 40.0701 5.21 40.0701 11.6C40.0701 15.87 37.6901 19.81 33.9601 21.82V28.02C33.9601 28.57 33.5101 29.02 32.9601 29.02H32.9701ZM24.9801 27.02H31.9701V21.21C31.9701 20.82 32.1901 20.47 32.5501 20.3C35.9101 18.72 38.0901 15.31 38.0901 11.6C38.0901 6.3 33.7801 2 28.4901 2C23.2001 2 18.8901 6.31 18.8901 11.6C18.8901 15.31 21.0601 18.73 24.4301 20.3C24.7801 20.46 25.0101 20.82 25.0101 21.21V27.02H24.9801Z" fill="#141414"/>
<path d="M32.9705 22.21H23.9805C23.4305 22.21 22.9805 21.76 22.9805 21.21C22.9805 20.66 23.4305 20.21 23.9805 20.21H32.9705C33.5205 20.21 33.9705 20.66 33.9705 21.21C33.9705 21.76 33.5205 22.21 32.9705 22.21Z" fill="#141414"/>
<path d="M28.4803 22.21C27.9303 22.21 27.4803 21.76 27.4803 21.21V15.3L24.8003 12.62C24.4103 12.23 24.4103 11.6 24.8003 11.21C25.1903 10.82 25.8203 10.82 26.2103 11.21L29.1803 14.18C29.3703 14.37 29.4703 14.62 29.4703 14.89V21.22C29.4703 21.77 29.0203 22.22 28.4703 22.22L28.4803 22.21Z" fill="#141414"/>
<path d="M28.4805 22.21C27.9305 22.21 27.4805 21.76 27.4805 21.21V14.88C27.4805 14.61 27.5905 14.36 27.7705 14.17L30.7405 11.2C31.1305 10.81 31.7605 10.81 32.1505 11.2C32.5405 11.59 32.5405 12.22 32.1505 12.61L29.4705 15.29V21.2C29.4705 21.75 29.0205 22.2 28.4705 22.2L28.4805 22.21Z" fill="#141414"/>
<path d="M50.0499 12.6001H45.9199C45.3699 12.6001 44.9199 12.1501 44.9199 11.6001C44.9199 11.0501 45.3699 10.6001 45.9199 10.6001H50.0499C50.5999 10.6001 51.0499 11.0501 51.0499 11.6001C51.0499 12.1501 50.5999 12.6001 50.0499 12.6001Z" fill="#141414"/>
<path d="M44.9905 4.19998C44.6605 4.19998 44.3305 4.02998 44.1405 3.72998C43.8505 3.25998 43.9905 2.64998 44.4505 2.34998L47.9505 0.149982C48.4205 -0.140018 49.0305 -1.77324e-05 49.3305 0.459982C49.6205 0.929982 49.4805 1.53998 49.0205 1.83998L45.5205 4.03998C45.3505 4.13998 45.1705 4.18998 44.9905 4.18998V4.19998Z" fill="#141414"/>
<path d="M11.96 4.20003C11.78 4.20003 11.59 4.15003 11.43 4.05003L7.92999 1.85003C7.45999 1.56003 7.31999 0.940025 7.61999 0.470025C7.90999 2.54214e-05 8.52999 -0.139975 8.99999 0.160025L12.5 2.36003C12.97 2.65003 13.11 3.27003 12.81 3.74003C12.62 4.04003 12.29 4.21003 11.96 4.21003V4.20003Z" fill="#141414"/>
<path d="M48.4795 23.21C48.2995 23.21 48.1095 23.16 47.9495 23.06L44.4495 20.86C43.9795 20.57 43.8395 19.95 44.1395 19.48C44.4295 19.01 45.0495 18.87 45.5195 19.17L49.0195 21.37C49.4895 21.66 49.6295 22.28 49.3295 22.75C49.1395 23.05 48.8095 23.22 48.4795 23.22V23.21Z" fill="#141414"/>
<path d="M8.46995 23.21C8.13995 23.21 7.80995 23.04 7.61995 22.74C7.32995 22.27 7.46995 21.66 7.92995 21.36L11.43 19.16C11.9 18.87 12.51 19.01 12.81 19.47C13.11 19.93 12.96 20.55 12.5 20.85L8.99995 23.05C8.82995 23.15 8.64995 23.2 8.46995 23.2V23.21Z" fill="#141414"/>
<path d="M11.0304 12.6001H6.90039C6.35039 12.6001 5.90039 12.1501 5.90039 11.6001C5.90039 11.0501 6.35039 10.6001 6.90039 10.6001H11.0304C11.5804 10.6001 12.0304 11.0501 12.0304 11.6001C12.0304 12.1501 11.5804 12.6001 11.0304 12.6001Z" fill="#141414"/>
</g>
<defs>
<clipPath id="clip0_294_2065">
<rect width="56.95" height="56.95" fill="white"/>
</clipPath>
</defs>
</svg>
