<svg width="70" height="70" viewBox="0 0 70 70" fill="none" xmlns="http://www.w3.org/2000/svg">
<g clip-path="url(#clip0_529_2056)">
<path d="M34.8787 67.79C53.0544 67.79 67.7887 53.0557 67.7887 34.88C67.7887 16.7043 53.0544 1.96997 34.8787 1.96997C16.7031 1.96997 1.96875 16.7043 1.96875 34.88C1.96875 53.0557 16.7031 67.79 34.8787 67.79Z" fill="white"/>
<path d="M35 0C15.67 0 0 15.67 0 35C0 54.33 15.67 70 35 70C54.33 70 70 54.33 70 35C70 15.67 54.33 0 35 0ZM35.74 55.38C32.23 55.38 28.79 54.5 25.73 52.83L14.63 55.74L17.6 44.89C15.77 41.71 14.8 38.11 14.8 34.42C14.8 22.87 24.2 13.48 35.75 13.48C41.35 13.48 46.61 15.66 50.57 19.62C54.53 23.58 56.7 28.84 56.7 34.44C56.7 45.99 47.3 55.38 35.75 55.38H35.74Z" fill="#141414"/>
<path d="M35.7481 17.02C26.1481 17.02 18.3381 24.83 18.3281 34.42C18.3281 37.71 19.2481 40.91 20.9881 43.68L21.3981 44.34L19.6381 50.76L26.2281 49.03L26.8681 49.41C29.5381 51 32.6081 51.84 35.7281 51.84C45.3281 51.84 53.1381 44.03 53.1381 34.43C53.1381 29.78 51.3281 25.41 48.0481 22.12C44.7681 18.83 40.3881 17.02 35.7381 17.02H35.7481ZM45.9881 41.9C45.5481 43.12 43.4581 44.24 42.4581 44.39C41.5581 44.52 40.4181 44.58 39.1581 44.18C38.3981 43.94 37.4181 43.62 36.1781 43.08C30.9281 40.81 27.4981 35.53 27.2381 35.18C26.9781 34.83 25.0981 32.34 25.0981 29.77C25.0981 27.2 26.4481 25.93 26.9281 25.41C27.4081 24.89 27.9781 24.76 28.3281 24.76C28.6781 24.76 29.0281 24.76 29.3281 24.78C29.6481 24.8 30.0781 24.66 30.5081 25.68C30.9481 26.73 31.9881 29.3 32.1181 29.56C32.2481 29.82 32.3381 30.13 32.1581 30.48C31.9881 30.83 31.4081 31.58 30.8481 32.27C30.6181 32.56 30.3081 32.81 30.6181 33.34C30.9181 33.86 31.9781 35.58 33.5281 36.96C35.5281 38.74 37.2181 39.29 37.7381 39.56C38.2581 39.82 38.5681 39.78 38.8681 39.43C39.1681 39.08 40.1781 37.9 40.5281 37.38C40.8781 36.86 41.2281 36.94 41.7081 37.12C42.1881 37.29 44.7581 38.56 45.2881 38.82C45.8081 39.08 46.1581 39.21 46.2881 39.43C46.4181 39.65 46.4181 40.7 45.9881 41.92V41.9Z" fill="#141414"/>
</g>
<defs>
<clipPath id="clip0_529_2056">
<rect width="70" height="70" fill="white"/>
</clipPath>
</defs>
</svg>
