<svg width="60" height="60" viewBox="0 0 60 60" fill="none" xmlns="http://www.w3.org/2000/svg">
<g clip-path="url(#clip0_294_2027)">
<path d="M59.0399 25.09C55.3699 21.13 50.8399 17.82 45.9499 15.51C35.2899 10.47 24.0099 10.47 13.3499 15.51C8.45988 17.82 3.92988 21.13 0.259883 25.09C-0.0801172 25.45 -0.0801172 26.02 0.259883 26.39C5.74988 32.3 12.9499 36.62 20.5499 38.57L20.6899 38.61L20.7599 38.74C23.0599 42.72 25.6399 46.53 27.3899 49.02L27.7799 49.57H25.7399C25.2099 49.57 24.7799 50 24.7799 50.52V53.48H10.9199L10.8399 53.25C10.3399 51.83 8.98988 50.87 7.47988 50.87C5.51988 50.87 3.91988 52.47 3.91988 54.43C3.91988 56.39 5.51988 57.99 7.47988 57.99C8.97988 57.99 10.3299 57.04 10.8399 55.61L10.9199 55.38H24.7799V58.34C24.7799 58.87 25.2099 59.29 25.7399 59.29H33.5699C34.0999 59.29 34.5299 58.86 34.5299 58.34V55.38H48.3899L48.4699 55.61C48.9699 57.03 50.3199 57.99 51.8299 57.99C53.7899 57.99 55.3899 56.39 55.3899 54.43C55.3899 52.47 53.7899 50.87 51.8299 50.87C50.3299 50.87 48.9699 51.82 48.4699 53.25L48.3899 53.48H34.5299V50.52C34.5299 49.99 34.0999 49.57 33.5699 49.57H31.5299L31.9199 49.02C33.6699 46.53 36.2499 42.72 38.5499 38.74L38.6199 38.61L38.7599 38.57C46.3599 36.62 53.5699 32.3 59.0499 26.39C59.3899 26.03 59.3899 25.46 59.0499 25.09H59.0399ZM7.46988 56.09C6.55988 56.09 5.81988 55.35 5.81988 54.44C5.81988 53.53 6.55988 52.79 7.46988 52.79C8.37988 52.79 9.11988 53.53 9.11988 54.44C9.11988 55.35 8.37988 56.09 7.46988 56.09ZM51.8199 52.78C52.7299 52.78 53.4699 53.52 53.4699 54.43C53.4699 55.34 52.7299 56.08 51.8199 56.08C50.9099 56.08 50.1699 55.34 50.1699 54.43C50.1699 53.52 50.9099 52.78 51.8199 52.78ZM18.5699 36C12.5799 34.02 7.02988 30.56 2.50988 25.98L2.26988 25.73L2.50988 25.48C7.25988 20.67 13.1299 17.11 19.4699 15.19L20.8199 14.78L19.8099 15.77C17.1199 18.42 15.6399 21.96 15.6399 25.72C15.6399 27.94 16.7599 31.23 18.9699 35.49L19.3699 36.25L18.5499 35.98L18.5699 36ZM32.6099 51.47V57.39H26.6899V51.47H32.6099ZM29.9299 48.5L29.6399 48.9L29.3499 48.5C27.3799 45.74 17.5499 31.66 17.5499 25.73C17.5499 19.06 22.9699 13.64 29.6399 13.64C36.3099 13.64 41.7299 19.06 41.7299 25.73C41.7299 31.66 31.8999 45.74 29.9299 48.5ZM56.7899 25.98C52.2699 30.56 46.7199 34.02 40.7299 36L39.9099 36.27L40.3099 35.51C42.5199 31.25 43.6399 27.96 43.6399 25.74C43.6399 21.97 42.1599 18.44 39.4699 15.79L38.4599 14.8L39.8099 15.21C46.1599 17.13 52.0199 20.69 56.7699 25.5L57.0099 25.75L56.7699 26L56.7899 25.98Z" fill="white"/>
<path d="M29.6499 18.26C25.5299 18.26 22.1699 21.61 22.1699 25.74C22.1699 29.87 25.5199 33.22 29.6499 33.22C33.7799 33.22 37.1299 29.87 37.1299 25.74C37.1299 21.61 33.7799 18.26 29.6499 18.26ZM29.6499 31.3C26.5799 31.3 24.0799 28.8 24.0799 25.73C24.0799 22.66 26.5799 20.16 29.6499 20.16C32.7199 20.16 35.2199 22.66 35.2199 25.73C35.2199 28.8 32.7199 31.3 29.6499 31.3Z" fill="white"/>
<path d="M29.6502 0C29.1202 0 28.7002 0.43 28.7002 0.95V3.56C28.7002 4.09 29.1302 4.51 29.6502 4.51C30.1702 4.51 30.6102 4.08 30.6102 3.56V0.95C30.6102 0.42 30.1802 0 29.6502 0Z" fill="white"/>
<path d="M46.0003 10.73L47.8503 8.89001C48.2203 8.52001 48.2203 7.91001 47.8503 7.54001C47.6603 7.35001 47.4203 7.26001 47.1803 7.26001C46.9403 7.26001 46.6903 7.35001 46.5003 7.54001L44.6603 9.38001C44.2903 9.75001 44.2903 10.36 44.6603 10.73C45.0203 11.09 45.6503 11.09 46.0103 10.73H46.0003Z" fill="white"/>
<path d="M14.9199 10.06C14.9199 9.81003 14.8199 9.57003 14.6399 9.39003L12.7999 7.55003C12.4399 7.19003 11.8099 7.19003 11.4499 7.55003C11.2699 7.73003 11.1699 7.97003 11.1699 8.22003C11.1699 8.47003 11.2699 8.71003 11.4499 8.89003L13.2899 10.73C13.6499 11.09 14.2799 11.09 14.6399 10.73C14.8199 10.55 14.9199 10.31 14.9199 10.06Z" fill="white"/>
</g>
<defs>
<clipPath id="clip0_294_2027">
<rect width="59.3" height="59.3" fill="white"/>
</clipPath>
</defs>
</svg>
