<svg width="186" height="22" viewBox="0 0 186 22" fill="none" xmlns="http://www.w3.org/2000/svg">
<g clip-path="url(#clip0_120_469)">
<path d="M30.9508 0.366211L24.9855 21.6341H20.0952L15.4649 6.56141L10.8345 21.6341H5.97235L0 0.366211H4.40549L8.58613 15.4177L13.2446 0.366211H17.6992L22.3296 15.4529L26.5102 0.366211H30.9508Z" fill="white"/>
<path d="M33.2765 0.366211H37.5274V8.90573H45.9098V0.366211H50.1607V21.6341H45.9098V13.0664H37.5274V21.6341H33.2765V0.366211Z" fill="white"/>
<path d="M54.5873 0.366211H58.8382V21.6341H54.5873V0.366211Z" fill="white"/>
<path d="M66.8973 4.25229H61.192V0.366211H76.8255V4.25229H71.1482V21.6341H66.8973V4.25229Z" fill="white"/>
<path d="M79.1863 0.366211H93.0422V4.25229H83.4372V9.02541H92.5222V12.9115H83.4372V17.7409H93.2459V21.627H79.1863V0.366211Z" fill="white"/>
<path d="M95.3749 16.4668L98.895 14.58C99.5906 16.8258 101.368 17.9522 103.406 17.9522C105.064 17.9522 106.434 17.1919 106.434 15.6431C106.434 14.3055 105.155 13.7 103.666 13.1791L100.757 12.2076C97.293 11.0248 95.8667 9.13813 95.8667 6.4066C95.8667 2.45716 98.9794 -0.00683594 102.851 -0.00683594C106.111 -0.00683594 109.111 1.725 110.186 4.6114L106.694 6.6178C106.055 4.8578 104.657 4.03412 102.879 4.03412C101.333 4.03412 100.174 4.88596 100.174 6.31508C100.174 7.89205 101.6 8.44116 102.738 8.80725L105.359 9.65909C109.146 10.9685 110.748 12.9116 110.748 15.5868C110.748 19.5362 107.432 22.0002 103.469 22.0002C99.9139 22.0002 96.5412 19.9375 95.3749 16.4668Z" fill="white"/>
<path d="M113.714 0.366211H121.723C126.262 0.366211 129.291 3.25261 129.291 7.53997C129.291 11.8273 126.262 14.7419 121.723 14.7419H117.964V21.6411H113.714V0.366211ZM121.836 10.8488C123.754 10.8488 125.012 9.53933 125.012 7.53997C125.012 5.54061 123.761 4.25933 121.836 4.25933H117.964V10.8558H121.836V10.8488Z" fill="white"/>
<path d="M149.639 21.6341H145.156L143.47 17.0158H134.736L133.05 21.6341H128.567L136.711 0.366211H141.488L149.639 21.6341ZM141.924 12.8552L139.099 5.10413L136.247 12.8552H141.924Z" fill="white"/>
<path d="M149.463 10.9965C149.463 4.61824 153.918 0 160.003 0C164.31 0 167.893 2.28096 169.235 5.80096L165.743 7.9552C164.809 5.61792 162.631 4.1536 160.01 4.1536C156.398 4.1536 153.721 7.01184 153.721 10.9894C153.721 14.967 156.398 17.8253 160.01 17.8253C162.574 17.8253 164.752 16.368 165.743 14.0237L169.235 16.1779C167.865 19.705 164.317 21.9789 160.003 21.9789C153.89 21.9789 149.463 17.3606 149.463 10.9824V10.9965Z" fill="white"/>
<path d="M171.94 0.366211H185.796V4.25229H176.191V9.02541H185.276V12.9115H176.191V17.7409H186V21.627H171.94V0.366211Z" fill="white"/>
</g>
<defs>
<clipPath id="clip0_120_469">
<rect width="186" height="22" fill="white"/>
</clipPath>
</defs>
</svg>
