<svg width="43" height="43" viewBox="0 0 43 43" fill="none" xmlns="http://www.w3.org/2000/svg">
<g clip-path="url(#clip0_120_503)">
<path d="M21.39 42.78C33.2034 42.78 42.78 33.2034 42.78 21.39C42.78 9.57663 33.2034 0 21.39 0C9.57663 0 0 9.57663 0 21.39C0 33.2034 9.57663 42.78 21.39 42.78Z" fill="#141414"/>
<path d="M42.78 21.39C42.78 9.58 33.21 0 21.39 0C9.57 0 0 9.58 0 21.39C0 33.2 9.58 42.78 21.39 42.78C21.52 42.78 21.64 42.78 21.77 42.78V26.13H17.17V20.77H21.77V16.83C21.77 12.26 24.56 9.77 28.64 9.77C30.6 9.77 32.27 9.91 32.76 9.98V14.76H29.95C27.74 14.76 27.3 15.81 27.3 17.36V20.77H32.61L31.92 26.13H27.31V41.96C36.25 39.39 42.79 31.16 42.79 21.4L42.78 21.39Z" fill="white"/>
</g>
<defs>
<clipPath id="clip0_120_503">
<rect width="42.78" height="42.78" fill="white"/>
</clipPath>
</defs>
</svg>
