<svg width="43" height="43" viewBox="0 0 43 43" fill="none" xmlns="http://www.w3.org/2000/svg">
<g clip-path="url(#clip0_120_495)">
<path d="M21.32 41.4402C32.4319 41.4402 41.4399 32.4322 41.4399 21.3202C41.4399 10.2082 32.4319 1.2002 21.32 1.2002C10.208 1.2002 1.19995 10.2082 1.19995 21.3202C1.19995 32.4322 10.208 41.4402 21.32 41.4402Z" fill="#141414"/>
<path d="M21.39 0C9.58 0 0 9.58 0 21.39C0 33.2 9.58 42.78 21.39 42.78C33.2 42.78 42.78 33.2 42.78 21.39C42.78 9.58 33.2 0 21.39 0ZM21.85 33.85C19.71 33.85 17.6 33.31 15.73 32.29L8.94 34.07L10.76 27.44C9.64 25.5 9.05 23.3 9.05 21.04C9.05 13.98 14.8 8.24 21.85 8.24C25.27 8.24 28.49 9.57 30.91 11.99C33.33 14.41 34.66 17.63 34.66 21.05C34.66 28.11 28.91 33.85 21.86 33.85H21.85Z" fill="white"/>
<path d="M21.85 10.4001C15.98 10.4001 11.21 15.1701 11.2 21.0401C11.2 23.0501 11.76 25.0101 12.83 26.7001L13.08 27.1001L12 31.0301L16.03 29.9701L16.42 30.2001C18.05 31.1701 19.93 31.6801 21.84 31.6801C27.71 31.6801 32.4799 26.9101 32.4799 21.0401C32.4799 18.2001 31.38 15.5201 29.37 13.5101C27.36 11.5001 24.69 10.3901 21.85 10.3901V10.4001ZM28.11 25.6101C27.84 26.3601 26.57 27.0401 25.95 27.1301C25.4 27.2101 24.7 27.2501 23.94 27.0001C23.48 26.8501 22.88 26.6601 22.12 26.3301C18.91 24.9401 16.82 21.7101 16.66 21.5001C16.5 21.2901 15.35 19.7701 15.35 18.1901C15.35 16.6101 16.18 15.8401 16.47 15.5201C16.76 15.2001 17.11 15.1201 17.32 15.1201C17.53 15.1201 17.75 15.1201 17.93 15.1301C18.13 15.1301 18.39 15.0601 18.65 15.6801C18.92 16.3201 19.56 17.8901 19.64 18.0501C19.72 18.2101 19.77 18.4001 19.67 18.6101C19.56 18.8201 19.21 19.2801 18.87 19.7001C18.73 19.8801 18.54 20.0301 18.73 20.3501C18.92 20.6701 19.56 21.7201 20.51 22.5701C21.73 23.6601 22.76 24.0001 23.08 24.1601C23.4 24.3201 23.59 24.2901 23.77 24.0801C23.96 23.8701 24.57 23.1501 24.78 22.8301C24.99 22.5101 25.21 22.5601 25.5 22.6701C25.79 22.7801 27.37 23.5501 27.69 23.7101C28.01 23.8701 28.2199 23.9501 28.2999 24.0801C28.3799 24.2101 28.38 24.8501 28.11 25.6001V25.6101Z" fill="white"/>
</g>
<defs>
<clipPath id="clip0_120_495">
<rect width="42.78" height="42.78" fill="white"/>
</clipPath>
</defs>
</svg>
