<svg width="43" height="43" viewBox="0 0 43 43" fill="none" xmlns="http://www.w3.org/2000/svg">
<g clip-path="url(#clip0_120_506)">
<path d="M21.39 0C9.58 0 0 9.58 0 21.39C0 33.2 9.58 42.78 21.39 42.78C33.2 42.78 42.78 33.2 42.78 21.39C42.78 9.58 33.21 0 21.39 0Z" fill="white"/>
<path d="M23.73 19.4598L32.89 8.81982H30.72L22.77 18.0598L16.42 8.81982H9.09998L18.7 22.7998L9.09998 33.9598H11.27L19.67 24.1998L26.38 33.9598H33.7L23.74 19.4698L23.73 19.4598ZM12.04 10.4398H15.37L30.71 32.3898H27.38L12.04 10.4398Z" fill="#141414"/>
</g>
<defs>
<clipPath id="clip0_120_506">
<rect width="42.78" height="42.78" fill="white"/>
</clipPath>
</defs>
</svg>
