<svg width="43" height="43" viewBox="0 0 43 43" fill="none" xmlns="http://www.w3.org/2000/svg">
<g clip-path="url(#clip0_120_500)">
<path d="M21.27 41.3C32.2605 41.3 41.17 32.3905 41.17 21.4C41.17 10.4095 32.2605 1.5 21.27 1.5C10.2795 1.5 1.37 10.4095 1.37 21.4C1.37 32.3905 10.2795 41.3 21.27 41.3Z" fill="#141414"/>
<path d="M21.39 0C9.58 0 0 9.58 0 21.39C0 33.2 9.58 42.78 21.39 42.78C33.2 42.78 42.78 33.2 42.78 21.39C42.78 9.58 33.2 0 21.39 0ZM15.18 32.34H9.97V16.67H15.18V32.34ZM12.57 14.52H12.54C10.79 14.52 9.66 13.32 9.66 11.81C9.66 10.3 10.83 9.1 12.61 9.1C14.39 9.1 15.49 10.27 15.52 11.81C15.52 13.31 14.39 14.52 12.57 14.52ZM33.96 32.34H28.75V23.95C28.75 21.84 28 20.41 26.11 20.41C24.67 20.41 23.81 21.38 23.44 22.32C23.3 22.65 23.27 23.12 23.27 23.59V32.34H18.06C18.06 32.34 18.13 18.14 18.06 16.67H23.27V18.89C23.96 17.82 25.2 16.3 27.97 16.3C31.4 16.3 33.97 18.54 33.97 23.35V32.34H33.96Z" fill="white"/>
</g>
<defs>
<clipPath id="clip0_120_500">
<rect width="42.78" height="42.78" fill="white"/>
</clipPath>
</defs>
</svg>
