<svg width="43" height="43" viewBox="0 0 43 43" fill="none" xmlns="http://www.w3.org/2000/svg">
<g clip-path="url(#clip0_120_509)">
<path d="M21.3 40.7402C32.2132 40.7402 41.06 31.8934 41.06 20.9802C41.06 10.0671 32.2132 1.22021 21.3 1.22021C10.3869 1.22021 1.54004 10.0671 1.54004 20.9802C1.54004 31.8934 10.3869 40.7402 21.3 40.7402Z" fill="#141414"/>
<path d="M21.39 25.8799C23.8698 25.8799 25.88 23.8697 25.88 21.3899C25.88 18.9101 23.8698 16.8999 21.39 16.8999C18.9103 16.8999 16.9 18.9101 16.9 21.3899C16.9 23.8697 18.9103 25.8799 21.39 25.8799Z" fill="white"/>
<path d="M21.39 0C9.58 0 0 9.58 0 21.39C0 33.2 9.58 42.78 21.39 42.78C33.2 42.78 42.78 33.2 42.78 21.39C42.78 9.58 33.21 0 21.39 0ZM34.61 26.83C34.51 28.86 33.94 30.87 32.45 32.34C30.95 33.82 28.94 34.37 26.89 34.47H15.9C13.85 34.37 11.83 33.82 10.34 32.34C8.86 30.87 8.29 28.87 8.18 26.83V15.96C8.28 13.93 8.85 11.92 10.34 10.45C11.84 8.97 13.85 8.42 15.9 8.32H26.89C28.94 8.42 30.96 8.97 32.45 10.45C33.93 11.92 34.5 13.92 34.61 15.96V26.83Z" fill="white"/>
<path d="M26.75 10.7898C24.07 10.7198 18.71 10.7198 16.04 10.7898C14.65 10.8298 13.07 11.1798 12.07 12.2398C11.04 13.3398 10.65 14.6698 10.61 16.1598C10.54 18.7698 10.61 26.6198 10.61 26.6198C10.66 28.1098 11.04 29.4398 12.07 30.5398C13.06 31.5998 14.64 31.9498 16.04 31.9898C18.72 32.0598 24.08 32.0598 26.75 31.9898C28.14 31.9498 29.72 31.5998 30.72 30.5398C31.75 29.4398 32.14 28.1098 32.18 26.6198V16.1598C32.14 14.6698 31.75 13.3398 30.72 12.2398C29.73 11.1798 28.15 10.8298 26.75 10.7898ZM21.39 28.3498C17.54 28.3498 14.43 25.2298 14.43 21.3898C14.43 17.5498 17.55 14.4298 21.39 14.4298C25.23 14.4298 28.35 17.5498 28.35 21.3898C28.35 25.2398 25.23 28.3498 21.39 28.3498ZM28.38 15.8698C27.61 15.8698 26.99 15.2498 26.99 14.4798C26.99 13.7098 27.61 13.0898 28.38 13.0898C29.15 13.0898 29.77 13.7098 29.77 14.4798C29.77 15.2498 29.15 15.8698 28.38 15.8698Z" fill="white"/>
</g>
<defs>
<clipPath id="clip0_120_509">
<rect width="42.78" height="42.78" fill="white"/>
</clipPath>
</defs>
</svg>
